<?xml version="1.0" encoding="utf-8" standalone="no"?>
<!DOCTYPE svg PUBLIC "-//W3C//DTD SVG 1.1//EN"
  "http://www.w3.org/Graphics/SVG/1.1/DTD/svg11.dtd">
<svg xmlns:xlink="http://www.w3.org/1999/xlink" width="460.8pt" height="345.6pt" viewBox="0 0 460.8 345.6" xmlns="http://www.w3.org/2000/svg" version="1.1">
 <metadata>
  <rdf:RDF xmlns:dc="http://purl.org/dc/elements/1.1/" xmlns:cc="http://creativecommons.org/ns#" xmlns:rdf="http://www.w3.org/1999/02/22-rdf-syntax-ns#">
   <cc:Work>
    <dc:type rdf:resource="http://purl.org/dc/dcmitype/StillImage"/>
    <dc:date>2026-04-05T11:08:22.694959</dc:date>
    <dc:format>image/svg+xml</dc:format>
    <dc:creator>
     <cc:Agent>
      <dc:title>Matplotlib v3.10.8, https://matplotlib.org/</dc:title>
     </cc:Agent>
    </dc:creator>
   </cc:Work>
  </rdf:RDF>
 </metadata>
 <defs>
  <style type="text/css">*{stroke-linejoin: round; stroke-linecap: butt}</style>
 </defs>
 <g id="figure_1">
  <g id="axes_1">
   <g id="line2d_1">
    <path d="M 155.888116 102.869229 
L 156.395633 103.442499 
L 156.395633 104.015769 
L 155.888116 104.589038 
L 155.888116 104.015769 
L 155.380575 103.442499 
L 155.888116 102.869229 
L 153.858 99.429612 
L 153.350459 98.856342 
L 152.3354 98.856342 
L 151.320342 97.709803 
L 151.320342 97.136527 
L 150.812801 96.563257 
L 150.812801 95.989987 
L 150.305284 95.416718 
L 150.305284 94.843448 
L 149.797742 94.270179 
L 149.797742 93.696909 
L 147.767626 91.403831 
L 147.767626 90.830561 
L 147.260109 90.257292 
L 147.260109 89.684015 
L 141.677276 83.37805 
L 141.677276 82.231504 
L 141.169759 81.658234 
L 141.169759 81.084964 
L 140.662217 80.511695 
L 141.169759 79.938425 
L 141.169759 73.632456 
L 138.12456 70.192835 
L 133.049268 70.192835 
L 132.541751 70.766105 
L 130.004093 70.766105 
L 128.989035 71.912644 
L 128.989035 72.485914 
L 127.973976 73.632456 
L 127.973976 83.37805 
L 127.466459 83.951319 
L 127.466459 84.524589 
L 124.928801 87.390937 
L 124.928801 87.964206 
L 124.42126 88.537476 
L 124.42126 89.110746 
L 123.406202 90.257292 
L 123.406202 90.830561 
L 122.391143 91.9771 
L 122.391143 92.55037 
L 121.883626 93.12364 
L 121.883626 93.696909 
L 121.376085 94.270179 
L 121.376085 94.843448 
L 120.868568 95.416718 
L 120.868568 96.563257 
L 120.361027 97.136527 
L 120.361027 97.709803 
L 119.85351 98.283073 
L 119.85351 99.429612 
L 119.345969 100.002881 
L 119.345969 103.442499 
L 118.838451 104.015769 
L 118.838451 114.907905 
L 119.345969 115.481174 
L 119.345969 124.080225 
L 119.85351 124.653494 
L 119.85351 131.532736 
L 120.361027 132.106006 
L 120.361027 138.411978 
L 120.868568 138.985248 
L 120.868568 146.437766 
L 121.376085 147.011036 
L 121.376085 153.317001 
L 121.883626 153.890271 
L 121.883626 159.622967 
L 122.391143 160.19625 
L 122.391143 165.928946 
L 122.898685 166.502216 
L 122.898685 177.394352 
L 123.406202 177.967621 
L 123.406202 180.2607 
L 123.913743 180.833969 
L 123.913743 182.553778 
L 124.42126 183.127048 
L 124.42126 184.273587 
L 124.928801 184.846856 
L 124.928801 185.420126 
L 127.466459 188.286474 
L 127.973976 188.286474 
L 128.989035 189.433027 
L 130.004093 189.433027 
L 131.019151 190.579566 
L 131.526693 190.579566 
L 132.541751 191.726105 
L 133.556809 191.726105 
L 134.064326 192.299375 
L 134.571868 192.299375 
L 135.079385 192.872644 
L 135.586926 192.872644 
L 136.094443 193.445914 
L 136.601984 193.445914 
L 137.109501 194.019184 
L 138.12456 194.019184 
L 138.632101 194.592453 
L 139.139642 194.592453 
L 140.1547 195.738992 
L 140.662217 195.738992 
L 141.169759 196.312262 
L 141.677276 196.312262 
L 142.184817 196.885532 
L 144.214934 196.885532 
L 144.722451 196.312262 
L 144.722451 195.165723 
L 142.692334 192.872644 
L 142.692334 192.299375 
L 140.662217 190.006296 
L 140.1547 190.006296 
L 138.12456 187.713204 
L 137.617042 187.713204 
L 137.109501 187.139935 
L 136.601984 187.139935 
L 133.556809 183.700317 
L 133.049268 183.700317 
L 131.019151 181.407239 
L 131.019151 180.833969 
L 130.511634 180.2607 
L 130.004093 180.2607 
L 129.496576 179.68743 
L 129.496576 177.394352 
L 130.004093 177.394352 
L 130.511634 176.821082 
L 134.064326 176.821082 
L 136.094443 179.114161 
L 136.601984 179.114161 
L 137.109501 179.68743 
L 137.617042 179.68743 
L 138.632101 180.833969 
L 139.139642 180.833969 
L 139.647159 181.407239 
L 140.1547 181.407239 
L 141.677276 183.127048 
L 142.184817 183.127048 
L 142.692334 183.700317 
L 143.199875 183.700317 
L 144.722451 185.420126 
L 145.229992 185.420126 
L 146.752567 187.139935 
L 147.260109 187.139935 
L 147.767626 187.713204 
L 148.275167 187.713204 
L 149.797742 189.433027 
L 150.812801 189.433027 
L 152.842941 191.726105 
L 154.365517 191.726105 
L 155.380575 190.579566 
L 154.873058 190.006296 
L 154.873058 188.286474 
L 155.380575 187.713204 
L 155.380575 187.139935 
L 155.888116 186.566665 
L 155.888116 184.846856 
L 156.395633 184.273587 
L 156.395633 182.553778 
L 156.903175 181.980508 
L 156.903175 178.540891 
L 157.410692 177.967621 
L 157.410692 173.381451 
L 157.918233 172.808181 
L 157.918233 171.088373 
L 157.410692 170.515103 
L 157.410692 169.941833 
L 157.918233 169.368564 
L 157.918233 167.648755 
L 157.410692 167.075485 
L 157.410692 154.463541 
L 156.903175 153.890271 
L 156.903175 152.743732 
L 156.395633 152.170462 
L 156.395633 151.023923 
L 155.888116 150.450654 
L 155.888116 142.998135 
L 155.380575 142.424866 
L 155.888116 141.851596 
L 155.888116 133.825815 
L 156.395633 133.252545 
L 156.395633 132.106006 
L 156.903175 131.532736 
L 156.903175 129.812928 
L 157.410692 129.239658 
L 157.410692 126.373303 
L 157.918233 125.800034 
L 157.918233 119.494068 
L 158.42575 118.920792 
L 158.42575 118.347522 
L 159.94835 118.347522 
L 160.455867 117.774253 
L 160.455867 116.627713 
L 159.440808 115.481174 
L 158.933291 115.481174 
L 159.440808 114.907905 
L 159.94835 114.907905 
L 161.470925 113.188096 
L 161.470925 112.04155 
L 161.978466 111.46828 
L 162.485983 111.46828 
L 162.993525 112.04155 
L 162.993525 112.614826 
L 163.501042 113.188096 
L 163.501042 114.334635 
L 164.008583 114.907905 
L 164.008583 120.640607 
L 166.0387 122.933686 
L 168.068816 122.933686 
L 168.576358 123.506955 
L 169.591416 123.506955 
L 170.098933 124.080225 
L 170.606474 124.080225 
L 171.113991 124.653494 
L 172.636591 124.653494 
L 173.144108 125.226764 
L 175.681766 125.226764 
L 176.189283 125.800034 
L 178.726941 125.800034 
L 179.234482 126.373303 
L 180.24954 126.373303 
L 182.279657 128.666388 
L 182.279657 129.239658 
L 182.787174 129.812928 
L 182.787174 130.959467 
L 183.294715 131.532736 
L 183.294715 133.252545 
L 183.802232 133.825815 
L 183.802232 136.1189 
L 184.309774 136.69217 
L 184.309774 138.411978 
L 184.817291 138.985248 
L 184.817291 141.278326 
L 185.324832 141.851596 
L 185.324832 144.717944 
L 185.832349 145.291227 
L 185.832349 145.864497 
L 186.33989 146.437766 
L 186.33989 147.584306 
L 186.847407 148.157575 
L 186.847407 148.730845 
L 190.400124 152.743732 
L 190.907665 152.743732 
L 191.922723 153.890271 
L 191.922723 154.463541 
L 192.43024 155.03681 
L 192.937781 155.03681 
L 195.982944 158.476428 
L 195.982944 159.049697 
L 198.013073 161.342789 
L 198.520602 161.342789 
L 198.520602 161.916059 
L 199.028131 162.489329 
L 199.028131 163.062598 
L 199.53566 163.635868 
L 199.53566 164.782407 
L 200.04319 165.355677 
L 200.04319 165.928946 
L 200.550719 166.502216 
L 200.550719 168.222025 
L 201.058248 168.795294 
L 201.058248 169.941833 
L 201.565777 170.515103 
L 201.565777 171.088373 
L 202.073306 171.661642 
L 202.073306 172.234912 
L 204.103423 174.528004 
L 204.610952 174.528004 
L 205.118481 175.101273 
L 205.118481 175.674543 
L 207.656127 178.540891 
L 207.656127 179.114161 
L 208.671185 180.2607 
L 208.671185 180.833969 
L 209.686244 181.980508 
L 209.686244 182.553778 
L 211.208843 184.273587 
L 211.208843 184.846856 
L 211.716372 185.420126 
L 211.716372 185.993396 
L 212.223902 186.566665 
L 212.223902 187.139935 
L 212.731431 187.713204 
L 212.731431 188.286474 
L 213.23896 188.859744 
L 213.23896 189.433027 
L 213.746489 190.006296 
L 213.746489 190.579566 
L 214.254018 191.152836 
L 214.254018 191.726105 
L 215.269077 192.872644 
L 215.269077 194.019184 
L 215.776606 194.592453 
L 215.776606 195.738992 
L 216.284135 196.312262 
L 216.284135 198.60534 
L 216.791664 199.17861 
L 216.791664 199.75188 
L 219.32931 202.618227 
L 219.32931 203.191497 
L 220.851897 204.91132 
L 220.851897 205.484589 
L 222.882014 207.777667 
L 222.882014 208.350937 
L 223.389555 208.924207 
L 223.389555 209.497476 
L 223.897084 210.070746 
L 223.897084 210.644015 
L 224.404614 211.217285 
L 224.404614 211.790555 
L 225.419672 212.937094 
L 225.419672 213.510363 
L 226.43473 214.656903 
L 226.43473 215.230172 
L 227.449789 216.376711 
L 227.449789 217.523251 
L 227.957318 218.09652 
L 227.957318 218.669803 
L 228.464847 219.243073 
L 228.464847 219.816343 
L 228.972376 220.389612 
L 228.972376 220.962882 
L 229.987434 222.109421 
L 229.987434 223.25596 
L 231.002493 224.402499 
L 231.002493 224.975769 
L 231.510022 225.549039 
L 231.510022 226.695578 
L 232.017551 227.268847 
L 232.017551 231.281734 
L 231.510022 231.855004 
L 231.510022 232.428274 
L 232.017551 233.001543 
L 232.017551 234.148096 
L 232.52508 234.721366 
L 232.52508 235.867905 
L 233.032609 236.441174 
L 233.032609 238.160983 
L 233.540138 238.734253 
L 233.540138 242.17387 
L 234.047668 242.74714 
L 234.047668 245.613488 
L 233.540138 246.186758 
L 233.540138 247.90658 
L 233.032609 248.47985 
L 233.032609 250.199645 
L 232.017551 251.346184 
L 232.017551 251.919467 
L 231.510022 252.492723 
L 231.510022 253.066006 
L 231.002493 253.639262 
L 231.002493 254.212546 
L 230.494963 254.785801 
L 230.494963 255.359085 
L 229.479905 256.505624 
L 229.479905 257.652163 
L 228.972376 258.225446 
L 228.972376 259.371986 
L 228.464847 259.945241 
L 228.464847 260.518525 
L 227.957318 261.091781 
L 227.957318 261.665064 
L 226.942259 262.811603 
L 226.942259 263.384859 
L 225.927201 264.531398 
L 225.927201 265.104681 
L 222.374485 269.117555 
L 221.866956 269.117555 
L 221.359426 269.690838 
L 220.851897 269.690838 
L 220.344368 270.264121 
L 219.836839 270.264121 
L 219.32931 270.837377 
L 218.821781 270.837377 
L 218.314252 271.410661 
L 217.806722 271.410661 
L 217.299193 271.983917 
L 216.791664 271.983917 
L 216.284135 272.5572 
L 215.776606 272.5572 
L 215.269077 273.130456 
L 214.761547 273.130456 
L 214.254018 273.703739 
L 212.731431 273.703739 
L 212.223902 274.276995 
L 209.178715 274.276995 
L 208.671185 274.850278 
L 199.028131 274.850278 
L 198.013073 275.996817 
L 198.013073 276.570073 
L 198.520602 277.143357 
L 198.520602 277.716613 
L 199.53566 278.863152 
L 200.550719 278.863152 
L 202.073306 280.582974 
L 202.580835 280.582974 
L 203.595894 281.729513 
L 203.595894 282.302769 
L 204.610952 283.449308 
L 205.118481 283.449308 
L 206.641069 285.169131 
L 206.641069 285.742414 
L 207.656127 286.888953 
L 207.656127 287.462209 
L 208.163656 288.035493 
L 208.163656 288.608748 
L 209.178715 289.755288 
L 209.178715 290.328571 
L 210.701314 292.048366 
L 210.701314 292.621649 
L 211.208843 293.194905 
L 211.208843 294.914728 
L 74.175837 294.914728 
L 74.175837 126.373303 
L 74.683378 126.373303 
L 76.713495 124.080225 
L 77.221012 124.080225 
L 77.728553 123.506955 
L 78.23607 123.506955 
L 78.743612 122.933686 
L 79.251129 122.933686 
L 79.75867 122.360416 
L 80.773728 122.360416 
L 81.281245 121.787147 
L 82.296304 121.787147 
L 82.803845 121.213877 
L 83.311362 121.213877 
L 83.818903 120.640607 
L 84.32642 120.640607 
L 84.833961 120.067338 
L 85.84902 120.067338 
L 86.356537 119.494068 
L 87.371619 119.494068 
L 87.879136 118.920792 
L 89.401736 118.920792 
L 89.909253 118.347522 
L 90.924311 118.347522 
L 92.446911 116.627713 
L 92.446911 115.481174 
L 92.954428 114.907905 
L 92.954428 112.614826 
L 93.461969 112.04155 
L 93.461969 105.735584 
L 93.969486 105.162315 
L 93.969486 103.442499 
L 94.477028 102.869229 
L 94.477028 101.149421 
L 94.984545 100.576151 
L 94.984545 98.856342 
L 95.492086 98.283073 
L 95.492086 96.563257 
L 95.999603 95.989987 
L 95.999603 94.843448 
L 96.507144 94.270179 
L 96.507144 93.12364 
L 97.014661 92.55037 
L 97.014661 91.403831 
L 97.522203 90.830561 
L 97.522203 89.684015 
L 98.02972 89.110746 
L 98.02972 87.964206 
L 98.537261 87.390937 
L 98.537261 86.817667 
L 99.044778 86.244398 
L 99.044778 85.097858 
L 99.552319 84.524589 
L 99.552319 83.37805 
L 100.05986 82.80478 
L 100.05986 81.658234 
L 100.567377 81.084964 
L 100.567377 79.938425 
L 101.074919 79.365156 
L 101.074919 78.791886 
L 101.582436 78.218616 
L 101.582436 77.072074 
L 102.089977 76.498804 
L 102.089977 75.925535 
L 102.597494 75.352265 
L 102.597494 74.778995 
L 103.612552 73.632456 
L 103.612552 73.059183 
L 106.15021 70.192835 
L 106.15021 69.619562 
L 106.657727 69.046293 
L 107.165269 69.046293 
L 108.687844 67.326484 
L 109.195385 67.326484 
L 110.717961 65.606672 
L 111.225502 65.606672 
L 111.733019 65.033402 
L 112.24056 65.033402 
L 113.255619 63.886863 
L 113.76316 63.886863 
L 114.270677 63.313593 
L 114.778218 63.313593 
L 115.285735 62.740324 
L 116.300794 62.740324 
L 116.808335 62.167051 
L 117.823393 62.167051 
L 118.33091 61.593781 
L 119.345969 61.593781 
L 119.85351 61.020512 
L 120.868568 61.020512 
L 121.376085 60.447242 
L 121.883626 60.447242 
L 122.391143 59.873972 
L 122.898685 59.873972 
L 123.406202 59.300703 
L 125.94386 59.300703 
L 126.451401 58.72743 
L 127.466459 58.72743 
L 128.481518 57.580891 
L 128.481518 57.007621 
L 128.989035 56.434351 
L 128.989035 55.861082 
L 129.496576 55.287812 
L 129.496576 53.568 
L 142.184817 53.568 
L 142.184817 55.287812 
L 148.275167 62.167051 
L 148.275167 64.460133 
L 148.782684 65.033402 
L 148.782684 66.179941 
L 149.290225 66.753214 
L 149.290225 68.473023 
L 149.797742 69.046293 
L 149.797742 70.192835 
L 150.305284 70.766105 
L 150.305284 71.339374 
L 152.3354 73.632456 
L 152.3354 75.352265 
L 152.842941 75.925535 
L 152.842941 77.072074 
L 153.350459 77.645347 
L 153.350459 79.938425 
L 153.858 80.511695 
L 153.858 81.084964 
L 154.365517 81.658234 
L 154.873058 81.658234 
L 156.395633 83.37805 
L 156.395633 83.951319 
L 156.903175 84.524589 
L 156.903175 85.097858 
L 158.42575 86.817667 
L 158.42575 88.537476 
L 158.933291 89.110746 
L 158.933291 90.257292 
L 159.440808 90.830561 
L 159.440808 91.9771 
L 159.94835 92.55037 
L 159.94835 94.843448 
L 157.410692 94.843448 
L 156.903175 95.416718 
L 155.888116 95.416718 
L 154.365517 97.136527 
L 154.365517 98.856342 
L 153.858 99.429612 
L 153.858 99.429612 
" clip-path="url(#p3707126543)" style="fill: none; stroke: #000000; stroke-width: 1.5; stroke-linecap: square"/>
   </g>
   <g id="line2d_2">
    <path d="M 148.176887 79.666517 
L 79.040968 186.043666 
L 221.456593 249.744233 
L 168.675968 256.293718 
L 213.234555 237.037556 
L 137.647415 209.803212 
L 129.702405 65.199712 
L 161.621188 148.63081 
L 150.680664 262.883332 
" clip-path="url(#p3707126543)" style="fill: none; stroke-dasharray: 5.55,2.4; stroke-dashoffset: 0; stroke: #000000; stroke-width: 1.5"/>
    <defs>
     <path id="mee56ff1982" d="M -3 3 
L 3 -3 
M -3 -3 
L 3 3 
" style="stroke: #000000"/>
    </defs>
    <g clip-path="url(#p3707126543)">
     <use xlink:href="#mee56ff1982" x="148.176887" y="79.666517" style="stroke: #000000"/>
     <use xlink:href="#mee56ff1982" x="79.040968" y="186.043666" style="stroke: #000000"/>
     <use xlink:href="#mee56ff1982" x="221.456593" y="249.744233" style="stroke: #000000"/>
     <use xlink:href="#mee56ff1982" x="168.675968" y="256.293718" style="stroke: #000000"/>
     <use xlink:href="#mee56ff1982" x="213.234555" y="237.037556" style="stroke: #000000"/>
     <use xlink:href="#mee56ff1982" x="137.647415" y="209.803212" style="stroke: #000000"/>
     <use xlink:href="#mee56ff1982" x="129.702405" y="65.199712" style="stroke: #000000"/>
     <use xlink:href="#mee56ff1982" x="161.621188" y="148.63081" style="stroke: #000000"/>
     <use xlink:href="#mee56ff1982" x="150.680664" y="262.883332" style="stroke: #000000"/>
    </g>
   </g>
   <g id="line2d_3">
    <path d="M 243.340659 53.733948 
L 73.832727 53.733948 
L 73.832727 295.488 
L 243.340659 295.488 
L 243.340659 53.733948 
" clip-path="url(#p3707126543)" style="fill: none; stroke: #000000; stroke-width: 1.5; stroke-linecap: square"/>
   </g>
   <g id="line2d_4">
    <path d="M 140.1547 69.619562 
L 140.1547 71.339374 
L 140.662217 71.912644 
L 140.662217 72.485914 
L 141.169759 73.059183 
L 141.169759 73.632456 
L 141.677276 74.205726 
L 141.677276 77.645347 
L 141.169759 78.218616 
L 141.169759 81.084964 
L 141.677276 81.658234 
L 141.677276 83.37805 
L 142.184817 83.951319 
L 142.184817 84.524589 
L 146.752567 89.684015 
L 146.752567 90.257292 
L 147.260109 90.830561 
L 147.260109 91.403831 
L 149.797742 94.270179 
L 149.797742 94.843448 
L 150.305284 95.416718 
L 150.305284 96.563257 
L 151.320342 97.709803 
L 151.320342 98.283073 
L 152.3354 99.429612 
L 152.3354 100.002881 
L 152.842941 100.576151 
L 152.842941 101.149421 
L 153.858 102.29596 
L 153.858 103.442499 
L 154.365517 104.015769 
L 154.365517 104.589038 
L 154.873058 105.162315 
L 154.873058 105.735584 
L 155.380575 106.308854 
L 155.380575 106.882123 
L 155.888116 107.455393 
L 157.918233 107.455393 
L 157.918233 133.252545 
L 156.395633 133.252545 
L 155.888116 133.825815 
L 155.888116 134.399091 
L 155.380575 134.972361 
L 155.380575 140.131787 
L 154.873058 140.705057 
L 154.873058 144.717944 
L 155.380575 145.291227 
L 155.380575 151.023923 
L 155.888116 151.597193 
L 155.888116 152.743732 
L 156.395633 153.317001 
L 157.918233 153.317001 
L 157.918233 184.846856 
L 156.395633 184.846856 
L 155.888116 185.420126 
L 155.888116 185.993396 
L 155.380575 186.566665 
L 155.380575 191.726105 
L 154.873058 192.299375 
L 153.858 192.299375 
L 152.842941 191.152836 
L 152.3354 191.152836 
L 150.812801 189.433027 
L 150.305284 189.433027 
L 149.290225 188.286474 
L 148.782684 188.286474 
L 147.767626 187.139935 
L 147.260109 187.139935 
L 145.229992 184.846856 
L 144.722451 184.846856 
L 142.692334 182.553778 
L 142.184817 182.553778 
L 141.169759 181.407239 
L 140.662217 181.407239 
L 140.1547 180.833969 
L 139.647159 180.833969 
L 138.632101 179.68743 
L 138.12456 179.68743 
L 137.109501 178.540891 
L 136.601984 178.540891 
L 135.079385 176.821082 
L 134.571868 176.821082 
L 134.064326 176.247813 
L 133.049268 176.247813 
L 132.541751 175.674543 
L 131.019151 175.674543 
L 130.511634 176.247813 
L 129.496576 176.247813 
L 128.481518 177.394352 
L 128.481518 179.68743 
L 130.004093 181.407239 
L 130.004093 181.980508 
L 131.526693 183.700317 
L 132.03421 183.700317 
L 132.03421 184.273587 
L 133.556809 185.993396 
L 134.064326 185.993396 
L 134.064326 186.566665 
L 135.586926 188.286474 
L 136.601984 188.286474 
L 137.109501 188.859744 
L 137.617042 188.859744 
L 138.632101 190.006296 
L 139.139642 190.006296 
L 139.647159 190.579566 
L 140.1547 190.579566 
L 142.184817 192.872644 
L 142.184817 195.165723 
L 136.094443 195.165723 
L 136.094443 193.445914 
L 135.586926 192.872644 
L 135.586926 192.299375 
L 135.079385 191.726105 
L 134.571868 191.726105 
L 134.064326 191.152836 
L 133.556809 191.152836 
L 133.049268 190.579566 
L 132.541751 190.579566 
L 132.03421 190.006296 
L 131.526693 190.006296 
L 131.019151 189.433027 
L 130.004093 189.433027 
L 129.496576 188.859744 
L 128.989035 188.859744 
L 127.973976 187.713204 
L 127.466459 187.713204 
L 126.451401 186.566665 
L 125.94386 186.566665 
L 125.94386 185.993396 
L 125.436318 185.420126 
L 125.436318 184.273587 
L 124.928801 183.700317 
L 124.928801 182.553778 
L 124.42126 181.980508 
L 124.42126 180.2607 
L 123.913743 179.68743 
L 123.913743 177.394352 
L 123.406202 176.821082 
L 123.406202 164.782407 
L 122.898685 164.209137 
L 122.898685 160.76952 
L 122.391143 160.19625 
L 122.391143 156.756619 
L 121.883626 156.183349 
L 121.883626 152.170462 
L 121.376085 151.597193 
L 121.376085 144.717944 
L 120.868568 144.144674 
L 120.868568 136.69217 
L 120.361027 136.1189 
L 120.361027 130.386197 
L 119.85351 129.812928 
L 119.85351 128.093119 
L 119.345969 127.519849 
L 117.823393 127.519849 
L 117.823393 98.856342 
L 119.345969 98.856342 
L 120.361027 97.709803 
L 120.361027 97.136527 
L 120.868568 96.563257 
L 120.868568 95.416718 
L 121.376085 94.843448 
L 121.376085 94.270179 
L 122.391143 93.12364 
L 122.391143 92.55037 
L 122.898685 91.9771 
L 122.898685 91.403831 
L 124.42126 89.684015 
L 124.42126 89.110746 
L 124.928801 89.110746 
L 126.451401 87.390937 
L 126.451401 86.817667 
L 126.958918 86.244398 
L 127.466459 86.244398 
L 127.973976 85.671128 
L 127.973976 77.645347 
L 127.466459 77.072074 
L 127.466459 73.632456 
L 127.973976 73.059183 
L 127.973976 71.912644 
L 128.481518 71.339374 
L 128.481518 69.619562 
L 128.481518 69.619562 
" clip-path="url(#p3707126543)" style="fill: none; stroke: #000000; stroke-width: 1.5; stroke-linecap: square"/>
   </g>
   <g id="line2d_5">
    <path d="M 137.81866 109.818854 
L 122.826518 139.765093 
L 148.246077 167.893792 
L 140.715895 166.740104 
L 154.058674 166.532176 
L 149.995488 157.515484 
L 140.486882 178.70444 
L 142.816848 126.141634 
L 139.138553 154.819273 
" clip-path="url(#p3707126543)" style="fill: none; stroke-dasharray: 5.55,2.4; stroke-dashoffset: 0; stroke: #000000; stroke-width: 1.5"/>
    <g clip-path="url(#p3707126543)">
     <use xlink:href="#mee56ff1982" x="137.81866" y="109.818854" style="stroke: #000000"/>
     <use xlink:href="#mee56ff1982" x="122.826518" y="139.765093" style="stroke: #000000"/>
     <use xlink:href="#mee56ff1982" x="148.246077" y="167.893792" style="stroke: #000000"/>
     <use xlink:href="#mee56ff1982" x="140.715895" y="166.740104" style="stroke: #000000"/>
     <use xlink:href="#mee56ff1982" x="154.058674" y="166.532176" style="stroke: #000000"/>
     <use xlink:href="#mee56ff1982" x="149.995488" y="157.515484" style="stroke: #000000"/>
     <use xlink:href="#mee56ff1982" x="140.486882" y="178.70444" style="stroke: #000000"/>
     <use xlink:href="#mee56ff1982" x="142.816848" y="126.141634" style="stroke: #000000"/>
     <use xlink:href="#mee56ff1982" x="139.138553" y="154.819273" style="stroke: #000000"/>
    </g>
   </g>
   <g id="line2d_6">
    <path d="M 156.970073 70.064366 
L 119.016031 70.064366 
L 119.016031 194.350782 
L 156.970073 194.350782 
L 156.970073 70.064366 
" clip-path="url(#p3707126543)" style="fill: none; stroke: #000000; stroke-width: 1.5; stroke-linecap: square"/>
   </g>
   <g id="line2d_7">
    <path d="M 276.172636 220.389612 
L 276.172636 220.962882 
L 275.665107 221.536151 
L 275.665107 222.109421 
L 275.665107 220.389612 
L 276.172636 220.389612 
L 276.172636 207.777667 
L 275.665107 207.777667 
L 275.157578 207.204398 
L 275.157578 206.631128 
L 274.650037 206.057859 
L 274.650037 195.165723 
L 275.157578 194.592453 
L 275.157578 191.726105 
L 274.650037 191.152836 
L 274.650037 189.433027 
L 274.142508 188.859744 
L 274.142508 187.139935 
L 273.634978 186.566665 
L 273.634978 185.993396 
L 274.142508 185.420126 
L 274.142508 180.833969 
L 272.61992 179.114161 
L 272.112391 179.114161 
L 271.604862 178.540891 
L 264.499453 178.540891 
L 263.991924 177.967621 
L 261.454266 177.967621 
L 260.946737 178.540891 
L 260.439208 178.540891 
L 259.42415 179.68743 
L 259.42415 180.2607 
L 258.916621 180.833969 
L 258.916621 182.553778 
L 258.409091 183.127048 
L 258.409091 184.273587 
L 257.901562 184.846856 
L 257.901562 185.420126 
L 257.394033 185.993396 
L 257.394033 186.566665 
L 256.886504 187.139935 
L 256.886504 188.859744 
L 256.378975 189.433027 
L 256.378975 190.579566 
L 255.871446 191.152836 
L 255.871446 192.299375 
L 255.363917 192.872644 
L 255.363917 193.445914 
L 254.856387 194.019184 
L 254.856387 194.592453 
L 254.348858 195.165723 
L 254.348858 196.312262 
L 253.841329 196.885532 
L 253.841329 198.60534 
L 253.3338 199.17861 
L 253.3338 199.75188 
L 252.826271 200.325149 
L 252.318742 200.325149 
L 250.796154 202.044958 
L 250.288625 202.044958 
L 249.781096 202.618227 
L 246.735909 202.618227 
L 246.22838 203.191497 
L 245.72085 203.191497 
L 244.705792 204.33805 
L 244.705792 205.484589 
L 244.198263 206.057859 
L 244.198263 207.204398 
L 243.690734 207.777667 
L 243.690734 208.924207 
L 243.183205 209.497476 
L 243.183205 210.644015 
L 242.675675 211.217285 
L 242.675675 212.363824 
L 242.168146 212.937094 
L 242.168146 215.230172 
L 241.660617 215.803442 
L 241.660617 216.949981 
L 241.153088 217.523251 
L 241.153088 218.09652 
L 240.645559 218.669803 
L 240.645559 219.816343 
L 240.13803 220.389612 
L 240.13803 221.536151 
L 239.6305 222.109421 
L 239.6305 222.682691 
L 239.122971 223.25596 
L 239.122971 223.82923 
L 238.107913 224.975769 
L 238.107913 225.549039 
L 237.600384 226.122308 
L 237.092855 226.122308 
L 236.077796 227.268847 
L 236.077796 229.561926 
L 233.540138 229.561926 
L 233.540138 215.803442 
L 235.062726 215.803442 
L 236.077796 214.656903 
L 236.077796 214.083633 
L 236.585325 213.510363 
L 236.585325 212.363824 
L 237.092855 211.790555 
L 237.092855 210.644015 
L 237.600384 210.070746 
L 237.600384 208.924207 
L 238.107913 208.350937 
L 238.107913 207.777667 
L 238.615442 207.204398 
L 238.615442 205.484589 
L 239.122971 204.91132 
L 239.122971 203.764767 
L 239.6305 203.191497 
L 239.6305 202.618227 
L 240.13803 202.044958 
L 240.13803 201.471688 
L 240.645559 200.898419 
L 240.645559 199.75188 
L 241.153088 199.17861 
L 241.153088 198.032071 
L 241.660617 197.458801 
L 241.660617 196.885532 
L 242.168146 196.312262 
L 242.168146 195.165723 
L 242.675675 194.592453 
L 242.675675 192.872644 
L 243.183205 192.299375 
L 243.183205 191.152836 
L 243.690734 190.579566 
L 243.690734 190.006296 
L 244.198263 189.433027 
L 244.198263 188.286474 
L 244.705792 187.713204 
L 244.705792 187.139935 
L 245.213321 186.566665 
L 245.213321 185.420126 
L 245.72085 184.846856 
L 245.72085 183.700317 
L 246.22838 183.127048 
L 246.22838 181.980508 
L 246.735909 181.407239 
L 246.735909 179.114161 
L 247.243438 178.540891 
L 247.243438 175.674543 
L 247.750967 175.101273 
L 247.750967 173.381451 
L 248.258496 172.808181 
L 248.258496 168.795294 
L 248.766025 168.222025 
L 248.766025 165.928946 
L 249.273567 165.355677 
L 249.273567 164.782407 
L 249.781096 164.209137 
L 249.781096 163.635868 
L 250.288625 163.062598 
L 250.288625 161.916059 
L 250.796154 161.342789 
L 250.796154 160.19625 
L 251.303683 159.622967 
L 251.303683 159.049697 
L 251.811212 158.476428 
L 251.811212 157.903158 
L 252.318742 157.329889 
L 252.318742 156.183349 
L 252.826271 155.61008 
L 252.826271 155.03681 
L 253.841329 153.890271 
L 253.841329 152.743732 
L 236.585325 141.851596 
L 237.092855 141.278326 
L 237.092855 138.985248 
L 239.122971 136.69217 
L 240.645559 138.411978 
L 240.645559 138.985248 
L 241.153088 139.558518 
L 241.153088 141.278326 
L 241.660617 141.851596 
L 241.660617 142.424866 
L 242.168146 142.998135 
L 242.168146 143.571405 
L 284.293103 130.959467 
L 284.293103 130.386197 
L 284.800632 130.386197 
L 286.323219 128.666388 
L 286.323219 126.94658 
L 289.875936 126.94658 
L 289.875936 134.972361 
L 287.845807 134.972361 
L 287.845807 134.399091 
L 287.338278 133.825815 
L 287.338278 133.252545 
L 286.830749 132.679276 
L 286.830749 132.106006 
L 286.323219 131.532736 
L 284.800632 131.532736 
L 284.293103 130.959467 
L 242.168146 143.571405 
L 242.675675 144.144674 
L 242.675675 144.717944 
L 243.690734 145.864497 
L 243.690734 146.437766 
L 244.198263 146.437766 
L 245.213321 147.584306 
L 245.213321 148.157575 
L 245.72085 148.730845 
L 245.72085 149.304114 
L 247.243438 149.304114 
L 246.735909 148.730845 
L 246.735909 147.011036 
L 247.243438 146.437766 
L 247.243438 143.571405 
L 246.735909 142.998135 
L 246.735909 141.851596 
L 247.243438 141.278326 
L 247.243438 140.705057 
L 246.735909 140.131787 
L 246.735909 136.69217 
L 247.243438 136.1189 
L 246.735909 135.54563 
L 246.735909 133.825815 
L 245.72085 132.679276 
L 245.72085 132.106006 
L 245.213321 131.532736 
L 245.213321 126.94658 
L 233.540138 126.94658 
L 233.540138 146.437766 
L 235.062726 146.437766 
L 236.077796 145.291227 
L 236.077796 142.998135 
L 236.585325 142.424866 
L 236.585325 141.851596 
L 253.841329 152.743732 
L 254.348858 152.170462 
L 254.348858 151.023923 
L 254.856387 150.450654 
L 254.856387 148.730845 
L 255.363917 148.157575 
L 255.363917 147.584306 
L 255.871446 147.011036 
L 255.871446 145.864497 
L 256.378975 145.291227 
L 256.378975 144.144674 
L 256.886504 143.571405 
L 256.886504 142.424866 
L 257.394033 141.851596 
L 257.394033 141.278326 
L 257.901562 140.705057 
L 257.901562 138.985248 
L 257.394033 138.411978 
L 257.901562 137.838709 
L 258.916621 137.838709 
L 259.42415 137.265439 
L 259.931679 137.838709 
L 261.454266 137.838709 
L 261.961796 138.411978 
L 262.976866 138.411978 
L 263.484395 138.985248 
L 264.499453 138.985248 
L 265.006983 139.558518 
L 267.037099 139.558518 
L 267.544628 140.131787 
L 269.067216 140.131787 
L 269.574745 140.705057 
L 269.067216 140.705057 
L 267.544628 142.424866 
L 267.544628 145.864497 
L 267.037099 146.437766 
L 267.037099 148.157575 
L 266.52957 148.730845 
L 266.52957 149.877384 
L 266.022041 150.450654 
L 266.022041 153.890271 
L 265.514512 154.463541 
L 265.514512 155.61008 
L 266.022041 156.183349 
L 266.022041 159.049697 
L 266.52957 159.622967 
L 266.52957 160.19625 
L 268.052158 161.916059 
L 269.574745 161.916059 
L 270.082274 162.489329 
L 270.589803 162.489329 
L 271.097333 161.916059 
L 271.604862 161.916059 
L 272.112391 162.489329 
L 273.634978 162.489329 
L 274.142508 163.062598 
L 274.650037 163.062598 
L 275.157578 162.489329 
L 275.665107 162.489329 
L 276.172636 163.062598 
L 278.202753 163.062598 
L 279.217811 164.209137 
L 281.247928 164.209137 
L 281.755457 164.782407 
L 289.875936 164.782407 
L 289.875936 168.795294 
L 287.845807 168.795294 
L 287.338278 169.368564 
L 287.338278 169.941833 
L 286.830749 170.515103 
L 286.323219 170.515103 
L 282.770515 174.528004 
L 282.770515 175.101273 
L 281.247928 176.821082 
L 280.740399 176.821082 
L 280.23287 177.394352 
L 279.72534 177.394352 
L 277.695224 179.68743 
L 277.695224 180.2607 
L 277.187695 180.833969 
L 277.187695 183.700317 
L 276.680165 184.273587 
L 276.680165 185.993396 
L 277.187695 186.566665 
L 277.187695 193.445914 
L 276.680165 194.019184 
L 276.680165 196.312262 
L 277.187695 196.885532 
L 277.187695 207.204398 
L 276.680165 207.204398 
L 276.172636 207.777667 
L 276.172636 207.777667 
" clip-path="url(#p3707126543)" style="fill: none; stroke: #000000; stroke-width: 1.5; stroke-linecap: square"/>
   </g>
   <g id="line2d_8">
    <path d="M 254.146998 154.725321 
L 244.651001 197.837701 
L 236.354909 224.254012 
L 236.190802 220.14124 
L 276.954967 191.759127 
L 238.901993 132.83159 
L 276.692593 200.929718 
L 251.100722 193.412045 
L 276.236152 189.839262 
" clip-path="url(#p3707126543)" style="fill: none; stroke-dasharray: 5.55,2.4; stroke-dashoffset: 0; stroke: #000000; stroke-width: 1.5"/>
    <g clip-path="url(#p3707126543)">
     <use xlink:href="#mee56ff1982" x="254.146998" y="154.725321" style="stroke: #000000"/>
     <use xlink:href="#mee56ff1982" x="244.651001" y="197.837701" style="stroke: #000000"/>
     <use xlink:href="#mee56ff1982" x="236.354909" y="224.254012" style="stroke: #000000"/>
     <use xlink:href="#mee56ff1982" x="236.190802" y="220.14124" style="stroke: #000000"/>
     <use xlink:href="#mee56ff1982" x="276.954967" y="191.759127" style="stroke: #000000"/>
     <use xlink:href="#mee56ff1982" x="238.901993" y="132.83159" style="stroke: #000000"/>
     <use xlink:href="#mee56ff1982" x="276.692593" y="200.929718" style="stroke: #000000"/>
     <use xlink:href="#mee56ff1982" x="251.100722" y="193.412045" style="stroke: #000000"/>
     <use xlink:href="#mee56ff1982" x="276.236152" y="189.839262" style="stroke: #000000"/>
    </g>
   </g>
   <g id="line2d_9">
    <path d="M 288.96994 128.572932 
L 233.576939 128.572932 
L 233.576939 227.864919 
L 288.96994 227.864919 
L 288.96994 128.572932 
" clip-path="url(#p3707126543)" style="fill: none; stroke: #000000; stroke-width: 1.5; stroke-linecap: square"/>
   </g>
   <g id="line2d_10">
    <path d="M 140.1547 69.619562 
L 140.1547 71.339374 
L 140.662217 71.912644 
L 140.662217 73.059183 
L 141.169759 73.632456 
L 141.169759 81.658234 
L 141.677276 82.231504 
L 141.677276 83.37805 
L 142.184817 83.951319 
L 142.184817 84.524589 
L 146.24505 89.110746 
L 146.24505 89.684015 
L 146.752567 90.257292 
L 146.752567 90.830561 
L 148.275167 92.55037 
L 148.275167 93.12364 
L 149.797742 94.843448 
L 149.797742 95.416718 
L 150.305284 95.989987 
L 150.305284 96.563257 
L 150.812801 97.136527 
L 150.812801 97.709803 
L 151.320342 98.283073 
L 151.320342 98.856342 
L 152.3354 100.002881 
L 152.3354 100.576151 
L 152.842941 101.149421 
L 152.842941 101.72269 
L 153.350459 102.29596 
L 153.350459 102.869229 
L 153.858 103.442499 
L 153.858 104.015769 
L 154.365517 104.589038 
L 154.365517 105.162315 
L 154.873058 105.735584 
L 154.873058 106.308854 
L 155.380575 106.882123 
L 155.380575 107.455393 
L 156.395633 108.601932 
L 157.918233 108.601932 
L 157.918233 133.252545 
L 156.395633 133.252545 
L 155.888116 133.825815 
L 155.888116 134.399091 
L 155.380575 134.972361 
L 155.380575 140.705057 
L 154.873058 141.278326 
L 154.873058 145.291227 
L 155.380575 145.864497 
L 155.380575 151.023923 
L 155.888116 151.597193 
L 155.888116 152.170462 
L 156.395633 152.743732 
L 157.918233 152.743732 
L 157.918233 184.846856 
L 156.395633 184.846856 
L 155.888116 185.420126 
L 155.888116 185.993396 
L 155.380575 186.566665 
L 155.380575 191.726105 
L 153.350459 191.726105 
L 152.3354 190.579566 
L 151.827883 190.579566 
L 150.305284 188.859744 
L 149.797742 188.859744 
L 148.782684 187.713204 
L 148.275167 187.713204 
L 147.260109 186.566665 
L 146.752567 186.566665 
L 145.229992 184.846856 
L 144.722451 184.846856 
L 142.692334 182.553778 
L 142.184817 182.553778 
L 141.169759 181.407239 
L 140.662217 181.407239 
L 139.647159 180.2607 
L 139.139642 180.2607 
L 138.632101 179.68743 
L 138.12456 179.68743 
L 136.601984 177.967621 
L 136.094443 177.967621 
L 135.079385 176.821082 
L 134.571868 176.821082 
L 134.064326 176.247813 
L 129.496576 176.247813 
L 128.481518 177.394352 
L 128.989035 177.967621 
L 128.989035 179.68743 
L 131.019151 181.980508 
L 131.019151 182.553778 
L 131.526693 183.127048 
L 132.03421 183.127048 
L 132.03421 183.700317 
L 136.094443 188.286474 
L 137.109501 188.286474 
L 137.617042 188.859744 
L 138.12456 188.859744 
L 138.12456 189.433027 
L 138.632101 190.006296 
L 139.139642 190.006296 
L 139.647159 190.579566 
L 140.1547 190.579566 
L 140.1547 191.152836 
L 141.169759 192.299375 
L 141.677276 192.299375 
L 142.184817 192.872644 
L 142.184817 193.445914 
L 143.199875 194.592453 
L 143.707392 194.592453 
L 144.214934 195.165723 
L 144.214934 197.458801 
L 143.707392 197.458801 
L 143.199875 196.885532 
L 142.692334 196.885532 
L 142.184817 196.312262 
L 141.677276 196.312262 
L 141.169759 195.738992 
L 140.662217 195.738992 
L 139.139642 194.019184 
L 138.12456 194.019184 
L 137.617042 193.445914 
L 137.109501 193.445914 
L 136.601984 192.872644 
L 136.094443 192.872644 
L 134.571868 191.152836 
L 133.556809 191.152836 
L 133.049268 190.579566 
L 132.541751 190.579566 
L 131.526693 189.433027 
L 131.019151 189.433027 
L 130.511634 188.859744 
L 129.496576 188.859744 
L 128.989035 188.286474 
L 128.481518 188.286474 
L 127.973976 187.713204 
L 127.466459 187.713204 
L 125.436318 185.420126 
L 125.436318 184.846856 
L 124.928801 184.273587 
L 124.928801 182.553778 
L 124.42126 181.980508 
L 124.42126 180.833969 
L 123.913743 180.2607 
L 123.913743 177.967621 
L 123.406202 177.394352 
L 123.406202 166.502216 
L 122.898685 165.928946 
L 122.898685 161.916059 
L 122.391143 161.342789 
L 122.391143 157.903158 
L 121.883626 157.329889 
L 121.883626 154.463541 
L 121.376085 153.890271 
L 121.376085 146.437766 
L 120.868568 145.864497 
L 120.868568 137.838709 
L 120.361027 137.265439 
L 120.361027 131.532736 
L 119.85351 130.959467 
L 119.85351 128.666388 
L 119.345969 128.093119 
L 117.823393 128.093119 
L 117.823393 98.283073 
L 119.345969 98.283073 
L 120.361027 97.136527 
L 120.361027 96.563257 
L 120.868568 95.989987 
L 120.868568 94.843448 
L 122.391143 93.12364 
L 122.391143 92.55037 
L 122.898685 91.9771 
L 122.898685 91.403831 
L 123.406202 90.830561 
L 123.406202 90.257292 
L 124.928801 88.537476 
L 125.436318 88.537476 
L 125.94386 87.964206 
L 125.94386 87.390937 
L 127.466459 85.671128 
L 127.466459 85.097858 
L 127.973976 84.524589 
L 127.973976 78.218616 
L 127.466459 77.645347 
L 127.466459 73.059183 
L 127.973976 72.485914 
L 127.973976 71.912644 
L 128.481518 71.339374 
L 128.481518 69.619562 
L 128.481518 69.619562 
" clip-path="url(#p3707126543)" style="fill: none; stroke: #000000; stroke-width: 1.5; stroke-linecap: square"/>
   </g>
   <g id="line2d_11">
    <path d="M 142.0604 134.052352 
L 144.550818 175.150573 
L 145.116587 128.786836 
L 148.76826 99.881996 
L 149.309489 115.465689 
L 135.572768 167.938007 
L 143.108081 154.200544 
L 148.161447 152.331661 
L 125.590043 144.304096 
" clip-path="url(#p3707126543)" style="fill: none; stroke-dasharray: 5.55,2.4; stroke-dashoffset: 0; stroke: #000000; stroke-width: 1.5"/>
    <g clip-path="url(#p3707126543)">
     <use xlink:href="#mee56ff1982" x="142.0604" y="134.052352" style="stroke: #000000"/>
     <use xlink:href="#mee56ff1982" x="144.550818" y="175.150573" style="stroke: #000000"/>
     <use xlink:href="#mee56ff1982" x="145.116587" y="128.786836" style="stroke: #000000"/>
     <use xlink:href="#mee56ff1982" x="148.76826" y="99.881996" style="stroke: #000000"/>
     <use xlink:href="#mee56ff1982" x="149.309489" y="115.465689" style="stroke: #000000"/>
     <use xlink:href="#mee56ff1982" x="135.572768" y="167.938007" style="stroke: #000000"/>
     <use xlink:href="#mee56ff1982" x="143.108081" y="154.200544" style="stroke: #000000"/>
     <use xlink:href="#mee56ff1982" x="148.161447" y="152.331661" style="stroke: #000000"/>
     <use xlink:href="#mee56ff1982" x="125.590043" y="144.304096" style="stroke: #000000"/>
    </g>
   </g>
   <g id="line2d_12">
    <path d="M 157.337338 70.056008 
L 119.314651 70.056008 
L 119.314651 205.346309 
L 157.337338 205.346309 
L 157.337338 70.056008 
" clip-path="url(#p3707126543)" style="fill: none; stroke: #000000; stroke-width: 1.5; stroke-linecap: square"/>
   </g>
   <g id="line2d_13">
    <path d="M 171.113991 122.360416 
L 168.576358 122.360416 
L 168.576358 121.787147 
L 170.606474 121.787147 
L 171.113991 122.360416 
L 173.144108 121.787147 
L 173.651649 121.787147 
L 174.159166 121.213877 
L 174.666707 121.213877 
L 175.174225 120.640607 
L 175.174225 120.067338 
L 181.772116 112.614826 
L 181.772116 112.04155 
L 182.787174 110.895011 
L 182.787174 110.321741 
L 183.294715 109.748471 
L 183.294715 108.601932 
L 183.802232 108.028663 
L 183.802232 107.455393 
L 184.309774 106.882123 
L 184.309774 106.308854 
L 184.817291 105.735584 
L 184.817291 105.162315 
L 185.832349 104.015769 
L 185.832349 103.442499 
L 186.847407 102.29596 
L 186.847407 101.72269 
L 187.354949 101.149421 
L 187.354949 99.429612 
L 192.43024 99.429612 
L 192.43024 108.601932 
L 190.907665 108.601932 
L 189.892582 109.748471 
L 189.892582 110.321741 
L 189.385065 110.895011 
L 189.385065 111.46828 
L 188.877524 112.04155 
L 188.877524 113.188096 
L 188.370007 113.761365 
L 188.370007 114.907905 
L 187.862466 115.481174 
L 187.862466 116.054444 
L 187.354949 116.627713 
L 187.354949 117.774253 
L 185.324832 120.067338 
L 185.324832 120.640607 
L 184.817291 121.213877 
L 184.309774 121.213877 
L 182.279657 123.506955 
L 181.772116 123.506955 
L 181.264599 124.080225 
L 181.264599 126.373303 
L 174.159166 126.373303 
L 174.159166 124.653494 
L 173.144108 123.506955 
L 173.144108 121.787147 
" clip-path="url(#p3707126543)" style="fill: none; stroke: #000000; stroke-width: 1.5; stroke-linecap: square"/>
   </g>
   <g id="line2d_14">
    <path d="M 187.471621 106.795715 
L 174.678179 124.565446 
L 182.886446 117.878005 
L 188.717725 104.639678 
L 180.114669 117.801862 
L 182.002073 117.26611 
L 184.627072 117.337798 
L 188.228286 113.725371 
L 186.061677 114.431055 
" clip-path="url(#p3707126543)" style="fill: none; stroke-dasharray: 5.55,2.4; stroke-dashoffset: 0; stroke: #000000; stroke-width: 1.5"/>
    <g clip-path="url(#p3707126543)">
     <use xlink:href="#mee56ff1982" x="187.471621" y="106.795715" style="stroke: #000000"/>
     <use xlink:href="#mee56ff1982" x="174.678179" y="124.565446" style="stroke: #000000"/>
     <use xlink:href="#mee56ff1982" x="182.886446" y="117.878005" style="stroke: #000000"/>
     <use xlink:href="#mee56ff1982" x="188.717725" y="104.639678" style="stroke: #000000"/>
     <use xlink:href="#mee56ff1982" x="180.114669" y="117.801862" style="stroke: #000000"/>
     <use xlink:href="#mee56ff1982" x="182.002073" y="117.26611" style="stroke: #000000"/>
     <use xlink:href="#mee56ff1982" x="184.627072" y="117.337798" style="stroke: #000000"/>
     <use xlink:href="#mee56ff1982" x="188.228286" y="113.725371" style="stroke: #000000"/>
     <use xlink:href="#mee56ff1982" x="186.061677" y="114.431055" style="stroke: #000000"/>
    </g>
   </g>
   <g id="line2d_15">
    <path d="M 192.367632 99.941056 
L 168.199507 99.941056 
L 168.199507 126.055244 
L 192.367632 126.055244 
L 192.367632 99.941056 
" clip-path="url(#p3707126543)" style="fill: none; stroke: #000000; stroke-width: 1.5; stroke-linecap: square"/>
   </g>
   <g id="line2d_16">
    <path d="M 293.936169 99.429612 
L 293.936169 101.149421 
L 294.443698 101.72269 
L 294.443698 102.29596 
L 294.951227 102.869229 
L 294.951227 104.015769 
L 295.458756 104.589038 
L 295.458756 106.882123 
L 294.951227 107.455393 
L 294.951227 109.175202 
L 295.458756 109.748471 
L 295.458756 111.46828 
L 295.966286 112.04155 
L 295.966286 112.614826 
L 296.473815 113.188096 
L 297.996408 113.188096 
L 297.996408 126.94658 
L 296.473815 126.94658 
L 295.966286 127.519849 
L 295.966286 128.666388 
L 295.458756 129.239658 
L 295.458756 133.252545 
L 289.875936 133.252545 
L 289.875936 130.959467 
L 289.368407 130.386197 
L 289.368407 129.239658 
L 287.845807 127.519849 
L 286.323219 127.519849 
L 286.323219 116.627713 
L 287.845807 116.627713 
L 288.860877 115.481174 
L 288.860877 114.907905 
L 289.368407 114.334635 
L 289.368407 113.761365 
L 289.875936 113.188096 
L 289.875936 111.46828 
L 290.383465 110.895011 
L 290.383465 107.455393 
L 290.890994 106.882123 
L 290.890994 104.015769 
L 290.383465 103.442499 
L 290.383465 99.429612 
" clip-path="url(#p3707126543)" style="fill: none; stroke: #000000; stroke-width: 1.5; stroke-linecap: square"/>
   </g>
   <g id="line2d_17">
    <path d="M 292.748474 125.999461 
L 290.049384 122.741783 
L 297.387883 122.619052 
L 293.651578 115.201981 
L 291.372604 132.964263 
L 294.451697 118.175253 
L 293.675816 123.722114 
L 290.543868 103.290547 
L 289.383907 128.03799 
" clip-path="url(#p3707126543)" style="fill: none; stroke-dasharray: 5.55,2.4; stroke-dashoffset: 0; stroke: #000000; stroke-width: 1.5"/>
    <g clip-path="url(#p3707126543)">
     <use xlink:href="#mee56ff1982" x="292.748474" y="125.999461" style="stroke: #000000"/>
     <use xlink:href="#mee56ff1982" x="290.049384" y="122.741783" style="stroke: #000000"/>
     <use xlink:href="#mee56ff1982" x="297.387883" y="122.619052" style="stroke: #000000"/>
     <use xlink:href="#mee56ff1982" x="293.651578" y="115.201981" style="stroke: #000000"/>
     <use xlink:href="#mee56ff1982" x="291.372604" y="132.964263" style="stroke: #000000"/>
     <use xlink:href="#mee56ff1982" x="294.451697" y="118.175253" style="stroke: #000000"/>
     <use xlink:href="#mee56ff1982" x="293.675816" y="123.722114" style="stroke: #000000"/>
     <use xlink:href="#mee56ff1982" x="290.543868" y="103.290547" style="stroke: #000000"/>
     <use xlink:href="#mee56ff1982" x="289.383907" y="128.03799" style="stroke: #000000"/>
    </g>
   </g>
   <g id="line2d_18">
    <path d="M 296.882109 101.202642 
L 286.196525 101.202642 
L 286.196525 133.18223 
L 296.882109 133.18223 
L 296.882109 101.202642 
" clip-path="url(#p3707126543)" style="fill: none; stroke: #000000; stroke-width: 1.5; stroke-linecap: square"/>
   </g>
   <g id="line2d_19">
    <path d="M 266.52957 243.893679 
L 266.52957 245.613488 
L 267.544628 246.760027 
L 270.082274 246.760027 
L 270.589803 247.333297 
L 271.604862 247.333297 
L 272.112391 247.90658 
L 273.634978 247.90658 
L 274.142508 248.47985 
L 274.650037 248.47985 
L 275.157578 249.053119 
L 277.187695 249.053119 
L 277.695224 249.626389 
L 279.217811 249.626389 
L 279.72534 250.199645 
L 281.247928 250.199645 
L 281.755457 250.772928 
L 283.785574 250.772928 
L 284.293103 251.346184 
L 286.323219 251.346184 
L 286.830749 251.919467 
L 288.353348 251.919467 
L 288.860877 252.492723 
L 290.383465 252.492723 
L 290.890994 253.066006 
L 292.921111 253.066006 
L 293.42864 253.639262 
L 295.966286 253.639262 
L 296.473815 254.212546 
L 297.996408 254.212546 
L 298.503937 254.785801 
L 299.518996 254.785801 
L 300.026525 255.359085 
L 301.041583 255.359085 
L 301.549112 255.932368 
L 303.579229 255.932368 
L 304.086758 256.505624 
L 305.101823 256.505624 
L 305.609352 257.078907 
L 307.131939 257.078907 
L 307.639468 257.652163 
L 312.207237 257.652163 
L 312.714766 258.225446 
L 314.237354 258.225446 
L 314.744883 258.798702 
L 318.297593 258.798702 
L 318.805122 259.371986 
L 320.327709 259.371986 
L 320.835239 259.945241 
L 323.372884 259.945241 
L 323.88042 260.518525 
L 326.418065 260.518525 
L 326.925595 261.091781 
L 327.940653 261.091781 
L 328.448182 261.665064 
L 329.97077 261.665064 
L 330.478305 262.23832 
L 333.52348 262.23832 
L 334.031009 262.811603 
L 340.121365 262.811603 
L 340.628894 263.384859 
L 342.151482 263.384859 
L 342.659011 263.958142 
L 347.734308 263.958142 
L 348.241841 264.531398 
L 352.302077 264.531398 
L 352.809606 265.104681 
L 356.362313 265.104681 
L 356.869842 265.677937 
L 360.422549 265.677937 
L 360.930079 266.251221 
L 365.497847 266.251221 
L 366.005376 266.824477 
L 369.050554 266.824477 
L 369.558083 267.39776 
L 373.618321 267.39776 
L 374.12585 267.971016 
L 377.678558 267.971016 
L 378.186088 268.544299 
L 384.276443 268.544299 
L 384.783973 269.117555 
L 389.35174 269.117555 
L 389.859269 269.690838 
L 392.396917 269.690838 
L 392.904447 270.264121 
L 394.427036 270.264121 
L 394.934565 270.837377 
L 396.457154 270.837377 
L 396.964684 271.410661 
L 398.487273 271.410661 
L 398.487273 294.914728 
L 249.781096 294.914728 
L 249.781096 290.901827 
L 251.303683 290.901827 
L 251.811212 290.328571 
L 251.811212 289.755288 
L 252.318742 289.182032 
L 252.318742 287.462209 
L 252.826271 286.888953 
L 252.826271 284.595875 
L 253.3338 284.022592 
L 253.3338 282.302769 
L 253.841329 281.729513 
L 253.841329 280.582974 
L 254.348858 280.009691 
L 254.348858 278.863152 
L 254.856387 278.289896 
L 254.856387 275.996817 
L 255.363917 275.423534 
L 255.363917 273.130456 
L 255.871446 272.5572 
L 255.871446 271.410661 
L 256.378975 270.837377 
L 256.378975 267.971016 
L 256.886504 267.39776 
L 256.886504 263.958142 
L 257.394033 263.384859 
L 257.394033 261.665064 
L 257.901562 261.091781 
L 257.901562 258.798702 
L 258.409091 258.225446 
L 258.409091 256.505624 
L 258.916621 255.932368 
L 258.916621 254.785801 
L 259.42415 254.212546 
L 259.42415 252.492723 
L 259.931679 251.919467 
L 259.931679 250.772928 
L 260.439208 250.199645 
L 260.439208 249.053119 
L 260.946737 248.47985 
L 260.946737 247.333297 
L 261.961796 246.186758 
L 261.961796 243.893679 
L 261.961796 243.893679 
" clip-path="url(#p3707126543)" style="fill: none; stroke: #000000; stroke-width: 1.5; stroke-linecap: square"/>
   </g>
   <g id="line2d_20">
    <path d="M 346.6899 269.346764 
L 319.687759 261.074095 
L 313.177608 265.338538 
L 265.003292 264.290899 
L 287.282095 269.611811 
L 317.408046 278.362527 
L 267.924655 264.344723 
L 335.383845 263.337186 
L 348.367416 272.118435 
" clip-path="url(#p3707126543)" style="fill: none; stroke-dasharray: 5.55,2.4; stroke-dashoffset: 0; stroke: #000000; stroke-width: 1.5"/>
    <g clip-path="url(#p3707126543)">
     <use xlink:href="#mee56ff1982" x="346.6899" y="269.346764" style="stroke: #000000"/>
     <use xlink:href="#mee56ff1982" x="319.687759" y="261.074095" style="stroke: #000000"/>
     <use xlink:href="#mee56ff1982" x="313.177608" y="265.338538" style="stroke: #000000"/>
     <use xlink:href="#mee56ff1982" x="265.003292" y="264.290899" style="stroke: #000000"/>
     <use xlink:href="#mee56ff1982" x="287.282095" y="269.611811" style="stroke: #000000"/>
     <use xlink:href="#mee56ff1982" x="317.408046" y="278.362527" style="stroke: #000000"/>
     <use xlink:href="#mee56ff1982" x="267.924655" y="264.344723" style="stroke: #000000"/>
     <use xlink:href="#mee56ff1982" x="335.383845" y="263.337186" style="stroke: #000000"/>
     <use xlink:href="#mee56ff1982" x="348.367416" y="272.118435" style="stroke: #000000"/>
    </g>
   </g>
   <g id="line2d_21">
    <path d="M 397.761145 245.234 
L 250.723753 245.234 
L 250.723753 295.397272 
L 397.761145 295.397272 
L 397.761145 245.234 
" clip-path="url(#p3707126543)" style="fill: none; stroke: #000000; stroke-width: 1.5; stroke-linecap: square"/>
   </g>
   <g id="text_1">
    <!-- DS9 ▶︎ |"(・へ・)i"!!!!.!"|"( ^^)"|• Plotted shadows -->
    <g transform="translate(57.6 49.114188) scale(0.1 -0.1)">
     <defs>
      <path id="DejaVuSans-Bold-44" d="M 1791 3756 
L 1791 909 
L 2222 909 
Q 2959 909 3348 1275 
Q 3738 1641 3738 2338 
Q 3738 3031 3350 3393 
Q 2963 3756 2222 3756 
L 1791 3756 
z
M 588 4666 
L 1856 4666 
Q 2919 4666 3439 4514 
Q 3959 4363 4331 4000 
Q 4659 3684 4818 3271 
Q 4978 2859 4978 2338 
Q 4978 1809 4818 1395 
Q 4659 981 4331 666 
Q 3956 303 3431 151 
Q 2906 0 1856 0 
L 588 0 
L 588 4666 
z
" transform="scale(0.015625)"/>
      <path id="DejaVuSans-Bold-53" d="M 3834 4519 
L 3834 3531 
Q 3450 3703 3084 3790 
Q 2719 3878 2394 3878 
Q 1963 3878 1756 3759 
Q 1550 3641 1550 3391 
Q 1550 3203 1689 3098 
Q 1828 2994 2194 2919 
L 2706 2816 
Q 3484 2659 3812 2340 
Q 4141 2022 4141 1434 
Q 4141 663 3683 286 
Q 3225 -91 2284 -91 
Q 1841 -91 1394 -6 
Q 947 78 500 244 
L 500 1259 
Q 947 1022 1364 901 
Q 1781 781 2169 781 
Q 2563 781 2772 912 
Q 2981 1044 2981 1288 
Q 2981 1506 2839 1625 
Q 2697 1744 2272 1838 
L 1806 1941 
Q 1106 2091 782 2419 
Q 459 2747 459 3303 
Q 459 4000 909 4375 
Q 1359 4750 2203 4750 
Q 2588 4750 2994 4692 
Q 3400 4634 3834 4519 
z
" transform="scale(0.015625)"/>
      <path id="DejaVuSans-Bold-39" d="M 641 103 
L 641 966 
Q 928 831 1190 764 
Q 1453 697 1709 697 
Q 2247 697 2547 995 
Q 2847 1294 2900 1881 
Q 2688 1725 2447 1647 
Q 2206 1569 1925 1569 
Q 1209 1569 770 1986 
Q 331 2403 331 3084 
Q 331 3838 820 4291 
Q 1309 4744 2131 4744 
Q 3044 4744 3544 4128 
Q 4044 3513 4044 2388 
Q 4044 1231 3459 570 
Q 2875 -91 1856 -91 
Q 1528 -91 1228 -42 
Q 928 6 641 103 
z
M 2125 2350 
Q 2441 2350 2600 2554 
Q 2759 2759 2759 3169 
Q 2759 3575 2600 3781 
Q 2441 3988 2125 3988 
Q 1809 3988 1650 3781 
Q 1491 3575 1491 3169 
Q 1491 2759 1650 2554 
Q 1809 2350 2125 2350 
z
" transform="scale(0.015625)"/>
      <path id="DejaVuSans-Bold-20" transform="scale(0.015625)"/>
      <path id="DejaVuSans-Bold-25b6" d="M 19 -788 
L 19 4113 
L 4903 1663 
L 19 -788 
z
" transform="scale(0.015625)"/>
      <path id="DejaVuSans-Bold-fe0e" transform="scale(0.015625)"/>
      <path id="DejaVuSans-Bold-7c" d="M 1522 4891 
L 1522 -1509 
L 813 -1509 
L 813 4891 
L 1522 4891 
z
" transform="scale(0.015625)"/>
      <path id="DejaVuSans-Bold-22" d="M 2725 4666 
L 2725 2931 
L 1984 2931 
L 1984 4666 
L 2725 4666 
z
M 1350 4666 
L 1350 2931 
L 609 2931 
L 609 4666 
L 1350 4666 
z
" transform="scale(0.015625)"/>
      <path id="DejaVuSans-Bold-28" d="M 2413 -844 
L 1484 -844 
Q 1006 -72 778 623 
Q 550 1319 550 2003 
Q 550 2688 779 3389 
Q 1009 4091 1484 4856 
L 2413 4856 
Q 2013 4116 1813 3408 
Q 1613 2700 1613 2009 
Q 1613 1319 1811 609 
Q 2009 -100 2413 -844 
z
" transform="scale(0.015625)"/>
      <path id="DejaVuSans-Bold-30fb" d="M 319 -1131 
L 319 4513 
L 3519 4513 
L 3519 -1131 
L 319 -1131 
z
M 678 -775 
L 3163 -775 
L 3163 4153 
L 678 4153 
L 678 -775 
z
" transform="scale(0.015625)"/>
      <path id="DejaVuSans-Bold-3078" d="M 319 -1131 
L 319 4513 
L 3519 4513 
L 3519 -1131 
L 319 -1131 
z
M 678 -775 
L 3163 -775 
L 3163 4153 
L 678 4153 
L 678 -775 
z
" transform="scale(0.015625)"/>
      <path id="DejaVuSans-Bold-29" d="M 513 -844 
Q 913 -100 1113 609 
Q 1313 1319 1313 2009 
Q 1313 2700 1113 3408 
Q 913 4116 513 4856 
L 1441 4856 
Q 1916 4091 2145 3389 
Q 2375 2688 2375 2003 
Q 2375 1319 2147 623 
Q 1919 -72 1441 -844 
L 513 -844 
z
" transform="scale(0.015625)"/>
      <path id="DejaVuSans-Bold-69" d="M 538 3500 
L 1656 3500 
L 1656 0 
L 538 0 
L 538 3500 
z
M 538 4863 
L 1656 4863 
L 1656 3950 
L 538 3950 
L 538 4863 
z
" transform="scale(0.015625)"/>
      <path id="DejaVuSans-Bold-21" d="M 897 4666 
L 2022 4666 
L 2022 2875 
L 1863 1569 
L 1056 1569 
L 897 2875 
L 897 4666 
z
M 897 1113 
L 2022 1113 
L 2022 0 
L 897 0 
L 897 1113 
z
" transform="scale(0.015625)"/>
      <path id="DejaVuSans-Bold-2e" d="M 653 1209 
L 1778 1209 
L 1778 0 
L 653 0 
L 653 1209 
z
" transform="scale(0.015625)"/>
      <path id="DejaVuSans-Bold-5e" d="M 3066 4666 
L 4716 2925 
L 3963 2925 
L 2681 3866 
L 1403 2925 
L 647 2925 
L 2297 4666 
L 3066 4666 
z
" transform="scale(0.015625)"/>
      <path id="DejaVuSans-Bold-2022" d="M 922 2381 
Q 922 2613 1005 2816 
Q 1088 3019 1247 3175 
Q 1413 3334 1616 3417 
Q 1819 3500 2047 3500 
Q 2275 3500 2479 3415 
Q 2684 3331 2841 3175 
Q 3003 3013 3086 2811 
Q 3169 2609 3169 2381 
Q 3169 2150 3084 1945 
Q 3000 1741 2841 1581 
Q 2681 1422 2476 1337 
Q 2272 1253 2041 1253 
Q 1813 1253 1609 1337 
Q 1406 1422 1247 1581 
Q 1091 1741 1006 1945 
Q 922 2150 922 2381 
z
" transform="scale(0.015625)"/>
      <path id="DejaVuSans-Bold-50" d="M 588 4666 
L 2584 4666 
Q 3475 4666 3951 4270 
Q 4428 3875 4428 3144 
Q 4428 2409 3951 2014 
Q 3475 1619 2584 1619 
L 1791 1619 
L 1791 0 
L 588 0 
L 588 4666 
z
M 1791 3794 
L 1791 2491 
L 2456 2491 
Q 2806 2491 2997 2661 
Q 3188 2831 3188 3144 
Q 3188 3456 2997 3625 
Q 2806 3794 2456 3794 
L 1791 3794 
z
" transform="scale(0.015625)"/>
      <path id="DejaVuSans-Bold-6c" d="M 538 4863 
L 1656 4863 
L 1656 0 
L 538 0 
L 538 4863 
z
" transform="scale(0.015625)"/>
      <path id="DejaVuSans-Bold-6f" d="M 2203 2784 
Q 1831 2784 1636 2517 
Q 1441 2250 1441 1747 
Q 1441 1244 1636 976 
Q 1831 709 2203 709 
Q 2569 709 2762 976 
Q 2956 1244 2956 1747 
Q 2956 2250 2762 2517 
Q 2569 2784 2203 2784 
z
M 2203 3584 
Q 3106 3584 3614 3096 
Q 4122 2609 4122 1747 
Q 4122 884 3614 396 
Q 3106 -91 2203 -91 
Q 1297 -91 786 396 
Q 275 884 275 1747 
Q 275 2609 786 3096 
Q 1297 3584 2203 3584 
z
" transform="scale(0.015625)"/>
      <path id="DejaVuSans-Bold-74" d="M 1759 4494 
L 1759 3500 
L 2913 3500 
L 2913 2700 
L 1759 2700 
L 1759 1216 
Q 1759 972 1856 886 
Q 1953 800 2241 800 
L 2816 800 
L 2816 0 
L 1856 0 
Q 1194 0 917 276 
Q 641 553 641 1216 
L 641 2700 
L 84 2700 
L 84 3500 
L 641 3500 
L 641 4494 
L 1759 4494 
z
" transform="scale(0.015625)"/>
      <path id="DejaVuSans-Bold-65" d="M 4031 1759 
L 4031 1441 
L 1416 1441 
Q 1456 1047 1700 850 
Q 1944 653 2381 653 
Q 2734 653 3104 758 
Q 3475 863 3866 1075 
L 3866 213 
Q 3469 63 3072 -14 
Q 2675 -91 2278 -91 
Q 1328 -91 801 392 
Q 275 875 275 1747 
Q 275 2603 792 3093 
Q 1309 3584 2216 3584 
Q 3041 3584 3536 3087 
Q 4031 2591 4031 1759 
z
M 2881 2131 
Q 2881 2450 2695 2645 
Q 2509 2841 2209 2841 
Q 1884 2841 1681 2658 
Q 1478 2475 1428 2131 
L 2881 2131 
z
" transform="scale(0.015625)"/>
      <path id="DejaVuSans-Bold-64" d="M 2919 2988 
L 2919 4863 
L 4044 4863 
L 4044 0 
L 2919 0 
L 2919 506 
Q 2688 197 2409 53 
Q 2131 -91 1766 -91 
Q 1119 -91 703 423 
Q 288 938 288 1747 
Q 288 2556 703 3070 
Q 1119 3584 1766 3584 
Q 2128 3584 2408 3439 
Q 2688 3294 2919 2988 
z
M 2181 722 
Q 2541 722 2730 984 
Q 2919 1247 2919 1747 
Q 2919 2247 2730 2509 
Q 2541 2772 2181 2772 
Q 1825 2772 1636 2509 
Q 1447 2247 1447 1747 
Q 1447 1247 1636 984 
Q 1825 722 2181 722 
z
" transform="scale(0.015625)"/>
      <path id="DejaVuSans-Bold-73" d="M 3272 3391 
L 3272 2541 
Q 2913 2691 2578 2766 
Q 2244 2841 1947 2841 
Q 1628 2841 1473 2761 
Q 1319 2681 1319 2516 
Q 1319 2381 1436 2309 
Q 1553 2238 1856 2203 
L 2053 2175 
Q 2913 2066 3209 1816 
Q 3506 1566 3506 1031 
Q 3506 472 3093 190 
Q 2681 -91 1863 -91 
Q 1516 -91 1145 -36 
Q 775 19 384 128 
L 384 978 
Q 719 816 1070 734 
Q 1422 653 1784 653 
Q 2113 653 2278 743 
Q 2444 834 2444 1013 
Q 2444 1163 2330 1236 
Q 2216 1309 1875 1350 
L 1678 1375 
Q 931 1469 631 1722 
Q 331 1975 331 2491 
Q 331 3047 712 3315 
Q 1094 3584 1881 3584 
Q 2191 3584 2531 3537 
Q 2872 3491 3272 3391 
z
" transform="scale(0.015625)"/>
      <path id="DejaVuSans-Bold-68" d="M 4056 2131 
L 4056 0 
L 2931 0 
L 2931 347 
L 2931 1625 
Q 2931 2084 2911 2256 
Q 2891 2428 2841 2509 
Q 2775 2619 2662 2680 
Q 2550 2741 2406 2741 
Q 2056 2741 1856 2470 
Q 1656 2200 1656 1722 
L 1656 0 
L 538 0 
L 538 4863 
L 1656 4863 
L 1656 2988 
Q 1909 3294 2193 3439 
Q 2478 3584 2822 3584 
Q 3428 3584 3742 3212 
Q 4056 2841 4056 2131 
z
" transform="scale(0.015625)"/>
      <path id="DejaVuSans-Bold-61" d="M 2106 1575 
Q 1756 1575 1579 1456 
Q 1403 1338 1403 1106 
Q 1403 894 1545 773 
Q 1688 653 1941 653 
Q 2256 653 2472 879 
Q 2688 1106 2688 1447 
L 2688 1575 
L 2106 1575 
z
M 3816 1997 
L 3816 0 
L 2688 0 
L 2688 519 
Q 2463 200 2181 54 
Q 1900 -91 1497 -91 
Q 953 -91 614 226 
Q 275 544 275 1050 
Q 275 1666 698 1953 
Q 1122 2241 2028 2241 
L 2688 2241 
L 2688 2328 
Q 2688 2594 2478 2717 
Q 2269 2841 1825 2841 
Q 1466 2841 1156 2769 
Q 847 2697 581 2553 
L 581 3406 
Q 941 3494 1303 3539 
Q 1666 3584 2028 3584 
Q 2975 3584 3395 3211 
Q 3816 2838 3816 1997 
z
" transform="scale(0.015625)"/>
      <path id="DejaVuSans-Bold-77" d="M 225 3500 
L 1313 3500 
L 1900 1088 
L 2491 3500 
L 3425 3500 
L 4013 1113 
L 4603 3500 
L 5691 3500 
L 4769 0 
L 3547 0 
L 2956 2406 
L 2369 0 
L 1147 0 
L 225 3500 
z
" transform="scale(0.015625)"/>
     </defs>
     <use xlink:href="#DejaVuSans-Bold-44"/>
     <use xlink:href="#DejaVuSans-Bold-53" transform="translate(83.007812 0)"/>
     <use xlink:href="#DejaVuSans-Bold-39" transform="translate(155.029297 0)"/>
     <use xlink:href="#DejaVuSans-Bold-20" transform="translate(224.609375 0)"/>
     <use xlink:href="#DejaVuSans-Bold-25b6" transform="translate(259.423828 0)"/>
     <use xlink:href="#DejaVuSans-Bold-fe0e" transform="translate(336.328125 0)"/>
     <use xlink:href="#DejaVuSans-Bold-20" transform="translate(336.328125 0)"/>
     <use xlink:href="#DejaVuSans-Bold-7c" transform="translate(371.142578 0)"/>
     <use xlink:href="#DejaVuSans-Bold-22" transform="translate(407.666016 0)"/>
     <use xlink:href="#DejaVuSans-Bold-28" transform="translate(459.765625 0)"/>
     <use xlink:href="#DejaVuSans-Bold-30fb" transform="translate(505.46875 0)"/>
     <use xlink:href="#DejaVuSans-Bold-3078" transform="translate(565.478516 0)"/>
     <use xlink:href="#DejaVuSans-Bold-30fb" transform="translate(625.488281 0)"/>
     <use xlink:href="#DejaVuSans-Bold-29" transform="translate(685.498047 0)"/>
     <use xlink:href="#DejaVuSans-Bold-69" transform="translate(731.201172 0)"/>
     <use xlink:href="#DejaVuSans-Bold-22" transform="translate(765.478516 0)"/>
     <use xlink:href="#DejaVuSans-Bold-21" transform="translate(817.578125 0)"/>
     <use xlink:href="#DejaVuSans-Bold-21" transform="translate(863.183594 0)"/>
     <use xlink:href="#DejaVuSans-Bold-21" transform="translate(908.789062 0)"/>
     <use xlink:href="#DejaVuSans-Bold-21" transform="translate(954.394531 0)"/>
     <use xlink:href="#DejaVuSans-Bold-2e" transform="translate(1000 0)"/>
     <use xlink:href="#DejaVuSans-Bold-21" transform="translate(1037.988281 0)"/>
     <use xlink:href="#DejaVuSans-Bold-22" transform="translate(1083.59375 0)"/>
     <use xlink:href="#DejaVuSans-Bold-7c" transform="translate(1135.693359 0)"/>
     <use xlink:href="#DejaVuSans-Bold-22" transform="translate(1172.216797 0)"/>
     <use xlink:href="#DejaVuSans-Bold-28" transform="translate(1224.316406 0)"/>
     <use xlink:href="#DejaVuSans-Bold-20" transform="translate(1270.019531 0)"/>
     <use xlink:href="#DejaVuSans-Bold-5e" transform="translate(1304.833984 0)"/>
     <use xlink:href="#DejaVuSans-Bold-5e" transform="translate(1388.623047 0)"/>
     <use xlink:href="#DejaVuSans-Bold-29" transform="translate(1472.412109 0)"/>
     <use xlink:href="#DejaVuSans-Bold-22" transform="translate(1518.115234 0)"/>
     <use xlink:href="#DejaVuSans-Bold-7c" transform="translate(1570.214844 0)"/>
     <use xlink:href="#DejaVuSans-Bold-2022" transform="translate(1606.738281 0)"/>
     <use xlink:href="#DejaVuSans-Bold-20" transform="translate(1670.654297 0)"/>
     <use xlink:href="#DejaVuSans-Bold-50" transform="translate(1705.46875 0)"/>
     <use xlink:href="#DejaVuSans-Bold-6c" transform="translate(1778.759766 0)"/>
     <use xlink:href="#DejaVuSans-Bold-6f" transform="translate(1813.037109 0)"/>
     <use xlink:href="#DejaVuSans-Bold-74" transform="translate(1881.738281 0)"/>
     <use xlink:href="#DejaVuSans-Bold-74" transform="translate(1929.541016 0)"/>
     <use xlink:href="#DejaVuSans-Bold-65" transform="translate(1977.34375 0)"/>
     <use xlink:href="#DejaVuSans-Bold-64" transform="translate(2045.166016 0)"/>
     <use xlink:href="#DejaVuSans-Bold-20" transform="translate(2116.748047 0)"/>
     <use xlink:href="#DejaVuSans-Bold-73" transform="translate(2151.5625 0)"/>
     <use xlink:href="#DejaVuSans-Bold-68" transform="translate(2211.083984 0)"/>
     <use xlink:href="#DejaVuSans-Bold-61" transform="translate(2282.275391 0)"/>
     <use xlink:href="#DejaVuSans-Bold-64" transform="translate(2349.755859 0)"/>
     <use xlink:href="#DejaVuSans-Bold-6f" transform="translate(2421.337891 0)"/>
     <use xlink:href="#DejaVuSans-Bold-77" transform="translate(2490.039062 0)"/>
     <use xlink:href="#DejaVuSans-Bold-73" transform="translate(2582.421875 0)"/>
    </g>
   </g>
   <g id="text_2">
    <!-- ´･ω･` -->
    <g transform="translate(124.928801 184.846856) scale(0.1 -0.1)">
     <defs>
      <path id="DejaVuSans-b4" d="M 2034 5119 
L 2656 5119 
L 1638 3944 
L 1159 3944 
L 2034 5119 
z
" transform="scale(0.015625)"/>
      <path id="DejaVuSans-ff65" d="M 319 -1131 
L 319 4513 
L 3519 4513 
L 3519 -1131 
L 319 -1131 
z
M 678 -775 
L 3163 -775 
L 3163 4153 
L 678 4153 
L 678 -775 
z
" transform="scale(0.015625)"/>
      <path id="DejaVuSans-3c9" d="M 1719 -91 
Q 422 -91 422 1766 
Q 422 2500 906 3500 
L 1525 3500 
Q 1078 2500 1078 1750 
Q 1078 397 1772 397 
Q 2406 397 2406 2078 
L 2938 2078 
Q 2938 397 3572 397 
Q 4266 397 4266 1750 
Q 4266 2500 3819 3500 
L 4438 3500 
Q 4922 2500 4922 1766 
Q 4922 -91 3625 -91 
Q 2775 -91 2672 844 
Q 2544 -91 1719 -91 
z
" transform="scale(0.015625)"/>
      <path id="DejaVuSans-60" d="M 1147 5119 
L 2028 3950 
L 1550 3950 
L 531 5119 
L 1147 5119 
z
" transform="scale(0.015625)"/>
     </defs>
     <use xlink:href="#DejaVuSans-b4"/>
     <use xlink:href="#DejaVuSans-ff65" transform="translate(50 0)"/>
     <use xlink:href="#DejaVuSans-3c9" transform="translate(110.009766 0)"/>
     <use xlink:href="#DejaVuSans-ff65" transform="translate(193.75 0)"/>
     <use xlink:href="#DejaVuSans-60" transform="translate(253.759766 0)"/>
    </g>
   </g>
   <g id="text_3">
    <!-- 旦~~ -->
    <g transform="translate(122.898685 166.502216) scale(0.1 -0.1)">
     <defs>
      <path id="DejaVuSans-65e6" d="M 319 -1131 
L 319 4513 
L 3519 4513 
L 3519 -1131 
L 319 -1131 
z
M 678 -775 
L 3163 -775 
L 3163 4153 
L 678 4153 
L 678 -775 
z
" transform="scale(0.015625)"/>
      <path id="DejaVuSans-7e" d="M 4684 2553 
L 4684 1997 
Q 4356 1750 4076 1644 
Q 3797 1538 3494 1538 
Q 3150 1538 2694 1722 
Q 2659 1734 2644 1741 
Q 2622 1750 2575 1766 
Q 2091 1959 1797 1959 
Q 1522 1959 1253 1839 
Q 984 1719 678 1459 
L 678 2016 
Q 1006 2263 1286 2370 
Q 1566 2478 1869 2478 
Q 2213 2478 2672 2291 
Q 2703 2278 2719 2272 
Q 2744 2263 2788 2247 
Q 3272 2053 3566 2053 
Q 3834 2053 4098 2172 
Q 4363 2291 4684 2553 
z
" transform="scale(0.015625)"/>
     </defs>
     <use xlink:href="#DejaVuSans-65e6"/>
     <use xlink:href="#DejaVuSans-7e" transform="translate(60.009766 0)"/>
     <use xlink:href="#DejaVuSans-7e" transform="translate(143.798828 0)"/>
    </g>
   </g>
   <g id="text_4">
    <!-- 𐙚 ‧₊˚  -->
    <g transform="translate(141.169759 79.938425) scale(0.1 -0.1)">
     <defs>
      <path id="DejaVuSans-1065a" d="M 319 -1131 
L 319 4513 
L 3519 4513 
L 3519 -1131 
L 319 -1131 
z
M 678 -775 
L 3163 -775 
L 3163 4153 
L 678 4153 
L 678 -775 
z
" transform="scale(0.015625)"/>
      <path id="DejaVuSans-20" transform="scale(0.015625)"/>
      <path id="DejaVuSans-2027" d="M 688 2728 
L 1347 2728 
L 1347 1934 
L 688 1934 
L 688 2728 
z
" transform="scale(0.015625)"/>
      <path id="DejaVuSans-208a" d="M 1853 2222 
L 1853 1247 
L 2950 1247 
L 2950 951 
L 1853 951 
L 1853 -24 
L 1525 -24 
L 1525 951 
L 428 951 
L 428 1247 
L 1525 1247 
L 1525 2222 
L 1853 2222 
z
" transform="scale(0.015625)"/>
      <path id="DejaVuSans-2da" d="M 2075 4763 
Q 2075 4959 1937 5096 
Q 1800 5234 1600 5234 
Q 1397 5234 1261 5098 
Q 1125 4963 1125 4763 
Q 1125 4559 1261 4423 
Q 1397 4288 1600 4288 
Q 1800 4288 1937 4425 
Q 2075 4563 2075 4763 
z
M 2456 4763 
Q 2456 4403 2207 4153 
Q 1959 3903 1600 3903 
Q 1241 3903 992 4153 
Q 744 4403 744 4763 
Q 744 5122 992 5370 
Q 1241 5619 1600 5619 
Q 1959 5619 2207 5370 
Q 2456 5122 2456 4763 
z
" transform="scale(0.015625)"/>
     </defs>
     <use xlink:href="#DejaVuSans-1065a"/>
     <use xlink:href="#DejaVuSans-20" transform="translate(60.009766 0)"/>
     <use xlink:href="#DejaVuSans-2027" transform="translate(91.796875 0)"/>
     <use xlink:href="#DejaVuSans-208a" transform="translate(123.583984 0)"/>
     <use xlink:href="#DejaVuSans-2da" transform="translate(176.367188 0)"/>
     <use xlink:href="#DejaVuSans-20" transform="translate(226.367188 0)"/>
    </g>
   </g>
   <g id="text_5">
    <!-- 旦~~ -->
    <g transform="translate(97.522203 90.830561) scale(0.1 -0.1)">
     <use xlink:href="#DejaVuSans-65e6"/>
     <use xlink:href="#DejaVuSans-7e" transform="translate(60.009766 0)"/>
     <use xlink:href="#DejaVuSans-7e" transform="translate(143.798828 0)"/>
    </g>
   </g>
   <g id="text_6">
    <!-- &lt;`&gt; -->
    <g transform="translate(212.731431 187.713204) scale(0.1 -0.1)">
     <defs>
      <path id="DejaVuSans-3c" d="M 4684 3150 
L 1459 2003 
L 4684 863 
L 4684 294 
L 678 1747 
L 678 2266 
L 4684 3719 
L 4684 3150 
z
" transform="scale(0.015625)"/>
      <path id="DejaVuSans-3e" d="M 678 3150 
L 678 3719 
L 4684 2266 
L 4684 1747 
L 678 294 
L 678 863 
L 3897 2003 
L 678 3150 
z
" transform="scale(0.015625)"/>
     </defs>
     <use xlink:href="#DejaVuSans-3c"/>
     <use xlink:href="#DejaVuSans-60" transform="translate(83.789062 0)"/>
     <use xlink:href="#DejaVuSans-3e" transform="translate(133.789062 0)"/>
    </g>
   </g>
   <g id="text_7">
    <!-- () -->
    <g transform="translate(151.320342 98.283073) scale(0.1 -0.1)">
     <defs>
      <path id="DejaVuSans-28" d="M 1984 4856 
Q 1566 4138 1362 3434 
Q 1159 2731 1159 2009 
Q 1159 1288 1364 580 
Q 1569 -128 1984 -844 
L 1484 -844 
Q 1016 -109 783 600 
Q 550 1309 550 2009 
Q 550 2706 781 3412 
Q 1013 4119 1484 4856 
L 1984 4856 
z
" transform="scale(0.015625)"/>
      <path id="DejaVuSans-29" d="M 513 4856 
L 1013 4856 
Q 1481 4119 1714 3412 
Q 1947 2706 1947 2009 
Q 1947 1309 1714 600 
Q 1481 -109 1013 -844 
L 513 -844 
Q 928 -128 1133 580 
Q 1338 1288 1338 2009 
Q 1338 2731 1133 3434 
Q 928 4138 513 4856 
z
" transform="scale(0.015625)"/>
     </defs>
     <use xlink:href="#DejaVuSans-28"/>
     <use xlink:href="#DejaVuSans-29" transform="translate(39.013672 0)"/>
    </g>
   </g>
   <g id="text_8">
    <!-- &lt;`&gt; -->
    <g transform="translate(128.481518 69.619562) scale(0.1 -0.1)">
     <use xlink:href="#DejaVuSans-3c"/>
     <use xlink:href="#DejaVuSans-60" transform="translate(83.789062 0)"/>
     <use xlink:href="#DejaVuSans-3e" transform="translate(133.789062 0)"/>
    </g>
   </g>
   <g id="text_9">
    <!-- -°·_·°- -->
    <g transform="translate(138.632101 190.006296) scale(0.1 -0.1)">
     <defs>
      <path id="DejaVuSans-2d" d="M 313 2009 
L 1997 2009 
L 1997 1497 
L 313 1497 
L 313 2009 
z
" transform="scale(0.015625)"/>
      <path id="DejaVuSans-b0" d="M 1600 4347 
Q 1350 4347 1178 4173 
Q 1006 4000 1006 3750 
Q 1006 3503 1178 3333 
Q 1350 3163 1600 3163 
Q 1850 3163 2022 3333 
Q 2194 3503 2194 3750 
Q 2194 3997 2020 4172 
Q 1847 4347 1600 4347 
z
M 1600 4750 
Q 1800 4750 1984 4673 
Q 2169 4597 2303 4453 
Q 2447 4313 2519 4134 
Q 2591 3956 2591 3750 
Q 2591 3338 2302 3052 
Q 2013 2766 1594 2766 
Q 1172 2766 890 3047 
Q 609 3328 609 3750 
Q 609 4169 896 4459 
Q 1184 4750 1600 4750 
z
" transform="scale(0.015625)"/>
      <path id="DejaVuSans-b7" d="M 684 2619 
L 1344 2619 
L 1344 1825 
L 684 1825 
L 684 2619 
z
" transform="scale(0.015625)"/>
      <path id="DejaVuSans-5f" d="M 3263 -1063 
L 3263 -1509 
L -63 -1509 
L -63 -1063 
L 3263 -1063 
z
" transform="scale(0.015625)"/>
     </defs>
     <use xlink:href="#DejaVuSans-2d"/>
     <use xlink:href="#DejaVuSans-b0" transform="translate(36.083984 0)"/>
     <use xlink:href="#DejaVuSans-b7" transform="translate(86.083984 0)"/>
     <use xlink:href="#DejaVuSans-5f" transform="translate(117.871094 0)"/>
     <use xlink:href="#DejaVuSans-b7" transform="translate(167.871094 0)"/>
     <use xlink:href="#DejaVuSans-b0" transform="translate(199.658203 0)"/>
     <use xlink:href="#DejaVuSans-2d" transform="translate(249.658203 0)"/>
    </g>
   </g>
   <g id="text_10">
    <!-- (・へ・) -->
    <g transform="translate(125.94386 186.566665) scale(0.1 -0.1)">
     <defs>
      <path id="DejaVuSans-30fb" d="M 319 -1131 
L 319 4513 
L 3519 4513 
L 3519 -1131 
L 319 -1131 
z
M 678 -775 
L 3163 -775 
L 3163 4153 
L 678 4153 
L 678 -775 
z
" transform="scale(0.015625)"/>
      <path id="DejaVuSans-3078" d="M 319 -1131 
L 319 4513 
L 3519 4513 
L 3519 -1131 
L 319 -1131 
z
M 678 -775 
L 3163 -775 
L 3163 4153 
L 678 4153 
L 678 -775 
z
" transform="scale(0.015625)"/>
     </defs>
     <use xlink:href="#DejaVuSans-28"/>
     <use xlink:href="#DejaVuSans-30fb" transform="translate(39.013672 0)"/>
     <use xlink:href="#DejaVuSans-3078" transform="translate(99.023438 0)"/>
     <use xlink:href="#DejaVuSans-30fb" transform="translate(159.033203 0)"/>
     <use xlink:href="#DejaVuSans-29" transform="translate(219.042969 0)"/>
    </g>
   </g>
   <g id="text_11">
    <!-- !!!!.! -->
    <g transform="translate(125.94386 186.566665) scale(0.1 -0.1)">
     <defs>
      <path id="DejaVuSans-21" d="M 966 794 
L 1600 794 
L 1600 0 
L 966 0 
L 966 794 
z
M 966 4666 
L 1600 4666 
L 1600 2619 
L 1538 1503 
L 1031 1503 
L 966 2619 
L 966 4666 
z
" transform="scale(0.015625)"/>
      <path id="DejaVuSans-2e" d="M 684 794 
L 1344 794 
L 1344 0 
L 684 0 
L 684 794 
z
" transform="scale(0.015625)"/>
     </defs>
     <use xlink:href="#DejaVuSans-21"/>
     <use xlink:href="#DejaVuSans-21" transform="translate(40.087891 0)"/>
     <use xlink:href="#DejaVuSans-21" transform="translate(80.175781 0)"/>
     <use xlink:href="#DejaVuSans-21" transform="translate(120.263672 0)"/>
     <use xlink:href="#DejaVuSans-2e" transform="translate(160.351562 0)"/>
     <use xlink:href="#DejaVuSans-21" transform="translate(192.138672 0)"/>
    </g>
   </g>
   <g id="text_12">
    <!-- ( ^^) -->
    <g transform="translate(277.695224 180.2607) scale(0.1 -0.1)">
     <defs>
      <path id="DejaVuSans-5e" d="M 2988 4666 
L 4684 2925 
L 4056 2925 
L 2681 4159 
L 1306 2925 
L 678 2925 
L 2375 4666 
L 2988 4666 
z
" transform="scale(0.015625)"/>
     </defs>
     <use xlink:href="#DejaVuSans-28"/>
     <use xlink:href="#DejaVuSans-20" transform="translate(39.013672 0)"/>
     <use xlink:href="#DejaVuSans-5e" transform="translate(70.800781 0)"/>
     <use xlink:href="#DejaVuSans-5e" transform="translate(154.589844 0)"/>
     <use xlink:href="#DejaVuSans-29" transform="translate(238.378906 0)"/>
    </g>
   </g>
   <g id="text_13">
    <!-- ????????? -->
    <g transform="translate(249.781096 202.618227) scale(0.1 -0.1)">
     <defs>
      <path id="DejaVuSans-3f" d="M 1222 794 
L 1856 794 
L 1856 0 
L 1222 0 
L 1222 794 
z
M 1838 1253 
L 1241 1253 
L 1241 1734 
Q 1241 2050 1328 2253 
Q 1416 2456 1697 2725 
L 1978 3003 
Q 2156 3169 2236 3316 
Q 2316 3463 2316 3616 
Q 2316 3894 2111 4066 
Q 1906 4238 1569 4238 
Q 1322 4238 1042 4128 
Q 763 4019 459 3809 
L 459 4397 
Q 753 4575 1054 4662 
Q 1356 4750 1678 4750 
Q 2253 4750 2601 4447 
Q 2950 4144 2950 3647 
Q 2950 3409 2837 3195 
Q 2725 2981 2444 2713 
L 2169 2444 
Q 2022 2297 1961 2214 
Q 1900 2131 1875 2053 
Q 1856 1988 1847 1894 
Q 1838 1800 1838 1638 
L 1838 1253 
z
" transform="scale(0.015625)"/>
     </defs>
     <use xlink:href="#DejaVuSans-3f"/>
     <use xlink:href="#DejaVuSans-3f" transform="translate(53.076172 0)"/>
     <use xlink:href="#DejaVuSans-3f" transform="translate(106.152344 0)"/>
     <use xlink:href="#DejaVuSans-3f" transform="translate(159.228516 0)"/>
     <use xlink:href="#DejaVuSans-3f" transform="translate(212.304688 0)"/>
     <use xlink:href="#DejaVuSans-3f" transform="translate(265.380859 0)"/>
     <use xlink:href="#DejaVuSans-3f" transform="translate(318.457031 0)"/>
     <use xlink:href="#DejaVuSans-3f" transform="translate(371.533203 0)"/>
     <use xlink:href="#DejaVuSans-3f" transform="translate(424.609375 0)"/>
    </g>
   </g>
   <g id="text_14">
    <!-- !!!!.! -->
    <g transform="translate(239.122971 223.25596) scale(0.1 -0.1)">
     <use xlink:href="#DejaVuSans-21"/>
     <use xlink:href="#DejaVuSans-21" transform="translate(40.087891 0)"/>
     <use xlink:href="#DejaVuSans-21" transform="translate(80.175781 0)"/>
     <use xlink:href="#DejaVuSans-21" transform="translate(120.263672 0)"/>
     <use xlink:href="#DejaVuSans-2e" transform="translate(160.351562 0)"/>
     <use xlink:href="#DejaVuSans-21" transform="translate(192.138672 0)"/>
    </g>
   </g>
   <g id="text_15">
    <!-- -°·_·°- -->
    <g transform="translate(266.52957 148.730845) scale(0.1 -0.1)">
     <use xlink:href="#DejaVuSans-2d"/>
     <use xlink:href="#DejaVuSans-b0" transform="translate(36.083984 0)"/>
     <use xlink:href="#DejaVuSans-b7" transform="translate(86.083984 0)"/>
     <use xlink:href="#DejaVuSans-5f" transform="translate(117.871094 0)"/>
     <use xlink:href="#DejaVuSans-b7" transform="translate(167.871094 0)"/>
     <use xlink:href="#DejaVuSans-b0" transform="translate(199.658203 0)"/>
     <use xlink:href="#DejaVuSans-2d" transform="translate(249.658203 0)"/>
    </g>
   </g>
   <g id="text_16">
    <!-- ~&gt;°)- - - -->
    <g transform="translate(276.172636 163.062598) scale(0.1 -0.1)">
     <use xlink:href="#DejaVuSans-7e"/>
     <use xlink:href="#DejaVuSans-3e" transform="translate(83.789062 0)"/>
     <use xlink:href="#DejaVuSans-b0" transform="translate(167.578125 0)"/>
     <use xlink:href="#DejaVuSans-29" transform="translate(217.578125 0)"/>
     <use xlink:href="#DejaVuSans-2d" transform="translate(256.591797 0)"/>
     <use xlink:href="#DejaVuSans-2d" transform="translate(292.675781 0)"/>
     <use xlink:href="#DejaVuSans-2d" transform="translate(328.759766 0)"/>
    </g>
   </g>
   <g id="text_17">
    <!-- ????????? -->
    <g transform="translate(149.797742 94.843448) scale(0.1 -0.1)">
     <use xlink:href="#DejaVuSans-3f"/>
     <use xlink:href="#DejaVuSans-3f" transform="translate(53.076172 0)"/>
     <use xlink:href="#DejaVuSans-3f" transform="translate(106.152344 0)"/>
     <use xlink:href="#DejaVuSans-3f" transform="translate(159.228516 0)"/>
     <use xlink:href="#DejaVuSans-3f" transform="translate(212.304688 0)"/>
     <use xlink:href="#DejaVuSans-3f" transform="translate(265.380859 0)"/>
     <use xlink:href="#DejaVuSans-3f" transform="translate(318.457031 0)"/>
     <use xlink:href="#DejaVuSans-3f" transform="translate(371.533203 0)"/>
     <use xlink:href="#DejaVuSans-3f" transform="translate(424.609375 0)"/>
    </g>
   </g>
   <g id="text_18">
    <!-- -°·_·°- -->
    <g transform="translate(125.436318 185.420126) scale(0.1 -0.1)">
     <use xlink:href="#DejaVuSans-2d"/>
     <use xlink:href="#DejaVuSans-b0" transform="translate(36.083984 0)"/>
     <use xlink:href="#DejaVuSans-b7" transform="translate(86.083984 0)"/>
     <use xlink:href="#DejaVuSans-5f" transform="translate(117.871094 0)"/>
     <use xlink:href="#DejaVuSans-b7" transform="translate(167.871094 0)"/>
     <use xlink:href="#DejaVuSans-b0" transform="translate(199.658203 0)"/>
     <use xlink:href="#DejaVuSans-2d" transform="translate(249.658203 0)"/>
    </g>
   </g>
   <g id="text_19">
    <!-- (´▽｀) -->
    <g transform="translate(137.617042 188.859744) scale(0.1 -0.1)">
     <defs>
      <path id="DejaVuSans-25bd" d="M 553 3756 
L 2459 -75 
L 4369 3756 
L 553 3756 
z
M 19 4113 
L 4903 4113 
L 2459 -788 
L 19 4113 
z
" transform="scale(0.015625)"/>
      <path id="DejaVuSans-ff40" d="M 319 -1131 
L 319 4513 
L 3519 4513 
L 3519 -1131 
L 319 -1131 
z
M 678 -775 
L 3163 -775 
L 3163 4153 
L 678 4153 
L 678 -775 
z
" transform="scale(0.015625)"/>
     </defs>
     <use xlink:href="#DejaVuSans-28"/>
     <use xlink:href="#DejaVuSans-b4" transform="translate(39.013672 0)"/>
     <use xlink:href="#DejaVuSans-25bd" transform="translate(89.013672 0)"/>
     <use xlink:href="#DejaVuSans-ff40" transform="translate(165.917969 0)"/>
     <use xlink:href="#DejaVuSans-29" transform="translate(225.927734 0)"/>
    </g>
   </g>
   <g id="text_20">
    <!-- ????????? -->
    <g transform="translate(128.481518 188.286474) scale(0.1 -0.1)">
     <use xlink:href="#DejaVuSans-3f"/>
     <use xlink:href="#DejaVuSans-3f" transform="translate(53.076172 0)"/>
     <use xlink:href="#DejaVuSans-3f" transform="translate(106.152344 0)"/>
     <use xlink:href="#DejaVuSans-3f" transform="translate(159.228516 0)"/>
     <use xlink:href="#DejaVuSans-3f" transform="translate(212.304688 0)"/>
     <use xlink:href="#DejaVuSans-3f" transform="translate(265.380859 0)"/>
     <use xlink:href="#DejaVuSans-3f" transform="translate(318.457031 0)"/>
     <use xlink:href="#DejaVuSans-3f" transform="translate(371.533203 0)"/>
     <use xlink:href="#DejaVuSans-3f" transform="translate(424.609375 0)"/>
    </g>
   </g>
   <g id="text_21">
    <!-- ~&gt;°)- - - -->
    <g transform="translate(144.214934 197.458801) scale(0.1 -0.1)">
     <use xlink:href="#DejaVuSans-7e"/>
     <use xlink:href="#DejaVuSans-3e" transform="translate(83.789062 0)"/>
     <use xlink:href="#DejaVuSans-b0" transform="translate(167.578125 0)"/>
     <use xlink:href="#DejaVuSans-29" transform="translate(217.578125 0)"/>
     <use xlink:href="#DejaVuSans-2d" transform="translate(256.591797 0)"/>
     <use xlink:href="#DejaVuSans-2d" transform="translate(292.675781 0)"/>
     <use xlink:href="#DejaVuSans-2d" transform="translate(328.759766 0)"/>
    </g>
   </g>
   <g id="text_22">
    <!-- 𐙚 ‧₊˚  -->
    <g transform="translate(171.113991 122.360416) scale(0.1 -0.1)">
     <use xlink:href="#DejaVuSans-1065a"/>
     <use xlink:href="#DejaVuSans-20" transform="translate(60.009766 0)"/>
     <use xlink:href="#DejaVuSans-2027" transform="translate(91.796875 0)"/>
     <use xlink:href="#DejaVuSans-208a" transform="translate(123.583984 0)"/>
     <use xlink:href="#DejaVuSans-2da" transform="translate(176.367188 0)"/>
     <use xlink:href="#DejaVuSans-20" transform="translate(226.367188 0)"/>
    </g>
   </g>
   <g id="text_23">
    <!-- $$$$$! -->
    <g transform="translate(183.294715 109.748471) scale(0.1 -0.1)">
     <defs>
      <path id="DejaVuSans-24" d="M 2163 -941 
L 1850 -941 
L 1847 0 
Q 1519 6 1191 76 
Q 863 147 531 288 
L 531 850 
Q 850 650 1176 548 
Q 1503 447 1850 444 
L 1850 1869 
Q 1159 1981 845 2250 
Q 531 2519 531 2988 
Q 531 3497 872 3790 
Q 1213 4084 1850 4128 
L 1850 4863 
L 2163 4863 
L 2163 4138 
Q 2453 4125 2725 4076 
Q 2997 4028 3256 3944 
L 3256 3397 
Q 2997 3528 2723 3600 
Q 2450 3672 2163 3684 
L 2163 2350 
Q 2872 2241 3206 1959 
Q 3541 1678 3541 1191 
Q 3541 663 3186 358 
Q 2831 53 2163 6 
L 2163 -941 
z
M 1850 2406 
L 1850 3688 
Q 1488 3647 1297 3481 
Q 1106 3316 1106 3041 
Q 1106 2772 1282 2622 
Q 1459 2472 1850 2406 
z
M 2163 1806 
L 2163 453 
Q 2559 506 2761 678 
Q 2963 850 2963 1131 
Q 2963 1406 2770 1568 
Q 2578 1731 2163 1806 
z
" transform="scale(0.015625)"/>
     </defs>
     <use xlink:href="#DejaVuSans-24"/>
     <use xlink:href="#DejaVuSans-24" transform="translate(63.623047 0)"/>
     <use xlink:href="#DejaVuSans-24" transform="translate(127.246094 0)"/>
     <use xlink:href="#DejaVuSans-24" transform="translate(190.869141 0)"/>
     <use xlink:href="#DejaVuSans-24" transform="translate(254.492188 0)"/>
     <use xlink:href="#DejaVuSans-21" transform="translate(318.115234 0)"/>
    </g>
   </g>
   <g id="text_24">
    <!-- &lt;`ヘ´&gt; -->
    <g transform="translate(189.385065 110.895011) scale(0.1 -0.1)">
     <defs>
      <path id="DejaVuSans-30d8" d="M 319 -1131 
L 319 4513 
L 3519 4513 
L 3519 -1131 
L 319 -1131 
z
M 678 -775 
L 3163 -775 
L 3163 4153 
L 678 4153 
L 678 -775 
z
" transform="scale(0.015625)"/>
     </defs>
     <use xlink:href="#DejaVuSans-3c"/>
     <use xlink:href="#DejaVuSans-60" transform="translate(83.789062 0)"/>
     <use xlink:href="#DejaVuSans-30d8" transform="translate(133.789062 0)"/>
     <use xlink:href="#DejaVuSans-b4" transform="translate(193.798828 0)"/>
     <use xlink:href="#DejaVuSans-3e" transform="translate(243.798828 0)"/>
    </g>
   </g>
   <g id="text_25">
    <!-- U~~ -->
    <g transform="translate(183.294715 109.748471) scale(0.1 -0.1)">
     <defs>
      <path id="DejaVuSans-55" d="M 556 4666 
L 1191 4666 
L 1191 1831 
Q 1191 1081 1462 751 
Q 1734 422 2344 422 
Q 2950 422 3222 751 
Q 3494 1081 3494 1831 
L 3494 4666 
L 4128 4666 
L 4128 1753 
Q 4128 841 3676 375 
Q 3225 -91 2344 -91 
Q 1459 -91 1007 375 
Q 556 841 556 1753 
L 556 4666 
z
" transform="scale(0.015625)"/>
     </defs>
     <use xlink:href="#DejaVuSans-55"/>
     <use xlink:href="#DejaVuSans-7e" transform="translate(73.193359 0)"/>
     <use xlink:href="#DejaVuSans-7e" transform="translate(156.982422 0)"/>
    </g>
   </g>
   <g id="text_26">
    <!-- $$$$$! -->
    <g transform="translate(181.772116 112.614826) scale(0.1 -0.1)">
     <use xlink:href="#DejaVuSans-24"/>
     <use xlink:href="#DejaVuSans-24" transform="translate(63.623047 0)"/>
     <use xlink:href="#DejaVuSans-24" transform="translate(127.246094 0)"/>
     <use xlink:href="#DejaVuSans-24" transform="translate(190.869141 0)"/>
     <use xlink:href="#DejaVuSans-24" transform="translate(254.492188 0)"/>
     <use xlink:href="#DejaVuSans-21" transform="translate(318.115234 0)"/>
    </g>
   </g>
   <g id="text_27">
    <!-- $$$$$! -->
    <g transform="translate(296.473815 126.94658) scale(0.1 -0.1)">
     <use xlink:href="#DejaVuSans-24"/>
     <use xlink:href="#DejaVuSans-24" transform="translate(63.623047 0)"/>
     <use xlink:href="#DejaVuSans-24" transform="translate(127.246094 0)"/>
     <use xlink:href="#DejaVuSans-24" transform="translate(190.869141 0)"/>
     <use xlink:href="#DejaVuSans-24" transform="translate(254.492188 0)"/>
     <use xlink:href="#DejaVuSans-21" transform="translate(318.115234 0)"/>
    </g>
   </g>
   <g id="text_28">
    <!-- &lt;`&gt; -->
    <g transform="translate(290.890994 106.882123) scale(0.1 -0.1)">
     <use xlink:href="#DejaVuSans-3c"/>
     <use xlink:href="#DejaVuSans-60" transform="translate(83.789062 0)"/>
     <use xlink:href="#DejaVuSans-3e" transform="translate(133.789062 0)"/>
    </g>
   </g>
   <g id="text_29">
    <!-- ~&gt;°)- - - -->
    <g transform="translate(289.875936 113.188096) scale(0.1 -0.1)">
     <use xlink:href="#DejaVuSans-7e"/>
     <use xlink:href="#DejaVuSans-3e" transform="translate(83.789062 0)"/>
     <use xlink:href="#DejaVuSans-b0" transform="translate(167.578125 0)"/>
     <use xlink:href="#DejaVuSans-29" transform="translate(217.578125 0)"/>
     <use xlink:href="#DejaVuSans-2d" transform="translate(256.591797 0)"/>
     <use xlink:href="#DejaVuSans-2d" transform="translate(292.675781 0)"/>
     <use xlink:href="#DejaVuSans-2d" transform="translate(328.759766 0)"/>
    </g>
   </g>
   <g id="text_30">
    <!-- &lt;`ヘ´&gt; -->
    <g transform="translate(295.458756 104.589038) scale(0.1 -0.1)">
     <use xlink:href="#DejaVuSans-3c"/>
     <use xlink:href="#DejaVuSans-60" transform="translate(83.789062 0)"/>
     <use xlink:href="#DejaVuSans-30d8" transform="translate(133.789062 0)"/>
     <use xlink:href="#DejaVuSans-b4" transform="translate(193.798828 0)"/>
     <use xlink:href="#DejaVuSans-3e" transform="translate(243.798828 0)"/>
    </g>
   </g>
   <g id="text_31">
    <!-- (*°∀°)=3 -->
    <g transform="translate(286.323219 116.627713) scale(0.1 -0.1)">
     <defs>
      <path id="DejaVuSans-2a" d="M 3009 3897 
L 1888 3291 
L 3009 2681 
L 2828 2375 
L 1778 3009 
L 1778 1831 
L 1422 1831 
L 1422 3009 
L 372 2375 
L 191 2681 
L 1313 3291 
L 191 3897 
L 372 4206 
L 1422 3572 
L 1422 4750 
L 1778 4750 
L 1778 3572 
L 2828 4206 
L 3009 3897 
z
" transform="scale(0.015625)"/>
      <path id="DejaVuSans-2200" d="M 2188 622 
L 3047 2944 
L 1331 2944 
L 2188 622 
z
M 1831 0 
L 50 4666 
L 716 4666 
L 1141 3469 
L 3244 3469 
L 3669 4666 
L 4325 4666 
L 2547 0 
L 1831 0 
z
" transform="scale(0.015625)"/>
      <path id="DejaVuSans-3d" d="M 678 2906 
L 4684 2906 
L 4684 2381 
L 678 2381 
L 678 2906 
z
M 678 1631 
L 4684 1631 
L 4684 1100 
L 678 1100 
L 678 1631 
z
" transform="scale(0.015625)"/>
      <path id="DejaVuSans-33" d="M 2597 2516 
Q 3050 2419 3304 2112 
Q 3559 1806 3559 1356 
Q 3559 666 3084 287 
Q 2609 -91 1734 -91 
Q 1441 -91 1130 -33 
Q 819 25 488 141 
L 488 750 
Q 750 597 1062 519 
Q 1375 441 1716 441 
Q 2309 441 2620 675 
Q 2931 909 2931 1356 
Q 2931 1769 2642 2001 
Q 2353 2234 1838 2234 
L 1294 2234 
L 1294 2753 
L 1863 2753 
Q 2328 2753 2575 2939 
Q 2822 3125 2822 3475 
Q 2822 3834 2567 4026 
Q 2313 4219 1838 4219 
Q 1578 4219 1281 4162 
Q 984 4106 628 3988 
L 628 4550 
Q 988 4650 1302 4700 
Q 1616 4750 1894 4750 
Q 2613 4750 3031 4423 
Q 3450 4097 3450 3541 
Q 3450 3153 3228 2886 
Q 3006 2619 2597 2516 
z
" transform="scale(0.015625)"/>
     </defs>
     <use xlink:href="#DejaVuSans-28"/>
     <use xlink:href="#DejaVuSans-2a" transform="translate(39.013672 0)"/>
     <use xlink:href="#DejaVuSans-b0" transform="translate(89.013672 0)"/>
     <use xlink:href="#DejaVuSans-2200" transform="translate(139.013672 0)"/>
     <use xlink:href="#DejaVuSans-b0" transform="translate(207.421875 0)"/>
     <use xlink:href="#DejaVuSans-29" transform="translate(257.421875 0)"/>
     <use xlink:href="#DejaVuSans-3d" transform="translate(296.435547 0)"/>
     <use xlink:href="#DejaVuSans-33" transform="translate(380.224609 0)"/>
    </g>
   </g>
   <g id="text_32">
    <!-- 𐙚 ‧₊˚  -->
    <g transform="translate(290.383465 252.492723) scale(0.1 -0.1)">
     <use xlink:href="#DejaVuSans-1065a"/>
     <use xlink:href="#DejaVuSans-20" transform="translate(60.009766 0)"/>
     <use xlink:href="#DejaVuSans-2027" transform="translate(91.796875 0)"/>
     <use xlink:href="#DejaVuSans-208a" transform="translate(123.583984 0)"/>
     <use xlink:href="#DejaVuSans-2da" transform="translate(176.367188 0)"/>
     <use xlink:href="#DejaVuSans-20" transform="translate(226.367188 0)"/>
    </g>
   </g>
   <g id="text_33">
    <!-- &lt;`ヘ´&gt; -->
    <g transform="translate(260.946737 247.333297) scale(0.1 -0.1)">
     <use xlink:href="#DejaVuSans-3c"/>
     <use xlink:href="#DejaVuSans-60" transform="translate(83.789062 0)"/>
     <use xlink:href="#DejaVuSans-30d8" transform="translate(133.789062 0)"/>
     <use xlink:href="#DejaVuSans-b4" transform="translate(193.798828 0)"/>
     <use xlink:href="#DejaVuSans-3e" transform="translate(243.798828 0)"/>
    </g>
   </g>
   <g id="text_34">
    <!-- &lt;`ヘ´&gt; -->
    <g transform="translate(377.678558 267.971016) scale(0.1 -0.1)">
     <use xlink:href="#DejaVuSans-3c"/>
     <use xlink:href="#DejaVuSans-60" transform="translate(83.789062 0)"/>
     <use xlink:href="#DejaVuSans-30d8" transform="translate(133.789062 0)"/>
     <use xlink:href="#DejaVuSans-b4" transform="translate(193.798828 0)"/>
     <use xlink:href="#DejaVuSans-3e" transform="translate(243.798828 0)"/>
    </g>
   </g>
   <g id="text_35">
    <!-- 𐙚 ‧₊˚  -->
    <g transform="translate(277.187695 249.053119) scale(0.1 -0.1)">
     <use xlink:href="#DejaVuSans-1065a"/>
     <use xlink:href="#DejaVuSans-20" transform="translate(60.009766 0)"/>
     <use xlink:href="#DejaVuSans-2027" transform="translate(91.796875 0)"/>
     <use xlink:href="#DejaVuSans-208a" transform="translate(123.583984 0)"/>
     <use xlink:href="#DejaVuSans-2da" transform="translate(176.367188 0)"/>
     <use xlink:href="#DejaVuSans-20" transform="translate(226.367188 0)"/>
    </g>
   </g>
   <g id="text_36">
    <!-- ( ^^) -->
    <g transform="translate(330.478305 262.23832) scale(0.1 -0.1)">
     <use xlink:href="#DejaVuSans-28"/>
     <use xlink:href="#DejaVuSans-20" transform="translate(39.013672 0)"/>
     <use xlink:href="#DejaVuSans-5e" transform="translate(70.800781 0)"/>
     <use xlink:href="#DejaVuSans-5e" transform="translate(154.589844 0)"/>
     <use xlink:href="#DejaVuSans-29" transform="translate(238.378906 0)"/>
    </g>
   </g>
  </g>
 </g>
 <defs>
  <clipPath id="p3707126543">
   <rect x="57.6" y="41.472" width="357.12" height="266.112"/>
  </clipPath>
 </defs>
</svg>
