<?xml version="1.0" encoding="utf-8" standalone="no"?>
<!DOCTYPE svg PUBLIC "-//W3C//DTD SVG 1.1//EN"
  "http://www.w3.org/Graphics/SVG/1.1/DTD/svg11.dtd">
<svg xmlns:xlink="http://www.w3.org/1999/xlink" width="460.8pt" height="345.6pt" viewBox="0 0 460.8 345.6" xmlns="http://www.w3.org/2000/svg" version="1.1">
 <metadata>
  <rdf:RDF xmlns:dc="http://purl.org/dc/elements/1.1/" xmlns:cc="http://creativecommons.org/ns#" xmlns:rdf="http://www.w3.org/1999/02/22-rdf-syntax-ns#">
   <cc:Work>
    <dc:type rdf:resource="http://purl.org/dc/dcmitype/StillImage"/>
    <dc:date>2026-04-05T10:31:12.316234</dc:date>
    <dc:format>image/svg+xml</dc:format>
    <dc:creator>
     <cc:Agent>
      <dc:title>Matplotlib v3.10.8, https://matplotlib.org/</dc:title>
     </cc:Agent>
    </dc:creator>
   </cc:Work>
  </rdf:RDF>
 </metadata>
 <defs>
  <style type="text/css">*{stroke-linejoin: round; stroke-linecap: butt}</style>
 </defs>
 <g id="figure_1">
  <g id="axes_1">
   <g id="line2d_1">
    <path d="M 215.869096 53.568 
L 215.869096 56.108224 
L 216.376368 56.954966 
L 216.88364 56.954966 
L 217.390912 57.801718 
L 219.420001 57.801718 
L 219.927274 58.648459 
L 220.434546 58.648459 
L 220.941818 59.495201 
L 221.956363 59.495201 
L 222.463635 60.341942 
L 223.478191 60.341942 
L 223.985464 61.188683 
L 224.492736 61.188683 
L 225.000008 62.035425 
L 225.50728 62.035425 
L 226.014553 62.882166 
L 227.029097 62.882166 
L 228.043642 64.575649 
L 228.550914 64.575649 
L 230.072731 67.115874 
L 230.580003 67.115874 
L 231.087275 67.962615 
L 231.594547 67.962615 
L 236.667282 76.43005 
L 236.667282 77.276792 
L 237.681826 78.970275 
L 237.681826 79.817016 
L 240.72546 84.897465 
L 240.72546 85.744207 
L 243.769093 90.824656 
L 243.769093 91.671397 
L 244.276366 92.518139 
L 244.276366 93.36488 
L 245.29091 95.058363 
L 245.29091 95.905125 
L 246.305455 97.598608 
L 246.305455 98.445349 
L 247.827271 100.985574 
L 247.827271 101.832315 
L 248.841816 103.525798 
L 248.841816 104.37254 
L 249.3491 105.219281 
L 249.3491 106.912764 
L 250.363645 108.606247 
L 250.363645 109.452989 
L 251.378189 111.146472 
L 251.378189 111.993213 
L 251.885461 112.839955 
L 251.885461 113.686696 
L 252.392734 114.533438 
L 252.392734 115.380179 
L 253.407278 117.073682 
L 253.407278 118.767165 
L 253.91455 119.613907 
L 253.91455 120.460648 
L 254.421823 121.30739 
L 254.421823 122.154131 
L 255.436367 123.847614 
L 255.436367 125.541097 
L 255.943639 126.387839 
L 255.943639 127.23458 
L 256.450912 128.081322 
L 256.450912 128.928063 
L 256.958184 129.774805 
L 256.958184 130.621546 
L 257.465456 131.468287 
L 257.465456 133.16177 
L 257.972728 134.008512 
L 257.972728 136.548736 
L 258.48 137.395478 
L 258.48 139.935723 
L 258.987273 140.782464 
L 258.987273 142.475947 
L 259.494545 143.322689 
L 259.494545 145.016171 
L 260.001817 145.862913 
L 260.001817 148.403137 
L 260.509089 149.249879 
L 260.509089 150.943362 
L 261.016362 151.790103 
L 261.016362 152.636845 
L 261.523634 153.483586 
L 261.523634 156.023811 
L 262.030906 156.870552 
L 262.030906 159.410777 
L 262.538191 160.257518 
L 262.538191 161.951021 
L 263.045463 162.797763 
L 263.045463 164.491246 
L 263.552735 165.337987 
L 263.552735 168.724953 
L 264.060007 169.571695 
L 264.060007 170.418436 
L 264.56728 171.265178 
L 264.56728 174.652144 
L 265.074552 175.498885 
L 265.074552 177.192368 
L 265.581824 178.03911 
L 265.581824 182.272837 
L 266.089096 183.119579 
L 266.089096 185.659803 
L 266.596368 186.506545 
L 266.596368 189.893511 
L 267.103641 190.740252 
L 267.103641 201.747892 
L 266.596368 202.594633 
L 266.596368 205.134878 
L 266.089096 205.981619 
L 266.089096 206.828361 
L 265.581824 207.675102 
L 265.581824 209.368585 
L 264.56728 211.062068 
L 264.56728 211.90881 
L 264.060007 212.755551 
L 264.060007 215.295776 
L 263.552735 216.142517 
L 263.552735 223.76319 
L 265.074552 226.303435 
L 265.581824 226.303435 
L 266.089096 227.150177 
L 266.596368 227.150177 
L 267.103641 227.996918 
L 267.610913 227.996918 
L 268.625457 229.690401 
L 269.13273 229.690401 
L 269.640002 230.537122 
L 271.161819 230.537122 
L 271.669091 231.383884 
L 272.683635 231.383884 
L 273.190908 232.230605 
L 274.205452 232.230605 
L 274.712724 233.077367 
L 276.234553 233.077367 
L 276.741825 233.924088 
L 277.75637 233.924088 
L 278.263642 234.77085 
L 279.785459 234.77085 
L 280.292731 235.617571 
L 280.800003 235.617571 
L 281.307276 236.464333 
L 282.829092 236.464333 
L 283.336365 237.311095 
L 284.858181 237.311095 
L 285.365454 238.157816 
L 285.872726 238.157816 
L 286.88727 239.851299 
L 287.394543 239.851299 
L 288.409099 241.544782 
L 288.916371 241.544782 
L 289.423644 242.391543 
L 289.930916 242.391543 
L 290.438188 243.238265 
L 291.452733 243.238265 
L 291.960005 244.085026 
L 292.974549 244.085026 
L 293.481822 244.931748 
L 294.496366 244.931748 
L 295.003638 245.778509 
L 297.54 245.778509 
L 298.047278 246.625231 
L 299.569095 246.625231 
L 300.076367 247.471992 
L 301.090911 247.471992 
L 301.598184 248.318714 
L 302.612728 248.318714 
L 303.12 249.165475 
L 304.134545 249.165475 
L 304.641823 250.012197 
L 305.149095 250.012197 
L 305.656368 250.858958 
L 306.670912 250.858958 
L 307.178184 251.70568 
L 307.685456 251.70568 
L 308.192729 252.552441 
L 308.700001 252.552441 
L 309.207273 253.399163 
L 310.72909 253.399163 
L 311.236368 254.245924 
L 312.250913 254.245924 
L 312.758185 255.092646 
L 313.265457 255.092646 
L 313.772729 255.939407 
L 314.280002 255.939407 
L 314.787274 256.786129 
L 315.294546 256.786129 
L 316.309091 258.479652 
L 316.816363 258.479652 
L 319.860002 263.560101 
L 319.860002 264.406822 
L 320.874547 266.100305 
L 320.874547 267.793788 
L 321.381819 268.64055 
L 321.381819 269.487271 
L 321.889091 270.334033 
L 321.889091 271.180754 
L 322.396364 272.027516 
L 322.396364 272.874237 
L 324.932731 277.107965 
L 325.947275 277.107965 
L 326.454548 277.954686 
L 331.527276 277.954686 
L 332.034548 277.107965 
L 333.556365 277.107965 
L 334.063637 277.954686 
L 338.121821 277.954686 
L 338.629094 278.801448 
L 341.165455 278.801448 
L 341.672727 279.648209 
L 342.179999 279.648209 
L 342.687272 280.494931 
L 343.701822 280.494931 
L 344.209094 281.341692 
L 345.730911 281.341692 
L 346.238183 282.188414 
L 347.252728 282.188414 
L 347.76 283.035175 
L 348.774548 283.035175 
L 349.28182 283.881897 
L 349.789092 283.881897 
L 350.296364 284.728658 
L 351.310909 284.728658 
L 351.818184 285.57538 
L 352.325456 285.57538 
L 352.832728 286.422141 
L 353.340001 286.422141 
L 353.847273 287.268862 
L 354.354545 287.268862 
L 354.86182 288.115624 
L 355.876365 288.115624 
L 356.383637 288.962345 
L 357.398182 288.962345 
L 357.905457 289.809107 
L 358.920001 289.809107 
L 360.94909 293.196073 
L 361.456366 293.196073 
L 361.963638 294.042794 
L 363.485455 294.042794 
L 363.485455 294.889556 
L 136.227269 294.889556 
L 136.227269 284.728658 
L 137.749098 284.728658 
L 139.270927 282.188414 
L 139.270927 281.341692 
L 140.285471 279.648209 
L 140.285471 278.801448 
L 141.300015 277.107965 
L 141.300015 276.261203 
L 142.31456 274.56772 
L 142.31456 273.720999 
L 142.82182 272.874237 
L 142.82182 272.027516 
L 143.329104 271.180754 
L 143.329104 270.334033 
L 144.850909 267.793788 
L 144.850909 266.947067 
L 145.358193 266.100305 
L 145.358193 264.406822 
L 145.865454 263.560101 
L 145.865454 262.713339 
L 146.372738 262.713339 
L 148.909087 258.479652 
L 148.909087 257.63289 
L 151.952745 252.552441 
L 151.952745 251.70568 
L 156.010923 244.931748 
L 156.518183 244.931748 
L 157.025467 244.085026 
L 157.532727 244.085026 
L 159.561816 240.698061 
L 159.561816 239.851299 
L 160.069101 239.004578 
L 160.069101 237.311095 
L 160.576361 236.464333 
L 160.576361 230.537122 
L 160.069101 229.690401 
L 160.069101 225.456694 
L 159.561816 224.609932 
L 159.561816 222.916449 
L 159.054556 222.069707 
L 159.054556 216.989258 
L 158.547272 216.142517 
L 158.547272 211.062068 
L 158.040012 210.215327 
L 158.040012 208.521844 
L 157.532727 207.675102 
L 157.532727 205.981619 
L 157.025467 205.134878 
L 157.025467 201.747892 
L 156.518183 200.90115 
L 156.518183 198.360926 
L 156.010923 197.514184 
L 156.010923 195.820701 
L 155.503638 194.97396 
L 155.503638 194.127218 
L 156.010923 193.280477 
L 156.010923 192.433735 
L 155.503638 191.586994 
L 155.503638 189.893511 
L 154.996378 189.046769 
L 154.996378 178.885851 
L 155.503638 178.03911 
L 155.503638 172.958661 
L 156.010923 172.111919 
L 156.010923 168.724953 
L 156.518183 167.878212 
L 156.518183 165.337987 
L 157.025467 164.491246 
L 157.025467 163.644504 
L 157.532727 162.797763 
L 157.532727 160.257518 
L 158.040012 159.410777 
L 158.040012 155.177069 
L 158.547272 154.330328 
L 158.547272 150.09662 
L 159.054556 149.249879 
L 159.054556 146.709654 
L 159.561816 145.862913 
L 159.561816 142.475947 
L 160.069101 141.629206 
L 160.069101 139.088981 
L 160.576361 138.242219 
L 160.576361 134.855253 
L 161.083645 134.008512 
L 161.083645 133.16177 
L 161.590905 132.315029 
L 161.590905 130.621546 
L 162.09819 129.774805 
L 162.09819 127.23458 
L 162.60545 126.387839 
L 162.60545 125.541097 
L 163.112734 124.694356 
L 163.112734 121.30739 
L 163.619994 120.460648 
L 163.619994 119.613907 
L 164.127279 118.767165 
L 164.127279 117.920424 
L 164.634539 117.073682 
L 164.634539 115.380179 
L 165.141823 114.533438 
L 165.141823 113.686696 
L 165.649107 112.839955 
L 165.649107 111.146472 
L 166.156368 110.29973 
L 166.156368 108.606247 
L 166.663652 107.759506 
L 166.663652 106.912764 
L 167.170912 106.066023 
L 167.170912 105.219281 
L 167.678196 104.37254 
L 167.678196 102.679057 
L 168.185456 101.832315 
L 168.185456 100.985574 
L 168.692741 100.138832 
L 168.692741 99.292091 
L 169.707285 97.598608 
L 169.707285 96.751866 
L 170.72183 95.058363 
L 170.72183 94.211622 
L 171.736374 92.518139 
L 171.736374 91.671397 
L 172.750919 89.977914 
L 172.750919 89.131173 
L 173.258179 88.284431 
L 173.258179 87.43769 
L 174.780008 84.897465 
L 174.780008 84.050724 
L 175.287268 83.203982 
L 175.287268 82.357241 
L 176.301812 80.663758 
L 176.301812 79.817016 
L 181.881819 70.50284 
L 182.389103 70.50284 
L 182.896364 69.656098 
L 183.403648 69.656098 
L 184.418192 67.962615 
L 184.925453 67.962615 
L 185.432737 67.115874 
L 185.939997 67.115874 
L 186.447281 66.269132 
L 186.954542 66.269132 
L 187.461826 65.422391 
L 188.47637 65.422391 
L 188.983631 64.575649 
L 193.041833 64.575649 
L 193.549093 63.728908 
L 195.578182 63.728908 
L 196.085454 62.882166 
L 197.099999 62.882166 
L 197.607283 62.035425 
L 198.114555 62.035425 
L 198.621827 61.188683 
L 200.143644 61.188683 
L 200.650916 60.341942 
L 201.665461 60.341942 
L 202.172733 59.495201 
L 202.680005 59.495201 
L 203.69455 57.801718 
L 204.201822 57.801718 
L 205.216367 56.108224 
L 205.216367 53.568 
L 205.216367 53.568 
" clip-path="url(#pa43b59155e)" style="fill: none; stroke: #000000; stroke-width: 1.5; stroke-linecap: square"/>
   </g>
   <g id="line2d_2">
    <path d="M 174.213389 186.379018 
L 179.279532 139.597111 
L 227.554463 171.492292 
L 231.961489 280.162961 
L 166.086438 228.173926 
L 187.914323 163.629343 
L 236.766588 211.903803 
L 219.662468 224.525022 
L 221.666558 289.728719 
" clip-path="url(#pa43b59155e)" style="fill: none; stroke-dasharray: 5.55,2.4; stroke-dashoffset: 0; stroke: #000000; stroke-width: 1.5"/>
    <defs>
     <path id="m416a2e7d78" d="M -3 3 
L 3 -3 
M -3 -3 
L 3 3 
" style="stroke: #000000"/>
    </defs>
    <g clip-path="url(#pa43b59155e)">
     <use xlink:href="#m416a2e7d78" x="174.213389" y="186.379018" style="stroke: #000000"/>
     <use xlink:href="#m416a2e7d78" x="179.279532" y="139.597111" style="stroke: #000000"/>
     <use xlink:href="#m416a2e7d78" x="227.554463" y="171.492292" style="stroke: #000000"/>
     <use xlink:href="#m416a2e7d78" x="231.961489" y="280.162961" style="stroke: #000000"/>
     <use xlink:href="#m416a2e7d78" x="166.086438" y="228.173926" style="stroke: #000000"/>
     <use xlink:href="#m416a2e7d78" x="187.914323" y="163.629343" style="stroke: #000000"/>
     <use xlink:href="#m416a2e7d78" x="236.766588" y="211.903803" style="stroke: #000000"/>
     <use xlink:href="#m416a2e7d78" x="219.662468" y="224.525022" style="stroke: #000000"/>
     <use xlink:href="#m416a2e7d78" x="221.666558" y="289.728719" style="stroke: #000000"/>
    </g>
   </g>
   <g id="line2d_3">
    <path d="M 368.221135 55.185777 
L 137.231601 55.185777 
L 137.231601 295.488 
L 368.221135 295.488 
L 368.221135 55.185777 
" clip-path="url(#pa43b59155e)" style="fill: none; stroke: #000000; stroke-width: 1.5; stroke-linecap: square"/>
   </g>
   <g id="line2d_4">
    <path d="M 332.034548 97.598608 
L 332.034548 100.985574 
L 333.049093 102.679057 
L 334.57091 102.679057 
L 334.57091 108.606247 
L 333.049093 108.606247 
L 332.541821 109.452989 
L 332.541821 114.533438 
L 333.049093 115.380179 
L 334.57091 115.380179 
L 334.57091 144.16943 
L 322.903636 144.16943 
L 322.903636 126.387839 
L 324.425459 126.387839 
L 325.440003 124.694356 
L 325.440003 123.847614 
L 325.947275 123.000873 
L 325.947275 121.30739 
L 326.454548 120.460648 
L 326.454548 118.767165 
L 326.96182 117.920424 
L 326.96182 116.226921 
L 327.469092 115.380179 
L 327.469092 111.993213 
L 327.976364 111.146472 
L 327.976364 97.598608 
" clip-path="url(#pa43b59155e)" style="fill: none; stroke: #000000; stroke-width: 1.5; stroke-linecap: square"/>
   </g>
   <g id="line2d_5">
    <path d="M 328.39764 99.881598 
L 331.170602 139.830988 
L 332.110077 120.228023 
L 331.767735 144.121766 
L 327.016462 132.834545 
L 329.137226 138.28958 
L 328.786999 116.374191 
L 325.291309 143.508599 
L 333.984438 108.389712 
" clip-path="url(#pa43b59155e)" style="fill: none; stroke-dasharray: 5.55,2.4; stroke-dashoffset: 0; stroke: #000000; stroke-width: 1.5"/>
    <g clip-path="url(#pa43b59155e)">
     <use xlink:href="#m416a2e7d78" x="328.39764" y="99.881598" style="stroke: #000000"/>
     <use xlink:href="#m416a2e7d78" x="331.170602" y="139.830988" style="stroke: #000000"/>
     <use xlink:href="#m416a2e7d78" x="332.110077" y="120.228023" style="stroke: #000000"/>
     <use xlink:href="#m416a2e7d78" x="331.767735" y="144.121766" style="stroke: #000000"/>
     <use xlink:href="#m416a2e7d78" x="327.016462" y="132.834545" style="stroke: #000000"/>
     <use xlink:href="#m416a2e7d78" x="329.137226" y="138.28958" style="stroke: #000000"/>
     <use xlink:href="#m416a2e7d78" x="328.786999" y="116.374191" style="stroke: #000000"/>
     <use xlink:href="#m416a2e7d78" x="325.291309" y="143.508599" style="stroke: #000000"/>
     <use xlink:href="#m416a2e7d78" x="333.984438" y="108.389712" style="stroke: #000000"/>
    </g>
   </g>
   <g id="line2d_6">
    <path d="M 334.421334 99.567497 
L 323.534383 99.567497 
L 323.534383 144.589158 
L 334.421334 144.589158 
L 334.421334 99.567497 
" clip-path="url(#pa43b59155e)" style="fill: none; stroke: #000000; stroke-width: 1.5; stroke-linecap: square"/>
   </g>
   <g id="line2d_7">
    <path d="M 398.487273 229.690401 
L 398.487273 294.889556 
L 394.936364 294.889556 
L 394.936364 289.809107 
L 394.429091 288.962345 
L 394.429091 284.728658 
L 393.921818 283.881897 
L 393.921818 283.035175 
L 394.429091 282.188414 
L 394.429091 274.56772 
L 394.936364 273.720999 
L 394.936364 270.334033 
L 394.429091 269.487271 
L 394.429091 267.793788 
L 393.414546 266.100305 
L 389.356364 266.100305 
L 388.849091 265.253584 
L 385.298182 265.253584 
L 384.79091 264.406822 
L 382.254546 264.406822 
L 381.747274 263.560101 
L 380.732728 263.560101 
L 380.225455 262.713339 
L 379.210909 262.713339 
L 378.703637 261.866618 
L 377.689091 261.866618 
L 375.152728 257.63289 
L 373.63091 257.63289 
L 373.63091 244.085026 
L 375.660001 244.085026 
L 376.167273 243.238265 
L 376.167273 242.391543 
L 378.703637 238.157816 
L 379.210909 238.157816 
L 379.718182 237.311095 
L 380.225455 237.311095 
L 381.24 235.617571 
L 381.747274 235.617571 
L 382.254546 234.77085 
L 382.761818 234.77085 
L 383.269092 233.924088 
L 384.283636 233.924088 
L 384.79091 233.077367 
L 387.327273 233.077367 
L 387.834546 232.230605 
L 387.834546 229.690401 
" clip-path="url(#pa43b59155e)" style="fill: none; stroke: #000000; stroke-width: 1.5; stroke-linecap: square"/>
   </g>
   <g id="line2d_8">
    <path d="M 392.802884 247.921012 
L 389.847237 261.618912 
L 385.292235 263.520734 
L 384.34043 234.325545 
L 396.559159 281.390668 
L 395.815597 243.582792 
L 380.825695 245.308939 
L 386.029307 251.474245 
L 395.837755 242.000302 
" clip-path="url(#pa43b59155e)" style="fill: none; stroke-dasharray: 5.55,2.4; stroke-dashoffset: 0; stroke: #000000; stroke-width: 1.5"/>
    <g clip-path="url(#pa43b59155e)">
     <use xlink:href="#m416a2e7d78" x="392.802884" y="247.921012" style="stroke: #000000"/>
     <use xlink:href="#m416a2e7d78" x="389.847237" y="261.618912" style="stroke: #000000"/>
     <use xlink:href="#m416a2e7d78" x="385.292235" y="263.520734" style="stroke: #000000"/>
     <use xlink:href="#m416a2e7d78" x="384.34043" y="234.325545" style="stroke: #000000"/>
     <use xlink:href="#m416a2e7d78" x="396.559159" y="281.390668" style="stroke: #000000"/>
     <use xlink:href="#m416a2e7d78" x="395.815597" y="243.582792" style="stroke: #000000"/>
     <use xlink:href="#m416a2e7d78" x="380.825695" y="245.308939" style="stroke: #000000"/>
     <use xlink:href="#m416a2e7d78" x="386.029307" y="251.474245" style="stroke: #000000"/>
     <use xlink:href="#m416a2e7d78" x="395.837755" y="242.000302" style="stroke: #000000"/>
    </g>
   </g>
   <g id="line2d_9">
    <path d="M 398.32039 232.4042 
L 374.051281 232.4042 
L 374.051281 295.210757 
L 398.32039 295.210757 
L 398.32039 232.4042 
" clip-path="url(#pa43b59155e)" style="fill: none; stroke: #000000; stroke-width: 1.5; stroke-linecap: square"/>
   </g>
   <g id="line2d_10">
    <path d="M 354.86182 246.625231 
L 355.369093 247.471992 
L 355.369093 248.318714 
L 355.876365 249.165475 
L 355.876365 250.012197 
L 355.369093 250.858958 
L 354.86182 250.012197 
L 354.86182 246.625231 
L 323.918186 245.778509 
L 322.903636 247.471992 
L 344.209094 228.843639 
L 334.063637 216.142517 
L 333.556365 216.142517 
L 333.049093 216.989258 
L 332.541821 216.989258 
L 332.541821 214.449034 
L 325.947275 203.441374 
L 325.440003 204.288136 
L 325.440003 205.134878 
L 325.947275 183.119579 
L 325.947275 184.813062 
L 325.440003 185.659803 
L 326.454548 187.353286 
L 326.96182 187.353286 
L 326.96182 186.506545 
L 328.483637 175.498885 
L 323.918186 175.498885 
L 322.903636 173.805402 
L 321.889091 173.805402 
L 321.381819 172.958661 
L 315.801818 172.958661 
L 315.294546 173.805402 
L 313.265457 173.805402 
L 312.758185 172.958661 
L 312.250913 172.958661 
L 311.74364 173.805402 
L 310.221818 173.805402 
L 309.714545 172.958661 
L 308.700001 172.958661 
L 308.192729 172.111919 
L 308.192729 164.491246 
L 308.700001 163.644504 
L 308.700001 157.717294 
L 308.192729 156.870552 
L 307.685456 156.870552 
L 307.178184 156.023811 
L 306.670912 156.023811 
L 306.16364 155.177069 
L 305.149095 155.177069 
L 304.641823 154.330328 
L 301.598184 154.330328 
L 301.090911 153.483586 
L 297.54 153.483586 
L 297.032727 152.636845 
L 291.452733 152.636845 
L 289.930916 155.177069 
L 287.901815 155.177069 
L 287.901815 153.483586 
L 287.394543 152.636845 
L 287.394543 151.790103 
L 286.379998 150.09662 
L 284.350909 150.09662 
L 284.350909 144.16943 
L 286.379998 144.16943 
L 287.901815 141.629206 
L 288.409099 141.629206 
L 288.916371 140.782464 
L 289.930916 140.782464 
L 291.452733 138.242219 
L 291.452733 134.855253 
L 322.396364 134.855253 
L 322.396364 137.395478 
L 325.947275 143.322689 
L 328.990909 143.322689 
L 329.498181 144.16943 
L 331.527276 144.16943 
L 332.034548 143.322689 
L 333.556365 143.322689 
L 334.063637 142.475947 
L 334.57091 142.475947 
L 335.585454 140.782464 
L 335.585454 139.088981 
L 336.092726 138.242219 
L 336.092726 134.855253 
L 347.76 134.855253 
L 347.76 137.395478 
L 348.774548 139.088981 
L 349.789092 139.088981 
L 350.296364 139.935723 
L 351.818184 139.935723 
L 352.325456 140.782464 
L 354.354545 140.782464 
L 354.86182 141.629206 
L 359.934546 141.629206 
L 359.934546 145.862913 
L 359.427274 146.709654 
L 359.427274 149.249879 
L 359.934546 150.09662 
L 359.934546 150.943362 
L 360.441818 151.790103 
L 363.485455 151.790103 
L 363.992727 152.636845 
L 367.036363 152.636845 
L 367.543636 153.483586 
L 372.109092 153.483586 
L 372.616364 154.330328 
L 379.718182 154.330328 
L 380.225455 155.177069 
L 380.225455 156.023811 
L 381.24 157.717294 
L 383.269092 157.717294 
L 381.747274 157.717294 
L 381.24 158.564035 
L 380.732728 158.564035 
L 379.210909 161.10428 
L 378.703637 161.10428 
L 376.674547 164.491246 
L 376.674547 171.265178 
L 376.167273 172.111919 
L 376.167273 173.805402 
L 375.660001 174.652144 
L 375.660001 177.192368 
L 375.152728 178.03911 
L 375.152728 178.885851 
L 374.645455 179.732593 
L 374.645455 180.579334 
L 374.138182 181.426076 
L 374.138182 182.272837 
L 373.63091 183.119579 
L 373.63091 184.813062 
L 373.123636 185.659803 
L 373.123636 186.506545 
L 372.109092 188.200028 
L 372.109092 190.740252 
L 371.60182 191.586994 
L 371.60182 194.97396 
L 371.094547 195.820701 
L 371.094547 199.207667 
L 370.587272 200.054409 
L 370.587272 200.90115 
L 370.08 201.747892 
L 370.08 202.594633 
L 369.572728 203.441374 
L 369.572728 205.134878 
L 369.065455 205.981619 
L 369.065455 206.828361 
L 368.558183 207.675102 
L 368.558183 209.368585 
L 368.050911 210.215327 
L 368.050911 225.456694 
L 368.558183 226.303435 
L 368.558183 228.843639 
L 369.065455 229.690401 
L 369.065455 233.077367 
L 369.572728 233.924088 
L 369.572728 240.698061 
L 370.08 241.544782 
L 370.08 275.414482 
L 370.587272 276.261203 
L 370.587272 282.188414 
L 370.08 283.035175 
L 370.587272 283.881897 
L 370.587272 285.57538 
L 371.094547 286.422141 
L 371.094547 287.268862 
L 370.587272 288.115624 
L 370.587272 288.962345 
L 370.08 289.809107 
L 370.08 293.196073 
L 367.543636 293.196073 
L 367.543636 289.809107 
L 368.050911 288.962345 
L 368.050911 281.341692 
L 367.543636 280.494931 
L 367.543636 279.648209 
L 367.036363 278.801448 
L 367.036363 276.261203 
L 366.529091 275.414482 
L 366.529091 268.64055 
L 366.021819 267.793788 
L 366.021819 266.100305 
L 365.514547 265.253584 
L 365.514547 264.406822 
L 365.007274 263.560101 
L 365.007274 262.713339 
L 362.47091 258.479652 
L 362.47091 257.63289 
L 360.94909 255.092646 
L 360.94909 254.245924 
L 360.441818 253.399163 
L 360.441818 251.70568 
L 359.934546 250.858958 
L 359.934546 246.625231 
L 360.441818 245.778509 
L 359.934546 244.931748 
L 359.934546 239.004578 
L 358.920001 237.311095 
L 358.412729 238.157816 
L 356.383637 238.157816 
L 355.369093 236.464333 
L 355.876365 235.617571 
L 355.876365 233.924088 
L 356.383637 233.077367 
L 356.383637 232.230605 
L 355.876365 231.383884 
L 355.876365 226.303435 
L 355.369093 225.456694 
L 354.354545 225.456694 
L 353.340001 227.150177 
L 352.832728 226.303435 
L 352.832728 224.609932 
L 351.818184 222.916449 
L 351.818184 222.069707 
L 349.789092 218.682741 
L 348.267275 218.682741 
L 347.76 219.529483 
L 347.76 222.069707 
L 346.745456 223.76319 
L 341.165455 223.76319 
L 340.15091 222.069707 
L 340.15091 218.682741 
L 339.136366 216.989258 
L 338.121821 216.989258 
L 337.614549 217.836 
L 337.107277 217.836 
L 336.092726 216.142517 
L 335.585454 216.142517 
L 335.585454 215.295776 
L 336.599999 215.295776 
L 337.107277 214.449034 
L 337.614549 215.295776 
L 339.136366 215.295776 
L 339.643638 214.449034 
L 340.15091 214.449034 
L 340.658183 213.602293 
L 343.194544 213.602293 
L 343.701822 212.755551 
L 343.701822 210.215327 
L 342.687272 208.521844 
L 341.165455 211.062068 
L 340.658183 210.215327 
L 340.658183 209.368585 
L 340.15091 208.521844 
L 340.658183 207.675102 
L 340.658183 206.828361 
L 341.165455 205.981619 
L 341.165455 204.288136 
L 340.15091 202.594633 
L 340.15091 199.207667 
L 341.165455 197.514184 
L 341.672727 197.514184 
L 342.687272 195.820701 
L 342.687272 194.97396 
L 341.672727 193.280477 
L 341.672727 192.433735 
L 341.165455 191.586994 
L 341.165455 190.740252 
L 339.643638 188.200028 
L 339.136366 188.200028 
L 338.121821 186.506545 
L 337.614549 186.506545 
L 337.107277 185.659803 
L 336.599999 185.659803 
L 336.092726 184.813062 
L 336.092726 183.119579 
L 335.078182 181.426076 
L 333.049093 181.426076 
L 332.541821 180.579334 
L 332.541821 179.732593 
L 332.034548 178.885851 
L 333.556365 176.345627 
L 334.063637 176.345627 
L 334.57091 175.498885 
L 334.57091 174.652144 
L 333.049093 172.111919 
L 332.541821 172.111919 
L 332.034548 172.958661 
L 331.527276 172.958661 
L 331.020004 173.805402 
L 329.498181 173.805402 
L 328.483637 175.498885 
L 326.96182 186.506545 
L 327.469092 185.659803 
L 327.469092 182.272837 
L 326.96182 181.426076 
L 325.947275 183.119579 
L 325.440003 205.134878 
L 325.947275 205.981619 
L 326.96182 205.981619 
L 326.96182 204.288136 
L 326.454548 203.441374 
L 325.947275 203.441374 
L 332.541821 214.449034 
L 333.049093 214.449034 
L 333.556365 215.295776 
L 334.063637 215.295776 
L 334.063637 216.142517 
L 344.209094 228.843639 
L 345.223639 228.843639 
L 345.223639 229.690401 
L 344.716367 229.690401 
L 344.209094 228.843639 
L 322.903636 247.471992 
L 322.903636 248.318714 
L 322.396364 249.165475 
L 322.396364 250.858958 
L 322.903636 250.858958 
L 323.410908 250.012197 
L 324.425459 250.012197 
L 326.454548 246.625231 
L 326.454548 242.391543 
L 325.947275 241.544782 
L 325.440003 241.544782 
L 324.932731 240.698061 
L 324.425459 241.544782 
L 324.425459 243.238265 
L 323.918186 244.085026 
L 323.918186 245.778509 
L 323.918186 245.778509 
" clip-path="url(#pa43b59155e)" style="fill: none; stroke: #000000; stroke-width: 1.5; stroke-linecap: square"/>
   </g>
   <g id="line2d_11">
    <path d="M 291.648395 145.791751 
L 347.297229 163.562885 
L 359.201303 146.923 
L 347.427841 221.768221 
L 313.732752 158.045267 
L 349.074768 180.836932 
L 313.353462 156.817297 
L 314.858395 159.967034 
L 353.778081 185.752789 
" clip-path="url(#pa43b59155e)" style="fill: none; stroke-dasharray: 5.55,2.4; stroke-dashoffset: 0; stroke: #000000; stroke-width: 1.5"/>
    <g clip-path="url(#pa43b59155e)">
     <use xlink:href="#m416a2e7d78" x="291.648395" y="145.791751" style="stroke: #000000"/>
     <use xlink:href="#m416a2e7d78" x="347.297229" y="163.562885" style="stroke: #000000"/>
     <use xlink:href="#m416a2e7d78" x="359.201303" y="146.923" style="stroke: #000000"/>
     <use xlink:href="#m416a2e7d78" x="347.427841" y="221.768221" style="stroke: #000000"/>
     <use xlink:href="#m416a2e7d78" x="313.732752" y="158.045267" style="stroke: #000000"/>
     <use xlink:href="#m416a2e7d78" x="349.074768" y="180.836932" style="stroke: #000000"/>
     <use xlink:href="#m416a2e7d78" x="313.353462" y="156.817297" style="stroke: #000000"/>
     <use xlink:href="#m416a2e7d78" x="314.858395" y="159.967034" style="stroke: #000000"/>
     <use xlink:href="#m416a2e7d78" x="353.778081" y="185.752789" style="stroke: #000000"/>
    </g>
   </g>
   <g id="line2d_12">
    <path d="M 381.456053 135.487893 
L 285.682717 135.487893 
L 285.682717 293.803792 
L 381.456053 293.803792 
L 381.456053 135.487893 
" clip-path="url(#pa43b59155e)" style="fill: none; stroke: #000000; stroke-width: 1.5; stroke-linecap: square"/>
   </g>
   <g id="line2d_13">
    <path d="M 287.901815 141.629206 
L 287.901815 145.016171 
L 288.409099 145.862913 
L 288.409099 147.556396 
L 289.930916 150.09662 
L 290.94546 150.09662 
L 291.452733 150.943362 
L 292.467277 150.943362 
L 292.974549 151.790103 
L 293.481822 151.790103 
L 293.989094 152.636845 
L 296.525455 152.636845 
L 297.032727 153.483586 
L 304.134545 153.483586 
L 304.641823 154.330328 
L 305.656368 154.330328 
L 306.16364 155.177069 
L 306.670912 155.177069 
L 307.685456 156.870552 
L 308.192729 156.870552 
L 308.700001 157.717294 
L 308.700001 161.10428 
L 308.192729 161.951021 
L 308.192729 162.797763 
L 307.685456 163.644504 
L 307.685456 166.184729 
L 307.178184 167.03147 
L 307.178184 174.652144 
L 306.16364 176.345627 
L 306.16364 177.192368 
L 305.656368 178.03911 
L 305.656368 178.885851 
L 305.149095 179.732593 
L 305.149095 182.272837 
L 304.641823 183.119579 
L 304.641823 185.659803 
L 304.134545 186.506545 
L 304.134545 190.740252 
L 303.627272 191.586994 
L 303.627272 194.97396 
L 303.12 195.820701 
L 303.12 196.667443 
L 302.612728 196.667443 
L 302.105456 197.514184 
L 302.105456 198.360926 
L 301.598184 199.207667 
L 301.598184 200.90115 
L 301.090911 201.747892 
L 301.090911 210.215327 
L 300.076367 211.90881 
L 300.076367 216.989258 
L 301.090911 218.682741 
L 301.598184 218.682741 
L 302.105456 219.529483 
L 303.12 217.836 
L 303.12 216.989258 
L 304.134545 215.295776 
L 304.134545 211.90881 
L 303.627272 211.062068 
L 303.627272 207.675102 
L 304.134545 206.828361 
L 304.134545 205.981619 
L 304.641823 205.134878 
L 306.16364 205.134878 
L 307.685456 202.594633 
L 307.685456 201.747892 
L 308.192729 200.90115 
L 308.192729 199.207667 
L 308.700001 199.207667 
L 309.714545 200.90115 
L 309.714545 201.747892 
L 310.221818 202.594633 
L 310.72909 202.594633 
L 311.236368 201.747892 
L 311.236368 200.90115 
L 311.74364 200.054409 
L 311.74364 199.207667 
L 312.250913 198.360926 
L 313.772729 198.360926 
L 314.280002 197.514184 
L 314.787274 197.514184 
L 315.294546 196.667443 
L 315.294546 191.586994 
L 316.309091 189.893511 
L 316.816363 189.893511 
L 317.323641 190.740252 
L 321.381819 190.740252 
L 321.889091 191.586994 
L 323.410908 191.586994 
L 323.918186 192.433735 
L 323.918186 193.280477 
L 324.425459 194.127218 
L 324.425459 205.981619 
L 323.918186 206.828361 
L 323.918186 208.521844 
L 323.410908 209.368585 
L 323.410908 215.295776 
L 323.918186 216.142517 
L 323.918186 238.157816 
L 323.410908 239.004578 
L 323.410908 244.085026 
L 324.425459 245.778509 
L 326.454548 245.778509 
L 326.454548 249.165475 
L 319.35273 249.165475 
L 319.35273 228.843639 
L 318.338186 227.150177 
L 317.830913 227.150177 
L 317.323641 226.303435 
L 308.700001 226.303435 
L 308.192729 225.456694 
L 307.178184 225.456694 
L 306.670912 224.609932 
L 304.134545 224.609932 
L 303.627272 223.76319 
L 303.12 223.76319 
L 302.612728 222.916449 
L 298.55455 222.916449 
L 297.54 224.609932 
L 297.54 226.303435 
L 297.032727 227.150177 
L 297.032727 228.843639 
L 296.525455 229.690401 
L 296.525455 231.383884 
L 296.018183 232.230605 
L 296.018183 233.924088 
L 295.510911 234.77085 
L 295.510911 237.311095 
L 295.003638 238.157816 
L 295.003638 241.544782 
L 293.989094 243.238265 
L 293.481822 242.391543 
L 292.467277 242.391543 
L 291.960005 241.544782 
L 290.94546 241.544782 
L 290.438188 240.698061 
L 289.930916 240.698061 
L 289.423644 239.851299 
L 288.916371 239.851299 
L 287.901815 238.157816 
L 287.901815 235.617571 
L 288.409099 234.77085 
L 288.409099 233.924088 
L 288.916371 233.077367 
L 288.916371 224.609932 
L 288.409099 223.76319 
L 288.409099 218.682741 
L 288.916371 217.836 
L 288.916371 215.295776 
L 289.423644 214.449034 
L 289.423644 211.90881 
L 287.394543 208.521844 
L 287.394543 206.828361 
L 286.88727 205.981619 
L 286.88727 203.441374 
L 286.379998 202.594633 
L 286.379998 201.747892 
L 286.88727 200.90115 
L 286.88727 194.127218 
L 286.379998 193.280477 
L 285.872726 193.280477 
L 284.858181 194.97396 
L 284.858181 195.820701 
L 284.350909 196.667443 
L 284.350909 197.514184 
L 283.843637 198.360926 
L 282.32182 198.360926 
L 282.32182 141.629206 
L 282.32182 141.629206 
" clip-path="url(#pa43b59155e)" style="fill: none; stroke: #000000; stroke-width: 1.5; stroke-linecap: square"/>
   </g>
   <g id="line2d_14">
    <path d="M 321.905201 239.861029 
L 290.377196 195.058567 
L 297.037498 161.708625 
L 285.150199 174.142116 
L 309.87026 208.906867 
L 323.321446 204.319286 
L 289.098101 202.939119 
L 321.198409 221.745691 
L 323.331134 243.678886 
" clip-path="url(#pa43b59155e)" style="fill: none; stroke-dasharray: 5.55,2.4; stroke-dashoffset: 0; stroke: #000000; stroke-width: 1.5"/>
    <g clip-path="url(#pa43b59155e)">
     <use xlink:href="#m416a2e7d78" x="321.905201" y="239.861029" style="stroke: #000000"/>
     <use xlink:href="#m416a2e7d78" x="290.377196" y="195.058567" style="stroke: #000000"/>
     <use xlink:href="#m416a2e7d78" x="297.037498" y="161.708625" style="stroke: #000000"/>
     <use xlink:href="#m416a2e7d78" x="285.150199" y="174.142116" style="stroke: #000000"/>
     <use xlink:href="#m416a2e7d78" x="309.87026" y="208.906867" style="stroke: #000000"/>
     <use xlink:href="#m416a2e7d78" x="323.321446" y="204.319286" style="stroke: #000000"/>
     <use xlink:href="#m416a2e7d78" x="289.098101" y="202.939119" style="stroke: #000000"/>
     <use xlink:href="#m416a2e7d78" x="321.198409" y="221.745691" style="stroke: #000000"/>
     <use xlink:href="#m416a2e7d78" x="323.331134" y="243.678886" style="stroke: #000000"/>
    </g>
   </g>
   <g id="line2d_15">
    <path d="M 325.41109 142.794198 
L 283.840006 142.794198 
L 283.840006 248.188342 
L 325.41109 248.188342 
L 325.41109 142.794198 
" clip-path="url(#pa43b59155e)" style="fill: none; stroke: #000000; stroke-width: 1.5; stroke-linecap: square"/>
   </g>
   <g id="line2d_16">
    <path d="M 287.394543 234.77085 
L 287.901815 234.77085 
L 288.409099 235.617571 
L 288.409099 239.004578 
L 287.394543 239.004578 
L 287.394543 234.77085 
L 285.365454 233.077367 
L 280.800003 233.077367 
L 280.292731 232.230605 
L 277.75637 232.230605 
L 276.741825 230.537122 
L 274.712724 230.537122 
L 274.205452 229.690401 
L 271.669091 229.690401 
L 271.161819 228.843639 
L 270.147274 228.843639 
L 270.147274 227.996918 
L 269.13273 226.303435 
L 268.625457 226.303435 
L 268.118185 225.456694 
L 266.089096 225.456694 
L 266.089096 212.755551 
L 268.118185 212.755551 
L 269.13273 211.062068 
L 269.13273 210.215327 
L 269.640002 209.368585 
L 269.640002 207.675102 
L 270.147274 206.828361 
L 270.147274 195.820701 
L 269.640002 194.97396 
L 269.640002 194.127218 
L 269.13273 193.280477 
L 269.13273 192.433735 
L 268.625457 191.586994 
L 268.625457 184.813062 
L 269.13273 183.96632 
L 269.13273 182.272837 
L 269.640002 181.426076 
L 269.640002 179.732593 
L 270.147274 178.885851 
L 270.147274 178.03911 
L 270.654546 177.192368 
L 270.654546 175.498885 
L 271.161819 174.652144 
L 271.161819 171.265178 
L 271.669091 170.418436 
L 271.669091 167.878212 
L 272.176363 167.03147 
L 272.176363 165.337987 
L 272.683635 164.491246 
L 272.683635 161.10428 
L 273.190908 160.257518 
L 273.190908 154.330328 
L 273.69818 153.483586 
L 273.69818 149.249879 
L 274.205452 148.403137 
L 274.205452 145.862913 
L 274.712724 145.016171 
L 274.712724 144.16943 
L 277.75637 139.088981 
L 279.785459 139.088981 
L 280.292731 138.242219 
L 280.800003 138.242219 
L 281.307276 137.395478 
L 281.307276 134.855253 
L 291.960005 134.855253 
L 291.960005 138.242219 
L 290.438188 138.242219 
L 289.930916 139.088981 
L 289.423644 139.088981 
L 288.409099 140.782464 
L 287.901815 140.782464 
L 285.365454 145.016171 
L 285.365454 150.09662 
L 285.872726 150.943362 
L 285.872726 152.636845 
L 286.379998 153.483586 
L 286.379998 161.951021 
L 286.88727 162.797763 
L 286.88727 171.265178 
L 287.394543 172.111919 
L 287.394543 177.192368 
L 287.901815 178.03911 
L 287.901815 185.659803 
L 287.394543 186.506545 
L 287.394543 191.586994 
L 287.901815 192.433735 
L 287.901815 196.667443 
L 288.916371 198.360926 
L 288.916371 204.288136 
L 288.409099 205.134878 
L 290.438188 208.521844 
L 291.960005 208.521844 
L 291.960005 212.755551 
L 290.438188 212.755551 
L 289.423644 214.449034 
L 289.423644 216.989258 
L 288.916371 217.836 
L 288.916371 227.996918 
L 288.409099 228.843639 
L 287.901815 228.843639 
L 287.394543 229.690401 
L 286.88727 229.690401 
L 285.365454 232.230605 
L 285.365454 233.077367 
" clip-path="url(#pa43b59155e)" style="fill: none; stroke: #000000; stroke-width: 1.5; stroke-linecap: square"/>
   </g>
   <g id="line2d_17">
    <path d="M 286.751584 194.317267 
L 285.673532 181.018744 
L 282.709939 205.313278 
L 278.366021 203.376914 
L 285.05625 208.446099 
L 285.061257 142.255434 
L 270.679654 197.325266 
L 271.443532 182.999138 
L 288.842669 206.771249 
" clip-path="url(#pa43b59155e)" style="fill: none; stroke-dasharray: 5.55,2.4; stroke-dashoffset: 0; stroke: #000000; stroke-width: 1.5"/>
    <g clip-path="url(#pa43b59155e)">
     <use xlink:href="#m416a2e7d78" x="286.751584" y="194.317267" style="stroke: #000000"/>
     <use xlink:href="#m416a2e7d78" x="285.673532" y="181.018744" style="stroke: #000000"/>
     <use xlink:href="#m416a2e7d78" x="282.709939" y="205.313278" style="stroke: #000000"/>
     <use xlink:href="#m416a2e7d78" x="278.366021" y="203.376914" style="stroke: #000000"/>
     <use xlink:href="#m416a2e7d78" x="285.05625" y="208.446099" style="stroke: #000000"/>
     <use xlink:href="#m416a2e7d78" x="285.061257" y="142.255434" style="stroke: #000000"/>
     <use xlink:href="#m416a2e7d78" x="270.679654" y="197.325266" style="stroke: #000000"/>
     <use xlink:href="#m416a2e7d78" x="271.443532" y="182.999138" style="stroke: #000000"/>
     <use xlink:href="#m416a2e7d78" x="288.842669" y="206.771249" style="stroke: #000000"/>
    </g>
   </g>
   <g id="line2d_18">
    <path d="M 291.178989 137.012174 
L 266.956322 137.012174 
L 266.956322 239.188656 
L 291.178989 239.188656 
L 291.178989 137.012174 
" clip-path="url(#pa43b59155e)" style="fill: none; stroke: #000000; stroke-width: 1.5; stroke-linecap: square"/>
   </g>
   <g id="line2d_19">
    <path d="M 108.327283 209.368585 
L 108.327283 211.90881 
L 108.834544 212.755551 
L 109.341828 212.755551 
L 109.849088 213.602293 
L 111.370917 213.602293 
L 111.878177 214.449034 
L 113.90729 214.449034 
L 114.41455 215.295776 
L 116.443639 215.295776 
L 116.950924 216.142517 
L 117.965468 216.142517 
L 118.472728 216.989258 
L 119.994557 216.989258 
L 120.501817 217.836 
L 122.530906 217.836 
L 123.038191 218.682741 
L 126.081824 218.682741 
L 126.589108 219.529483 
L 128.110913 219.529483 
L 128.618197 220.376224 
L 129.125457 220.376224 
L 129.632742 221.222966 
L 131.154546 221.222966 
L 131.661831 222.069707 
L 132.676375 222.069707 
L 133.183635 222.916449 
L 134.19818 222.916449 
L 134.705464 223.76319 
L 136.227269 223.76319 
L 136.734553 224.609932 
L 139.270927 224.609932 
L 139.778187 225.456694 
L 140.792731 225.456694 
L 141.300015 226.303435 
L 142.31456 226.303435 
L 142.82182 227.150177 
L 144.343649 227.150177 
L 144.850909 227.996918 
L 146.372738 227.996918 
L 146.879998 228.843639 
L 148.909087 228.843639 
L 149.416371 229.690401 
L 152.460005 229.690401 
L 152.967289 230.537122 
L 153.474549 230.537122 
L 153.981834 231.383884 
L 154.996378 231.383884 
L 155.503638 232.230605 
L 160.069101 232.230605 
L 160.069101 244.085026 
L 157.532727 244.085026 
L 156.518183 245.778509 
L 156.010923 245.778509 
L 155.503638 246.625231 
L 154.996378 246.625231 
L 152.967289 250.012197 
L 152.967289 250.858958 
L 152.460005 251.70568 
L 152.460005 252.552441 
L 151.952745 253.399163 
L 151.44546 253.399163 
L 150.430916 255.092646 
L 150.430916 255.939407 
L 149.923632 256.786129 
L 149.416371 256.786129 
L 148.401827 258.479652 
L 148.401827 260.173135 
L 147.894543 261.019856 
L 147.387282 261.019856 
L 145.358193 264.406822 
L 145.358193 265.253584 
L 144.850909 266.100305 
L 144.850909 266.947067 
L 144.343649 267.793788 
L 144.343649 268.64055 
L 142.82182 271.180754 
L 142.82182 272.027516 
L 142.31456 272.874237 
L 142.31456 273.720999 
L 141.807276 274.56772 
L 141.807276 275.414482 
L 141.300015 276.261203 
L 141.300015 277.107965 
L 140.792731 277.954686 
L 140.792731 278.801448 
L 140.285471 279.648209 
L 140.285471 280.494931 
L 138.256358 283.881897 
L 138.256358 285.57538 
L 137.749098 286.422141 
L 137.749098 294.889556 
L 74.340007 294.889556 
L 74.340007 238.157816 
L 75.354551 238.157816 
L 75.861836 237.311095 
L 77.38364 237.311095 
L 78.398185 235.617571 
L 78.905469 235.617571 
L 79.412729 234.77085 
L 80.934558 234.77085 
L 81.441818 233.924088 
L 83.470907 233.924088 
L 83.978191 233.077367 
L 84.485452 233.077367 
L 84.992736 232.230605 
L 85.499996 232.230605 
L 86.00728 231.383884 
L 86.514541 231.383884 
L 88.036369 228.843639 
L 88.036369 226.303435 
L 89.050914 226.303435 
L 89.558198 225.456694 
L 90.065458 225.456694 
L 90.572743 224.609932 
L 91.587287 224.609932 
L 92.094547 223.76319 
L 92.601832 223.76319 
L 96.66001 216.989258 
L 96.66001 216.142517 
L 97.16727 215.295776 
L 97.16727 209.368585 
" clip-path="url(#pa43b59155e)" style="fill: none; stroke: #000000; stroke-width: 1.5; stroke-linecap: square"/>
   </g>
   <g id="line2d_20">
    <path d="M 104.047731 269.424608 
L 90.689187 239.938147 
L 144.553824 231.569249 
L 130.749846 228.148812 
L 132.137501 277.041748 
L 74.93096 268.83827 
L 82.618669 273.875477 
L 117.078906 234.825842 
L 107.095476 292.319474 
" clip-path="url(#pa43b59155e)" style="fill: none; stroke-dasharray: 5.55,2.4; stroke-dashoffset: 0; stroke: #000000; stroke-width: 1.5"/>
    <g clip-path="url(#pa43b59155e)">
     <use xlink:href="#m416a2e7d78" x="104.047731" y="269.424608" style="stroke: #000000"/>
     <use xlink:href="#m416a2e7d78" x="90.689187" y="239.938147" style="stroke: #000000"/>
     <use xlink:href="#m416a2e7d78" x="144.553824" y="231.569249" style="stroke: #000000"/>
     <use xlink:href="#m416a2e7d78" x="130.749846" y="228.148812" style="stroke: #000000"/>
     <use xlink:href="#m416a2e7d78" x="132.137501" y="277.041748" style="stroke: #000000"/>
     <use xlink:href="#m416a2e7d78" x="74.93096" y="268.83827" style="stroke: #000000"/>
     <use xlink:href="#m416a2e7d78" x="82.618669" y="273.875477" style="stroke: #000000"/>
     <use xlink:href="#m416a2e7d78" x="117.078906" y="234.825842" style="stroke: #000000"/>
     <use xlink:href="#m416a2e7d78" x="107.095476" y="292.319474" style="stroke: #000000"/>
    </g>
   </g>
   <g id="line2d_21">
    <path d="M 159.472154 209.764594 
L 73.832727 209.764594 
L 73.832727 295.263937 
L 159.472154 295.263937 
L 159.472154 209.764594 
" clip-path="url(#pa43b59155e)" style="fill: none; stroke: #000000; stroke-width: 1.5; stroke-linecap: square"/>
   </g>
   <g id="text_1">
    <!-- DS9 ▶︎ |"$$$$$!i"( ^^)"|"(・へ・)"|• Plotted shadows -->
    <g transform="translate(57.6 49.114188) scale(0.1 -0.1)">
     <defs>
      <path id="DejaVuSans-Bold-44" d="M 1791 3756 
L 1791 909 
L 2222 909 
Q 2959 909 3348 1275 
Q 3738 1641 3738 2338 
Q 3738 3031 3350 3393 
Q 2963 3756 2222 3756 
L 1791 3756 
z
M 588 4666 
L 1856 4666 
Q 2919 4666 3439 4514 
Q 3959 4363 4331 4000 
Q 4659 3684 4818 3271 
Q 4978 2859 4978 2338 
Q 4978 1809 4818 1395 
Q 4659 981 4331 666 
Q 3956 303 3431 151 
Q 2906 0 1856 0 
L 588 0 
L 588 4666 
z
" transform="scale(0.015625)"/>
      <path id="DejaVuSans-Bold-53" d="M 3834 4519 
L 3834 3531 
Q 3450 3703 3084 3790 
Q 2719 3878 2394 3878 
Q 1963 3878 1756 3759 
Q 1550 3641 1550 3391 
Q 1550 3203 1689 3098 
Q 1828 2994 2194 2919 
L 2706 2816 
Q 3484 2659 3812 2340 
Q 4141 2022 4141 1434 
Q 4141 663 3683 286 
Q 3225 -91 2284 -91 
Q 1841 -91 1394 -6 
Q 947 78 500 244 
L 500 1259 
Q 947 1022 1364 901 
Q 1781 781 2169 781 
Q 2563 781 2772 912 
Q 2981 1044 2981 1288 
Q 2981 1506 2839 1625 
Q 2697 1744 2272 1838 
L 1806 1941 
Q 1106 2091 782 2419 
Q 459 2747 459 3303 
Q 459 4000 909 4375 
Q 1359 4750 2203 4750 
Q 2588 4750 2994 4692 
Q 3400 4634 3834 4519 
z
" transform="scale(0.015625)"/>
      <path id="DejaVuSans-Bold-39" d="M 641 103 
L 641 966 
Q 928 831 1190 764 
Q 1453 697 1709 697 
Q 2247 697 2547 995 
Q 2847 1294 2900 1881 
Q 2688 1725 2447 1647 
Q 2206 1569 1925 1569 
Q 1209 1569 770 1986 
Q 331 2403 331 3084 
Q 331 3838 820 4291 
Q 1309 4744 2131 4744 
Q 3044 4744 3544 4128 
Q 4044 3513 4044 2388 
Q 4044 1231 3459 570 
Q 2875 -91 1856 -91 
Q 1528 -91 1228 -42 
Q 928 6 641 103 
z
M 2125 2350 
Q 2441 2350 2600 2554 
Q 2759 2759 2759 3169 
Q 2759 3575 2600 3781 
Q 2441 3988 2125 3988 
Q 1809 3988 1650 3781 
Q 1491 3575 1491 3169 
Q 1491 2759 1650 2554 
Q 1809 2350 2125 2350 
z
" transform="scale(0.015625)"/>
      <path id="DejaVuSans-Bold-20" transform="scale(0.015625)"/>
      <path id="DejaVuSans-Bold-25b6" d="M 19 -788 
L 19 4113 
L 4903 1663 
L 19 -788 
z
" transform="scale(0.015625)"/>
      <path id="DejaVuSans-Bold-fe0e" transform="scale(0.015625)"/>
      <path id="DejaVuSans-Bold-7c" d="M 1522 4891 
L 1522 -1509 
L 813 -1509 
L 813 4891 
L 1522 4891 
z
" transform="scale(0.015625)"/>
      <path id="DejaVuSans-Bold-22" d="M 2725 4666 
L 2725 2931 
L 1984 2931 
L 1984 4666 
L 2725 4666 
z
M 1350 4666 
L 1350 2931 
L 609 2931 
L 609 4666 
L 1350 4666 
z
" transform="scale(0.015625)"/>
      <path id="DejaVuSans-Bold-24" d="M 2484 -941 
L 1978 -941 
L 1975 0 
Q 1584 16 1218 87 
Q 853 159 506 288 
L 506 1106 
Q 866 922 1233 823 
Q 1600 725 1978 713 
L 1978 1684 
L 1875 1703 
Q 1128 1834 814 2115 
Q 500 2397 500 2925 
Q 500 3484 883 3798 
Q 1266 4113 1975 4141 
L 1978 4863 
L 2484 4863 
L 2484 4153 
Q 2797 4128 3109 4075 
Q 3422 4022 3738 3938 
L 3738 3144 
Q 3425 3275 3112 3348 
Q 2800 3422 2484 3438 
L 2484 2541 
L 2584 2522 
Q 3378 2397 3698 2105 
Q 4019 1813 4019 1241 
Q 4019 666 3637 358 
Q 3256 50 2484 6 
L 2484 -941 
z
M 1978 2613 
L 1978 3428 
Q 1756 3416 1623 3308 
Q 1491 3200 1491 3034 
Q 1491 2850 1612 2745 
Q 1734 2641 1978 2613 
z
M 2484 1594 
L 2484 725 
Q 2756 728 2892 831 
Q 3028 934 3028 1141 
Q 3028 1353 2903 1458 
Q 2778 1563 2484 1594 
z
" transform="scale(0.015625)"/>
      <path id="DejaVuSans-Bold-21" d="M 897 4666 
L 2022 4666 
L 2022 2875 
L 1863 1569 
L 1056 1569 
L 897 2875 
L 897 4666 
z
M 897 1113 
L 2022 1113 
L 2022 0 
L 897 0 
L 897 1113 
z
" transform="scale(0.015625)"/>
      <path id="DejaVuSans-Bold-69" d="M 538 3500 
L 1656 3500 
L 1656 0 
L 538 0 
L 538 3500 
z
M 538 4863 
L 1656 4863 
L 1656 3950 
L 538 3950 
L 538 4863 
z
" transform="scale(0.015625)"/>
      <path id="DejaVuSans-Bold-28" d="M 2413 -844 
L 1484 -844 
Q 1006 -72 778 623 
Q 550 1319 550 2003 
Q 550 2688 779 3389 
Q 1009 4091 1484 4856 
L 2413 4856 
Q 2013 4116 1813 3408 
Q 1613 2700 1613 2009 
Q 1613 1319 1811 609 
Q 2009 -100 2413 -844 
z
" transform="scale(0.015625)"/>
      <path id="DejaVuSans-Bold-5e" d="M 3066 4666 
L 4716 2925 
L 3963 2925 
L 2681 3866 
L 1403 2925 
L 647 2925 
L 2297 4666 
L 3066 4666 
z
" transform="scale(0.015625)"/>
      <path id="DejaVuSans-Bold-29" d="M 513 -844 
Q 913 -100 1113 609 
Q 1313 1319 1313 2009 
Q 1313 2700 1113 3408 
Q 913 4116 513 4856 
L 1441 4856 
Q 1916 4091 2145 3389 
Q 2375 2688 2375 2003 
Q 2375 1319 2147 623 
Q 1919 -72 1441 -844 
L 513 -844 
z
" transform="scale(0.015625)"/>
      <path id="DejaVuSans-Bold-30fb" d="M 319 -1131 
L 319 4513 
L 3519 4513 
L 3519 -1131 
L 319 -1131 
z
M 678 -775 
L 3163 -775 
L 3163 4153 
L 678 4153 
L 678 -775 
z
" transform="scale(0.015625)"/>
      <path id="DejaVuSans-Bold-3078" d="M 319 -1131 
L 319 4513 
L 3519 4513 
L 3519 -1131 
L 319 -1131 
z
M 678 -775 
L 3163 -775 
L 3163 4153 
L 678 4153 
L 678 -775 
z
" transform="scale(0.015625)"/>
      <path id="DejaVuSans-Bold-2022" d="M 922 2381 
Q 922 2613 1005 2816 
Q 1088 3019 1247 3175 
Q 1413 3334 1616 3417 
Q 1819 3500 2047 3500 
Q 2275 3500 2479 3415 
Q 2684 3331 2841 3175 
Q 3003 3013 3086 2811 
Q 3169 2609 3169 2381 
Q 3169 2150 3084 1945 
Q 3000 1741 2841 1581 
Q 2681 1422 2476 1337 
Q 2272 1253 2041 1253 
Q 1813 1253 1609 1337 
Q 1406 1422 1247 1581 
Q 1091 1741 1006 1945 
Q 922 2150 922 2381 
z
" transform="scale(0.015625)"/>
      <path id="DejaVuSans-Bold-50" d="M 588 4666 
L 2584 4666 
Q 3475 4666 3951 4270 
Q 4428 3875 4428 3144 
Q 4428 2409 3951 2014 
Q 3475 1619 2584 1619 
L 1791 1619 
L 1791 0 
L 588 0 
L 588 4666 
z
M 1791 3794 
L 1791 2491 
L 2456 2491 
Q 2806 2491 2997 2661 
Q 3188 2831 3188 3144 
Q 3188 3456 2997 3625 
Q 2806 3794 2456 3794 
L 1791 3794 
z
" transform="scale(0.015625)"/>
      <path id="DejaVuSans-Bold-6c" d="M 538 4863 
L 1656 4863 
L 1656 0 
L 538 0 
L 538 4863 
z
" transform="scale(0.015625)"/>
      <path id="DejaVuSans-Bold-6f" d="M 2203 2784 
Q 1831 2784 1636 2517 
Q 1441 2250 1441 1747 
Q 1441 1244 1636 976 
Q 1831 709 2203 709 
Q 2569 709 2762 976 
Q 2956 1244 2956 1747 
Q 2956 2250 2762 2517 
Q 2569 2784 2203 2784 
z
M 2203 3584 
Q 3106 3584 3614 3096 
Q 4122 2609 4122 1747 
Q 4122 884 3614 396 
Q 3106 -91 2203 -91 
Q 1297 -91 786 396 
Q 275 884 275 1747 
Q 275 2609 786 3096 
Q 1297 3584 2203 3584 
z
" transform="scale(0.015625)"/>
      <path id="DejaVuSans-Bold-74" d="M 1759 4494 
L 1759 3500 
L 2913 3500 
L 2913 2700 
L 1759 2700 
L 1759 1216 
Q 1759 972 1856 886 
Q 1953 800 2241 800 
L 2816 800 
L 2816 0 
L 1856 0 
Q 1194 0 917 276 
Q 641 553 641 1216 
L 641 2700 
L 84 2700 
L 84 3500 
L 641 3500 
L 641 4494 
L 1759 4494 
z
" transform="scale(0.015625)"/>
      <path id="DejaVuSans-Bold-65" d="M 4031 1759 
L 4031 1441 
L 1416 1441 
Q 1456 1047 1700 850 
Q 1944 653 2381 653 
Q 2734 653 3104 758 
Q 3475 863 3866 1075 
L 3866 213 
Q 3469 63 3072 -14 
Q 2675 -91 2278 -91 
Q 1328 -91 801 392 
Q 275 875 275 1747 
Q 275 2603 792 3093 
Q 1309 3584 2216 3584 
Q 3041 3584 3536 3087 
Q 4031 2591 4031 1759 
z
M 2881 2131 
Q 2881 2450 2695 2645 
Q 2509 2841 2209 2841 
Q 1884 2841 1681 2658 
Q 1478 2475 1428 2131 
L 2881 2131 
z
" transform="scale(0.015625)"/>
      <path id="DejaVuSans-Bold-64" d="M 2919 2988 
L 2919 4863 
L 4044 4863 
L 4044 0 
L 2919 0 
L 2919 506 
Q 2688 197 2409 53 
Q 2131 -91 1766 -91 
Q 1119 -91 703 423 
Q 288 938 288 1747 
Q 288 2556 703 3070 
Q 1119 3584 1766 3584 
Q 2128 3584 2408 3439 
Q 2688 3294 2919 2988 
z
M 2181 722 
Q 2541 722 2730 984 
Q 2919 1247 2919 1747 
Q 2919 2247 2730 2509 
Q 2541 2772 2181 2772 
Q 1825 2772 1636 2509 
Q 1447 2247 1447 1747 
Q 1447 1247 1636 984 
Q 1825 722 2181 722 
z
" transform="scale(0.015625)"/>
      <path id="DejaVuSans-Bold-73" d="M 3272 3391 
L 3272 2541 
Q 2913 2691 2578 2766 
Q 2244 2841 1947 2841 
Q 1628 2841 1473 2761 
Q 1319 2681 1319 2516 
Q 1319 2381 1436 2309 
Q 1553 2238 1856 2203 
L 2053 2175 
Q 2913 2066 3209 1816 
Q 3506 1566 3506 1031 
Q 3506 472 3093 190 
Q 2681 -91 1863 -91 
Q 1516 -91 1145 -36 
Q 775 19 384 128 
L 384 978 
Q 719 816 1070 734 
Q 1422 653 1784 653 
Q 2113 653 2278 743 
Q 2444 834 2444 1013 
Q 2444 1163 2330 1236 
Q 2216 1309 1875 1350 
L 1678 1375 
Q 931 1469 631 1722 
Q 331 1975 331 2491 
Q 331 3047 712 3315 
Q 1094 3584 1881 3584 
Q 2191 3584 2531 3537 
Q 2872 3491 3272 3391 
z
" transform="scale(0.015625)"/>
      <path id="DejaVuSans-Bold-68" d="M 4056 2131 
L 4056 0 
L 2931 0 
L 2931 347 
L 2931 1625 
Q 2931 2084 2911 2256 
Q 2891 2428 2841 2509 
Q 2775 2619 2662 2680 
Q 2550 2741 2406 2741 
Q 2056 2741 1856 2470 
Q 1656 2200 1656 1722 
L 1656 0 
L 538 0 
L 538 4863 
L 1656 4863 
L 1656 2988 
Q 1909 3294 2193 3439 
Q 2478 3584 2822 3584 
Q 3428 3584 3742 3212 
Q 4056 2841 4056 2131 
z
" transform="scale(0.015625)"/>
      <path id="DejaVuSans-Bold-61" d="M 2106 1575 
Q 1756 1575 1579 1456 
Q 1403 1338 1403 1106 
Q 1403 894 1545 773 
Q 1688 653 1941 653 
Q 2256 653 2472 879 
Q 2688 1106 2688 1447 
L 2688 1575 
L 2106 1575 
z
M 3816 1997 
L 3816 0 
L 2688 0 
L 2688 519 
Q 2463 200 2181 54 
Q 1900 -91 1497 -91 
Q 953 -91 614 226 
Q 275 544 275 1050 
Q 275 1666 698 1953 
Q 1122 2241 2028 2241 
L 2688 2241 
L 2688 2328 
Q 2688 2594 2478 2717 
Q 2269 2841 1825 2841 
Q 1466 2841 1156 2769 
Q 847 2697 581 2553 
L 581 3406 
Q 941 3494 1303 3539 
Q 1666 3584 2028 3584 
Q 2975 3584 3395 3211 
Q 3816 2838 3816 1997 
z
" transform="scale(0.015625)"/>
      <path id="DejaVuSans-Bold-77" d="M 225 3500 
L 1313 3500 
L 1900 1088 
L 2491 3500 
L 3425 3500 
L 4013 1113 
L 4603 3500 
L 5691 3500 
L 4769 0 
L 3547 0 
L 2956 2406 
L 2369 0 
L 1147 0 
L 225 3500 
z
" transform="scale(0.015625)"/>
     </defs>
     <use xlink:href="#DejaVuSans-Bold-44"/>
     <use xlink:href="#DejaVuSans-Bold-53" transform="translate(83.007812 0)"/>
     <use xlink:href="#DejaVuSans-Bold-39" transform="translate(155.029297 0)"/>
     <use xlink:href="#DejaVuSans-Bold-20" transform="translate(224.609375 0)"/>
     <use xlink:href="#DejaVuSans-Bold-25b6" transform="translate(259.423828 0)"/>
     <use xlink:href="#DejaVuSans-Bold-fe0e" transform="translate(336.328125 0)"/>
     <use xlink:href="#DejaVuSans-Bold-20" transform="translate(336.328125 0)"/>
     <use xlink:href="#DejaVuSans-Bold-7c" transform="translate(371.142578 0)"/>
     <use xlink:href="#DejaVuSans-Bold-22" transform="translate(407.666016 0)"/>
     <use xlink:href="#DejaVuSans-Bold-24" transform="translate(459.765625 0)"/>
     <use xlink:href="#DejaVuSans-Bold-24" transform="translate(529.345703 0)"/>
     <use xlink:href="#DejaVuSans-Bold-24" transform="translate(598.925781 0)"/>
     <use xlink:href="#DejaVuSans-Bold-24" transform="translate(668.505859 0)"/>
     <use xlink:href="#DejaVuSans-Bold-24" transform="translate(738.085938 0)"/>
     <use xlink:href="#DejaVuSans-Bold-21" transform="translate(807.666016 0)"/>
     <use xlink:href="#DejaVuSans-Bold-69" transform="translate(853.271484 0)"/>
     <use xlink:href="#DejaVuSans-Bold-22" transform="translate(887.548828 0)"/>
     <use xlink:href="#DejaVuSans-Bold-28" transform="translate(939.648438 0)"/>
     <use xlink:href="#DejaVuSans-Bold-20" transform="translate(985.351562 0)"/>
     <use xlink:href="#DejaVuSans-Bold-5e" transform="translate(1020.166016 0)"/>
     <use xlink:href="#DejaVuSans-Bold-5e" transform="translate(1103.955078 0)"/>
     <use xlink:href="#DejaVuSans-Bold-29" transform="translate(1187.744141 0)"/>
     <use xlink:href="#DejaVuSans-Bold-22" transform="translate(1233.447266 0)"/>
     <use xlink:href="#DejaVuSans-Bold-7c" transform="translate(1285.546875 0)"/>
     <use xlink:href="#DejaVuSans-Bold-22" transform="translate(1322.070312 0)"/>
     <use xlink:href="#DejaVuSans-Bold-28" transform="translate(1374.169922 0)"/>
     <use xlink:href="#DejaVuSans-Bold-30fb" transform="translate(1419.873047 0)"/>
     <use xlink:href="#DejaVuSans-Bold-3078" transform="translate(1479.882812 0)"/>
     <use xlink:href="#DejaVuSans-Bold-30fb" transform="translate(1539.892578 0)"/>
     <use xlink:href="#DejaVuSans-Bold-29" transform="translate(1599.902344 0)"/>
     <use xlink:href="#DejaVuSans-Bold-22" transform="translate(1645.605469 0)"/>
     <use xlink:href="#DejaVuSans-Bold-7c" transform="translate(1697.705078 0)"/>
     <use xlink:href="#DejaVuSans-Bold-2022" transform="translate(1734.228516 0)"/>
     <use xlink:href="#DejaVuSans-Bold-20" transform="translate(1798.144531 0)"/>
     <use xlink:href="#DejaVuSans-Bold-50" transform="translate(1832.958984 0)"/>
     <use xlink:href="#DejaVuSans-Bold-6c" transform="translate(1906.25 0)"/>
     <use xlink:href="#DejaVuSans-Bold-6f" transform="translate(1940.527344 0)"/>
     <use xlink:href="#DejaVuSans-Bold-74" transform="translate(2009.228516 0)"/>
     <use xlink:href="#DejaVuSans-Bold-74" transform="translate(2057.03125 0)"/>
     <use xlink:href="#DejaVuSans-Bold-65" transform="translate(2104.833984 0)"/>
     <use xlink:href="#DejaVuSans-Bold-64" transform="translate(2172.65625 0)"/>
     <use xlink:href="#DejaVuSans-Bold-20" transform="translate(2244.238281 0)"/>
     <use xlink:href="#DejaVuSans-Bold-73" transform="translate(2279.052734 0)"/>
     <use xlink:href="#DejaVuSans-Bold-68" transform="translate(2338.574219 0)"/>
     <use xlink:href="#DejaVuSans-Bold-61" transform="translate(2409.765625 0)"/>
     <use xlink:href="#DejaVuSans-Bold-64" transform="translate(2477.246094 0)"/>
     <use xlink:href="#DejaVuSans-Bold-6f" transform="translate(2548.828125 0)"/>
     <use xlink:href="#DejaVuSans-Bold-77" transform="translate(2617.529297 0)"/>
     <use xlink:href="#DejaVuSans-Bold-73" transform="translate(2709.912109 0)"/>
    </g>
   </g>
   <g id="text_2">
    <!-- . ݁₊ ⊹ . ݁˖ . ݁ -->
    <g transform="translate(141.300015 276.261203) scale(0.1 -0.1)">
     <defs>
      <path id="DejaVuSans-2e" d="M 684 794 
L 1344 794 
L 1344 0 
L 684 0 
L 684 794 
z
" transform="scale(0.015625)"/>
      <path id="DejaVuSans-20" transform="scale(0.015625)"/>
      <path id="DejaVuSans-741" d="M 319 -1131 
L 319 4513 
L 3519 4513 
L 3519 -1131 
L 319 -1131 
z
M 678 -775 
L 3163 -775 
L 3163 4153 
L 678 4153 
L 678 -775 
z
" transform="scale(0.015625)"/>
      <path id="DejaVuSans-208a" d="M 1853 2222 
L 1853 1247 
L 2950 1247 
L 2950 951 
L 1853 951 
L 1853 -24 
L 1525 -24 
L 1525 951 
L 428 951 
L 428 1247 
L 1525 1247 
L 1525 2222 
L 1853 2222 
z
" transform="scale(0.015625)"/>
      <path id="DejaVuSans-22b9" d="M 2419 4313 
L 2944 4313 
L 2944 2672 
L 2419 2672 
L 2419 4313 
z
M 3344 2272 
L 4984 2272 
L 4984 1741 
L 3344 1741 
L 3344 2272 
z
M 2944 -300 
L 2419 -300 
L 2419 1341 
L 2944 1341 
L 2944 -300 
z
M 2019 1741 
L 378 1741 
L 378 2272 
L 2019 2272 
L 2019 1741 
z
" transform="scale(0.015625)"/>
      <path id="DejaVuSans-2d6" d="M 1013 1966 
L 1013 2666 
L 1481 2666 
L 1481 1966 
L 2181 1966 
L 2181 1497 
L 1481 1497 
L 1481 797 
L 1013 797 
L 1013 1497 
L 313 1497 
L 313 1966 
L 1013 1966 
z
" transform="scale(0.015625)"/>
     </defs>
     <use xlink:href="#DejaVuSans-2e"/>
     <use xlink:href="#DejaVuSans-20" transform="translate(31.787109 0)"/>
     <use xlink:href="#DejaVuSans-741" transform="translate(63.574219 0)"/>
     <use xlink:href="#DejaVuSans-208a" transform="translate(123.583984 0)"/>
     <use xlink:href="#DejaVuSans-20" transform="translate(176.367188 0)"/>
     <use xlink:href="#DejaVuSans-22b9" transform="translate(208.154297 0)"/>
     <use xlink:href="#DejaVuSans-20" transform="translate(291.943359 0)"/>
     <use xlink:href="#DejaVuSans-2e" transform="translate(323.730469 0)"/>
     <use xlink:href="#DejaVuSans-20" transform="translate(355.517578 0)"/>
     <use xlink:href="#DejaVuSans-741" transform="translate(387.304688 0)"/>
     <use xlink:href="#DejaVuSans-2d6" transform="translate(447.314453 0)"/>
     <use xlink:href="#DejaVuSans-20" transform="translate(486.279297 0)"/>
     <use xlink:href="#DejaVuSans-2e" transform="translate(518.066406 0)"/>
     <use xlink:href="#DejaVuSans-20" transform="translate(549.853516 0)"/>
     <use xlink:href="#DejaVuSans-741" transform="translate(581.640625 0)"/>
    </g>
   </g>
   <g id="text_3">
    <!-- $$$$$! -->
    <g transform="translate(158.547272 154.330328) scale(0.1 -0.1)">
     <defs>
      <path id="DejaVuSans-24" d="M 2163 -941 
L 1850 -941 
L 1847 0 
Q 1519 6 1191 76 
Q 863 147 531 288 
L 531 850 
Q 850 650 1176 548 
Q 1503 447 1850 444 
L 1850 1869 
Q 1159 1981 845 2250 
Q 531 2519 531 2988 
Q 531 3497 872 3790 
Q 1213 4084 1850 4128 
L 1850 4863 
L 2163 4863 
L 2163 4138 
Q 2453 4125 2725 4076 
Q 2997 4028 3256 3944 
L 3256 3397 
Q 2997 3528 2723 3600 
Q 2450 3672 2163 3684 
L 2163 2350 
Q 2872 2241 3206 1959 
Q 3541 1678 3541 1191 
Q 3541 663 3186 358 
Q 2831 53 2163 6 
L 2163 -941 
z
M 1850 2406 
L 1850 3688 
Q 1488 3647 1297 3481 
Q 1106 3316 1106 3041 
Q 1106 2772 1282 2622 
Q 1459 2472 1850 2406 
z
M 2163 1806 
L 2163 453 
Q 2559 506 2761 678 
Q 2963 850 2963 1131 
Q 2963 1406 2770 1568 
Q 2578 1731 2163 1806 
z
" transform="scale(0.015625)"/>
      <path id="DejaVuSans-21" d="M 966 794 
L 1600 794 
L 1600 0 
L 966 0 
L 966 794 
z
M 966 4666 
L 1600 4666 
L 1600 2619 
L 1538 1503 
L 1031 1503 
L 966 2619 
L 966 4666 
z
" transform="scale(0.015625)"/>
     </defs>
     <use xlink:href="#DejaVuSans-24"/>
     <use xlink:href="#DejaVuSans-24" transform="translate(63.623047 0)"/>
     <use xlink:href="#DejaVuSans-24" transform="translate(127.246094 0)"/>
     <use xlink:href="#DejaVuSans-24" transform="translate(190.869141 0)"/>
     <use xlink:href="#DejaVuSans-24" transform="translate(254.492188 0)"/>
     <use xlink:href="#DejaVuSans-21" transform="translate(318.115234 0)"/>
    </g>
   </g>
   <g id="text_4">
    <!-- ( ^^) -->
    <g transform="translate(156.010923 244.931748) scale(0.1 -0.1)">
     <defs>
      <path id="DejaVuSans-28" d="M 1984 4856 
Q 1566 4138 1362 3434 
Q 1159 2731 1159 2009 
Q 1159 1288 1364 580 
Q 1569 -128 1984 -844 
L 1484 -844 
Q 1016 -109 783 600 
Q 550 1309 550 2009 
Q 550 2706 781 3412 
Q 1013 4119 1484 4856 
L 1984 4856 
z
" transform="scale(0.015625)"/>
      <path id="DejaVuSans-5e" d="M 2988 4666 
L 4684 2925 
L 4056 2925 
L 2681 4159 
L 1306 2925 
L 678 2925 
L 2375 4666 
L 2988 4666 
z
" transform="scale(0.015625)"/>
      <path id="DejaVuSans-29" d="M 513 4856 
L 1013 4856 
Q 1481 4119 1714 3412 
Q 1947 2706 1947 2009 
Q 1947 1309 1714 600 
Q 1481 -109 1013 -844 
L 513 -844 
Q 928 -128 1133 580 
Q 1338 1288 1338 2009 
Q 1338 2731 1133 3434 
Q 928 4138 513 4856 
z
" transform="scale(0.015625)"/>
     </defs>
     <use xlink:href="#DejaVuSans-28"/>
     <use xlink:href="#DejaVuSans-20" transform="translate(39.013672 0)"/>
     <use xlink:href="#DejaVuSans-5e" transform="translate(70.800781 0)"/>
     <use xlink:href="#DejaVuSans-5e" transform="translate(154.589844 0)"/>
     <use xlink:href="#DejaVuSans-29" transform="translate(238.378906 0)"/>
    </g>
   </g>
   <g id="text_5">
    <!-- 𐙚 ‧₊˚  -->
    <g transform="translate(201.665461 60.341942) scale(0.1 -0.1)">
     <defs>
      <path id="DejaVuSans-1065a" d="M 319 -1131 
L 319 4513 
L 3519 4513 
L 3519 -1131 
L 319 -1131 
z
M 678 -775 
L 3163 -775 
L 3163 4153 
L 678 4153 
L 678 -775 
z
" transform="scale(0.015625)"/>
      <path id="DejaVuSans-2027" d="M 688 2728 
L 1347 2728 
L 1347 1934 
L 688 1934 
L 688 2728 
z
" transform="scale(0.015625)"/>
      <path id="DejaVuSans-2da" d="M 2075 4763 
Q 2075 4959 1937 5096 
Q 1800 5234 1600 5234 
Q 1397 5234 1261 5098 
Q 1125 4963 1125 4763 
Q 1125 4559 1261 4423 
Q 1397 4288 1600 4288 
Q 1800 4288 1937 4425 
Q 2075 4563 2075 4763 
z
M 2456 4763 
Q 2456 4403 2207 4153 
Q 1959 3903 1600 3903 
Q 1241 3903 992 4153 
Q 744 4403 744 4763 
Q 744 5122 992 5370 
Q 1241 5619 1600 5619 
Q 1959 5619 2207 5370 
Q 2456 5122 2456 4763 
z
" transform="scale(0.015625)"/>
     </defs>
     <use xlink:href="#DejaVuSans-1065a"/>
     <use xlink:href="#DejaVuSans-20" transform="translate(60.009766 0)"/>
     <use xlink:href="#DejaVuSans-2027" transform="translate(91.796875 0)"/>
     <use xlink:href="#DejaVuSans-208a" transform="translate(123.583984 0)"/>
     <use xlink:href="#DejaVuSans-2da" transform="translate(176.367188 0)"/>
     <use xlink:href="#DejaVuSans-20" transform="translate(226.367188 0)"/>
    </g>
   </g>
   <g id="text_6">
    <!-- $$$$$! -->
    <g transform="translate(260.001817 148.403137) scale(0.1 -0.1)">
     <use xlink:href="#DejaVuSans-24"/>
     <use xlink:href="#DejaVuSans-24" transform="translate(63.623047 0)"/>
     <use xlink:href="#DejaVuSans-24" transform="translate(127.246094 0)"/>
     <use xlink:href="#DejaVuSans-24" transform="translate(190.869141 0)"/>
     <use xlink:href="#DejaVuSans-24" transform="translate(254.492188 0)"/>
     <use xlink:href="#DejaVuSans-21" transform="translate(318.115234 0)"/>
    </g>
   </g>
   <g id="text_7">
    <!-- (^▽^) -->
    <g transform="translate(322.903636 126.387839) scale(0.1 -0.1)">
     <defs>
      <path id="DejaVuSans-25bd" d="M 553 3756 
L 2459 -75 
L 4369 3756 
L 553 3756 
z
M 19 4113 
L 4903 4113 
L 2459 -788 
L 19 4113 
z
" transform="scale(0.015625)"/>
     </defs>
     <use xlink:href="#DejaVuSans-28"/>
     <use xlink:href="#DejaVuSans-5e" transform="translate(39.013672 0)"/>
     <use xlink:href="#DejaVuSans-25bd" transform="translate(122.802734 0)"/>
     <use xlink:href="#DejaVuSans-5e" transform="translate(199.707031 0)"/>
     <use xlink:href="#DejaVuSans-29" transform="translate(283.496094 0)"/>
    </g>
   </g>
   <g id="text_8">
    <!-- ????????? -->
    <g transform="translate(334.57091 102.679057) scale(0.1 -0.1)">
     <defs>
      <path id="DejaVuSans-3f" d="M 1222 794 
L 1856 794 
L 1856 0 
L 1222 0 
L 1222 794 
z
M 1838 1253 
L 1241 1253 
L 1241 1734 
Q 1241 2050 1328 2253 
Q 1416 2456 1697 2725 
L 1978 3003 
Q 2156 3169 2236 3316 
Q 2316 3463 2316 3616 
Q 2316 3894 2111 4066 
Q 1906 4238 1569 4238 
Q 1322 4238 1042 4128 
Q 763 4019 459 3809 
L 459 4397 
Q 753 4575 1054 4662 
Q 1356 4750 1678 4750 
Q 2253 4750 2601 4447 
Q 2950 4144 2950 3647 
Q 2950 3409 2837 3195 
Q 2725 2981 2444 2713 
L 2169 2444 
Q 2022 2297 1961 2214 
Q 1900 2131 1875 2053 
Q 1856 1988 1847 1894 
Q 1838 1800 1838 1638 
L 1838 1253 
z
" transform="scale(0.015625)"/>
     </defs>
     <use xlink:href="#DejaVuSans-3f"/>
     <use xlink:href="#DejaVuSans-3f" transform="translate(53.076172 0)"/>
     <use xlink:href="#DejaVuSans-3f" transform="translate(106.152344 0)"/>
     <use xlink:href="#DejaVuSans-3f" transform="translate(159.228516 0)"/>
     <use xlink:href="#DejaVuSans-3f" transform="translate(212.304688 0)"/>
     <use xlink:href="#DejaVuSans-3f" transform="translate(265.380859 0)"/>
     <use xlink:href="#DejaVuSans-3f" transform="translate(318.457031 0)"/>
     <use xlink:href="#DejaVuSans-3f" transform="translate(371.533203 0)"/>
     <use xlink:href="#DejaVuSans-3f" transform="translate(424.609375 0)"/>
    </g>
   </g>
   <g id="text_9">
    <!-- (ーー;) -->
    <g transform="translate(333.049093 102.679057) scale(0.1 -0.1)">
     <defs>
      <path id="DejaVuSans-30fc" d="M 319 -1131 
L 319 4513 
L 3519 4513 
L 3519 -1131 
L 319 -1131 
z
M 678 -775 
L 3163 -775 
L 3163 4153 
L 678 4153 
L 678 -775 
z
" transform="scale(0.015625)"/>
      <path id="DejaVuSans-3b" d="M 750 3309 
L 1409 3309 
L 1409 2516 
L 750 2516 
L 750 3309 
z
M 750 794 
L 1409 794 
L 1409 256 
L 897 -744 
L 494 -744 
L 750 256 
L 750 794 
z
" transform="scale(0.015625)"/>
     </defs>
     <use xlink:href="#DejaVuSans-28"/>
     <use xlink:href="#DejaVuSans-30fc" transform="translate(39.013672 0)"/>
     <use xlink:href="#DejaVuSans-30fc" transform="translate(99.023438 0)"/>
     <use xlink:href="#DejaVuSans-3b" transform="translate(159.033203 0)"/>
     <use xlink:href="#DejaVuSans-29" transform="translate(192.724609 0)"/>
    </g>
   </g>
   <g id="text_10">
    <!-- (*°∀°)=3 -->
    <g transform="translate(333.049093 108.606247) scale(0.1 -0.1)">
     <defs>
      <path id="DejaVuSans-2a" d="M 3009 3897 
L 1888 3291 
L 3009 2681 
L 2828 2375 
L 1778 3009 
L 1778 1831 
L 1422 1831 
L 1422 3009 
L 372 2375 
L 191 2681 
L 1313 3291 
L 191 3897 
L 372 4206 
L 1422 3572 
L 1422 4750 
L 1778 4750 
L 1778 3572 
L 2828 4206 
L 3009 3897 
z
" transform="scale(0.015625)"/>
      <path id="DejaVuSans-b0" d="M 1600 4347 
Q 1350 4347 1178 4173 
Q 1006 4000 1006 3750 
Q 1006 3503 1178 3333 
Q 1350 3163 1600 3163 
Q 1850 3163 2022 3333 
Q 2194 3503 2194 3750 
Q 2194 3997 2020 4172 
Q 1847 4347 1600 4347 
z
M 1600 4750 
Q 1800 4750 1984 4673 
Q 2169 4597 2303 4453 
Q 2447 4313 2519 4134 
Q 2591 3956 2591 3750 
Q 2591 3338 2302 3052 
Q 2013 2766 1594 2766 
Q 1172 2766 890 3047 
Q 609 3328 609 3750 
Q 609 4169 896 4459 
Q 1184 4750 1600 4750 
z
" transform="scale(0.015625)"/>
      <path id="DejaVuSans-2200" d="M 2188 622 
L 3047 2944 
L 1331 2944 
L 2188 622 
z
M 1831 0 
L 50 4666 
L 716 4666 
L 1141 3469 
L 3244 3469 
L 3669 4666 
L 4325 4666 
L 2547 0 
L 1831 0 
z
" transform="scale(0.015625)"/>
      <path id="DejaVuSans-3d" d="M 678 2906 
L 4684 2906 
L 4684 2381 
L 678 2381 
L 678 2906 
z
M 678 1631 
L 4684 1631 
L 4684 1100 
L 678 1100 
L 678 1631 
z
" transform="scale(0.015625)"/>
      <path id="DejaVuSans-33" d="M 2597 2516 
Q 3050 2419 3304 2112 
Q 3559 1806 3559 1356 
Q 3559 666 3084 287 
Q 2609 -91 1734 -91 
Q 1441 -91 1130 -33 
Q 819 25 488 141 
L 488 750 
Q 750 597 1062 519 
Q 1375 441 1716 441 
Q 2309 441 2620 675 
Q 2931 909 2931 1356 
Q 2931 1769 2642 2001 
Q 2353 2234 1838 2234 
L 1294 2234 
L 1294 2753 
L 1863 2753 
Q 2328 2753 2575 2939 
Q 2822 3125 2822 3475 
Q 2822 3834 2567 4026 
Q 2313 4219 1838 4219 
Q 1578 4219 1281 4162 
Q 984 4106 628 3988 
L 628 4550 
Q 988 4650 1302 4700 
Q 1616 4750 1894 4750 
Q 2613 4750 3031 4423 
Q 3450 4097 3450 3541 
Q 3450 3153 3228 2886 
Q 3006 2619 2597 2516 
z
" transform="scale(0.015625)"/>
     </defs>
     <use xlink:href="#DejaVuSans-28"/>
     <use xlink:href="#DejaVuSans-2a" transform="translate(39.013672 0)"/>
     <use xlink:href="#DejaVuSans-b0" transform="translate(89.013672 0)"/>
     <use xlink:href="#DejaVuSans-2200" transform="translate(139.013672 0)"/>
     <use xlink:href="#DejaVuSans-b0" transform="translate(207.421875 0)"/>
     <use xlink:href="#DejaVuSans-29" transform="translate(257.421875 0)"/>
     <use xlink:href="#DejaVuSans-3d" transform="translate(296.435547 0)"/>
     <use xlink:href="#DejaVuSans-33" transform="translate(380.224609 0)"/>
    </g>
   </g>
   <g id="text_11">
    <!-- (*°∀°)=3 -->
    <g transform="translate(325.947275 123.000873) scale(0.1 -0.1)">
     <use xlink:href="#DejaVuSans-28"/>
     <use xlink:href="#DejaVuSans-2a" transform="translate(39.013672 0)"/>
     <use xlink:href="#DejaVuSans-b0" transform="translate(89.013672 0)"/>
     <use xlink:href="#DejaVuSans-2200" transform="translate(139.013672 0)"/>
     <use xlink:href="#DejaVuSans-b0" transform="translate(207.421875 0)"/>
     <use xlink:href="#DejaVuSans-29" transform="translate(257.421875 0)"/>
     <use xlink:href="#DejaVuSans-3d" transform="translate(296.435547 0)"/>
     <use xlink:href="#DejaVuSans-33" transform="translate(380.224609 0)"/>
    </g>
   </g>
   <g id="text_12">
    <!-- ᯓ✦ -->
    <g transform="translate(379.210909 262.713339) scale(0.1 -0.1)">
     <defs>
      <path id="DejaVuSans-1bd3" d="M 319 -1131 
L 319 4513 
L 3519 4513 
L 3519 -1131 
L 319 -1131 
z
M 678 -775 
L 3163 -775 
L 3163 4153 
L 678 4153 
L 678 -775 
z
" transform="scale(0.015625)"/>
      <path id="DejaVuSans-2726" d="M 272 2338 
Q 756 2338 1197 2522 
Q 1616 2697 1975 3053 
Q 2325 3400 2504 3831 
Q 2684 4263 2684 4766 
Q 2684 4275 2856 3850 
Q 3028 3425 3394 3053 
Q 3731 2709 4172 2522 
Q 4609 2338 5097 2338 
Q 4609 2338 4172 2153 
Q 3731 1966 3394 1622 
Q 3028 1250 2856 825 
Q 2684 400 2684 -91 
Q 2684 413 2504 844 
Q 2325 1275 1975 1622 
Q 1616 1978 1197 2153 
Q 756 2338 272 2338 
z
" transform="scale(0.015625)"/>
     </defs>
     <use xlink:href="#DejaVuSans-1bd3"/>
     <use xlink:href="#DejaVuSans-2726" transform="translate(60.009766 0)"/>
    </g>
   </g>
   <g id="text_13">
    <!-- 𐙚 ‧₊˚ . ݁₊ ⊹ . ݁ ⟡ ݁ . ⊹ ₊ ݁. -->
    <g transform="translate(379.210909 238.157816) scale(0.1 -0.1)">
     <defs>
      <path id="DejaVuSans-27e1" d="M 319 -1131 
L 319 4513 
L 3519 4513 
L 3519 -1131 
L 319 -1131 
z
M 678 -775 
L 3163 -775 
L 3163 4153 
L 678 4153 
L 678 -775 
z
" transform="scale(0.015625)"/>
     </defs>
     <use xlink:href="#DejaVuSans-1065a"/>
     <use xlink:href="#DejaVuSans-20" transform="translate(60.009766 0)"/>
     <use xlink:href="#DejaVuSans-2027" transform="translate(91.796875 0)"/>
     <use xlink:href="#DejaVuSans-208a" transform="translate(123.583984 0)"/>
     <use xlink:href="#DejaVuSans-2da" transform="translate(176.367188 0)"/>
     <use xlink:href="#DejaVuSans-20" transform="translate(226.367188 0)"/>
     <use xlink:href="#DejaVuSans-2e" transform="translate(258.154297 0)"/>
     <use xlink:href="#DejaVuSans-20" transform="translate(289.941406 0)"/>
     <use xlink:href="#DejaVuSans-741" transform="translate(321.728516 0)"/>
     <use xlink:href="#DejaVuSans-208a" transform="translate(381.738281 0)"/>
     <use xlink:href="#DejaVuSans-20" transform="translate(434.521484 0)"/>
     <use xlink:href="#DejaVuSans-22b9" transform="translate(466.308594 0)"/>
     <use xlink:href="#DejaVuSans-20" transform="translate(550.097656 0)"/>
     <use xlink:href="#DejaVuSans-2e" transform="translate(581.884766 0)"/>
     <use xlink:href="#DejaVuSans-20" transform="translate(613.671875 0)"/>
     <use xlink:href="#DejaVuSans-741" transform="translate(645.458984 0)"/>
     <use xlink:href="#DejaVuSans-20" transform="translate(705.46875 0)"/>
     <use xlink:href="#DejaVuSans-27e1" transform="translate(737.255859 0)"/>
     <use xlink:href="#DejaVuSans-20" transform="translate(797.265625 0)"/>
     <use xlink:href="#DejaVuSans-741" transform="translate(829.052734 0)"/>
     <use xlink:href="#DejaVuSans-20" transform="translate(889.0625 0)"/>
     <use xlink:href="#DejaVuSans-2e" transform="translate(920.849609 0)"/>
     <use xlink:href="#DejaVuSans-20" transform="translate(952.636719 0)"/>
     <use xlink:href="#DejaVuSans-22b9" transform="translate(984.423828 0)"/>
     <use xlink:href="#DejaVuSans-20" transform="translate(1068.212891 0)"/>
     <use xlink:href="#DejaVuSans-208a" transform="translate(1100 0)"/>
     <use xlink:href="#DejaVuSans-20" transform="translate(1152.783203 0)"/>
     <use xlink:href="#DejaVuSans-741" transform="translate(1184.570312 0)"/>
     <use xlink:href="#DejaVuSans-2e" transform="translate(1244.580078 0)"/>
    </g>
   </g>
   <g id="text_14">
    <!-- ´･ω･` -->
    <g transform="translate(379.210909 238.157816) scale(0.1 -0.1)">
     <defs>
      <path id="DejaVuSans-b4" d="M 2034 5119 
L 2656 5119 
L 1638 3944 
L 1159 3944 
L 2034 5119 
z
" transform="scale(0.015625)"/>
      <path id="DejaVuSans-ff65" d="M 319 -1131 
L 319 4513 
L 3519 4513 
L 3519 -1131 
L 319 -1131 
z
M 678 -775 
L 3163 -775 
L 3163 4153 
L 678 4153 
L 678 -775 
z
" transform="scale(0.015625)"/>
      <path id="DejaVuSans-3c9" d="M 1719 -91 
Q 422 -91 422 1766 
Q 422 2500 906 3500 
L 1525 3500 
Q 1078 2500 1078 1750 
Q 1078 397 1772 397 
Q 2406 397 2406 2078 
L 2938 2078 
Q 2938 397 3572 397 
Q 4266 397 4266 1750 
Q 4266 2500 3819 3500 
L 4438 3500 
Q 4922 2500 4922 1766 
Q 4922 -91 3625 -91 
Q 2775 -91 2672 844 
Q 2544 -91 1719 -91 
z
" transform="scale(0.015625)"/>
      <path id="DejaVuSans-60" d="M 1147 5119 
L 2028 3950 
L 1550 3950 
L 531 5119 
L 1147 5119 
z
" transform="scale(0.015625)"/>
     </defs>
     <use xlink:href="#DejaVuSans-b4"/>
     <use xlink:href="#DejaVuSans-ff65" transform="translate(50 0)"/>
     <use xlink:href="#DejaVuSans-3c9" transform="translate(110.009766 0)"/>
     <use xlink:href="#DejaVuSans-ff65" transform="translate(193.75 0)"/>
     <use xlink:href="#DejaVuSans-60" transform="translate(253.759766 0)"/>
    </g>
   </g>
   <g id="text_15">
    <!-- () -->
    <g transform="translate(393.414546 266.100305) scale(0.1 -0.1)">
     <use xlink:href="#DejaVuSans-28"/>
     <use xlink:href="#DejaVuSans-29" transform="translate(39.013672 0)"/>
    </g>
   </g>
   <g id="text_16">
    <!-- (✿◠‿◠) -->
    <g transform="translate(379.210909 238.157816) scale(0.1 -0.1)">
     <defs>
      <path id="DejaVuSans-273f" d="M 3097 3153 
Q 2906 3234 2681 3234 
Q 2456 3234 2266 3153 
Q 2072 3066 1913 2916 
Q 1750 2747 1670 2555 
Q 1591 2363 1591 2134 
Q 1591 1916 1670 1723 
Q 1750 1531 1913 1363 
Q 2072 1213 2266 1125 
Q 2456 1044 2681 1044 
Q 2906 1044 3097 1125 
Q 3291 1213 3450 1363 
Q 3613 1531 3692 1723 
Q 3772 1916 3772 2134 
Q 3772 2363 3692 2555 
Q 3613 2747 3450 2916 
Q 3291 3066 3097 3153 
z
M 3472 3213 
Q 3666 3378 3781 3428 
Q 3956 3500 4122 3500 
Q 4291 3500 4463 3428 
Q 4613 3366 4753 3231 
Q 4881 3109 4950 2948 
Q 5019 2788 5019 2594 
Q 5019 2413 4956 2258 
Q 4894 2103 4753 1959 
Q 4638 1841 4463 1763 
Q 4316 1697 4173 1697 
Q 4031 1697 3947 1713 
Q 4097 1641 4200 1534 
Q 4341 1391 4403 1236 
Q 4466 1081 4466 897 
Q 4466 706 4397 545 
Q 4328 384 4200 263 
Q 4059 128 3909 66 
Q 3753 0 3564 0 
Q 3375 0 3228 66 
Q 3053 144 2938 263 
Q 2788 416 2742 537 
Q 2697 659 2681 775 
Q 2666 656 2608 520 
Q 2550 384 2422 263 
Q 2281 128 2131 66 
Q 1975 0 1786 0 
Q 1597 0 1450 66 
Q 1275 144 1159 263 
Q 1019 406 956 561 
Q 894 716 894 897 
Q 894 1091 966 1258 
Q 1038 1425 1159 1534 
Q 1278 1641 1391 1706 
Q 1319 1694 1183 1694 
Q 1047 1694 900 1759 
Q 719 1844 609 1956 
Q 469 2100 406 2254 
Q 344 2409 344 2591 
Q 344 2784 412 2945 
Q 481 3106 609 3228 
Q 750 3363 900 3425 
Q 1056 3491 1241 3491 
Q 1434 3491 1581 3425 
Q 1766 3347 1894 3209 
Q 1869 3253 1826 3356 
Q 1784 3459 1784 3641 
Q 1784 3834 1853 3995 
Q 1922 4156 2050 4278 
Q 2191 4413 2341 4475 
Q 2497 4541 2681 4541 
Q 2875 4541 3022 4475 
Q 3197 4397 3313 4278 
Q 3453 4134 3515 3979 
Q 3578 3825 3578 3641 
Q 3578 3450 3536 3351 
Q 3494 3253 3472 3213 
z
" transform="scale(0.015625)"/>
      <path id="DejaVuSans-25e0" d="M 350 1663 
Q 350 3069 1572 3775 
Q 2181 4128 2791 4128 
Q 3403 4128 4013 3775 
Q 5234 3069 5234 1663 
L 4869 1663 
Q 4869 2859 3828 3459 
Q 3313 3759 2791 3759 
Q 2272 3759 1756 3459 
Q 716 2859 716 1663 
L 350 1663 
z
" transform="scale(0.015625)"/>
      <path id="DejaVuSans-203f" d="M 2569 -1034 
Q 3291 -1034 3998 -871 
Q 4706 -709 5422 -384 
L 5422 -778 
Q 4688 -1147 3978 -1331 
Q 3269 -1516 2569 -1516 
Q 1872 -1516 1165 -1333 
Q 459 -1150 -278 -778 
L -278 -384 
Q 441 -713 1144 -873 
Q 1847 -1034 2569 -1034 
z
" transform="scale(0.015625)"/>
     </defs>
     <use xlink:href="#DejaVuSans-28"/>
     <use xlink:href="#DejaVuSans-273f" transform="translate(39.013672 0)"/>
     <use xlink:href="#DejaVuSans-25e0" transform="translate(122.802734 0)"/>
     <use xlink:href="#DejaVuSans-203f" transform="translate(210.058594 0)"/>
     <use xlink:href="#DejaVuSans-25e0" transform="translate(290.429688 0)"/>
     <use xlink:href="#DejaVuSans-29" transform="translate(377.685547 0)"/>
    </g>
   </g>
   <g id="text_17">
    <!-- . ݁₊ ⊹ . ݁˖ . ݁ -->
    <g transform="translate(355.876365 249.165475) scale(0.1 -0.1)">
     <use xlink:href="#DejaVuSans-2e"/>
     <use xlink:href="#DejaVuSans-20" transform="translate(31.787109 0)"/>
     <use xlink:href="#DejaVuSans-741" transform="translate(63.574219 0)"/>
     <use xlink:href="#DejaVuSans-208a" transform="translate(123.583984 0)"/>
     <use xlink:href="#DejaVuSans-20" transform="translate(176.367188 0)"/>
     <use xlink:href="#DejaVuSans-22b9" transform="translate(208.154297 0)"/>
     <use xlink:href="#DejaVuSans-20" transform="translate(291.943359 0)"/>
     <use xlink:href="#DejaVuSans-2e" transform="translate(323.730469 0)"/>
     <use xlink:href="#DejaVuSans-20" transform="translate(355.517578 0)"/>
     <use xlink:href="#DejaVuSans-741" transform="translate(387.304688 0)"/>
     <use xlink:href="#DejaVuSans-2d6" transform="translate(447.314453 0)"/>
     <use xlink:href="#DejaVuSans-20" transform="translate(486.279297 0)"/>
     <use xlink:href="#DejaVuSans-2e" transform="translate(518.066406 0)"/>
     <use xlink:href="#DejaVuSans-20" transform="translate(549.853516 0)"/>
     <use xlink:href="#DejaVuSans-741" transform="translate(581.640625 0)"/>
    </g>
   </g>
   <g id="text_18">
    <!-- (✿◠‿◠) -->
    <g transform="translate(337.614549 217.836) scale(0.1 -0.1)">
     <use xlink:href="#DejaVuSans-28"/>
     <use xlink:href="#DejaVuSans-273f" transform="translate(39.013672 0)"/>
     <use xlink:href="#DejaVuSans-25e0" transform="translate(122.802734 0)"/>
     <use xlink:href="#DejaVuSans-203f" transform="translate(210.058594 0)"/>
     <use xlink:href="#DejaVuSans-25e0" transform="translate(290.429688 0)"/>
     <use xlink:href="#DejaVuSans-29" transform="translate(377.685547 0)"/>
    </g>
   </g>
   <g id="text_19">
    <!-- $$$$$! -->
    <g transform="translate(322.396364 137.395478) scale(0.1 -0.1)">
     <use xlink:href="#DejaVuSans-24"/>
     <use xlink:href="#DejaVuSans-24" transform="translate(63.623047 0)"/>
     <use xlink:href="#DejaVuSans-24" transform="translate(127.246094 0)"/>
     <use xlink:href="#DejaVuSans-24" transform="translate(190.869141 0)"/>
     <use xlink:href="#DejaVuSans-24" transform="translate(254.492188 0)"/>
     <use xlink:href="#DejaVuSans-21" transform="translate(318.115234 0)"/>
    </g>
   </g>
   <g id="text_20">
    <!-- 𐙚 ‧₊˚  -->
    <g transform="translate(306.16364 155.177069) scale(0.1 -0.1)">
     <use xlink:href="#DejaVuSans-1065a"/>
     <use xlink:href="#DejaVuSans-20" transform="translate(60.009766 0)"/>
     <use xlink:href="#DejaVuSans-2027" transform="translate(91.796875 0)"/>
     <use xlink:href="#DejaVuSans-208a" transform="translate(123.583984 0)"/>
     <use xlink:href="#DejaVuSans-2da" transform="translate(176.367188 0)"/>
     <use xlink:href="#DejaVuSans-20" transform="translate(226.367188 0)"/>
    </g>
   </g>
   <g id="text_21">
    <!-- ( ^^) -->
    <g transform="translate(359.934546 150.09662) scale(0.1 -0.1)">
     <use xlink:href="#DejaVuSans-28"/>
     <use xlink:href="#DejaVuSans-20" transform="translate(39.013672 0)"/>
     <use xlink:href="#DejaVuSans-5e" transform="translate(70.800781 0)"/>
     <use xlink:href="#DejaVuSans-5e" transform="translate(154.589844 0)"/>
     <use xlink:href="#DejaVuSans-29" transform="translate(238.378906 0)"/>
    </g>
   </g>
   <g id="text_22">
    <!-- (・へ・) -->
    <g transform="translate(289.930916 150.09662) scale(0.1 -0.1)">
     <defs>
      <path id="DejaVuSans-30fb" d="M 319 -1131 
L 319 4513 
L 3519 4513 
L 3519 -1131 
L 319 -1131 
z
M 678 -775 
L 3163 -775 
L 3163 4153 
L 678 4153 
L 678 -775 
z
" transform="scale(0.015625)"/>
      <path id="DejaVuSans-3078" d="M 319 -1131 
L 319 4513 
L 3519 4513 
L 3519 -1131 
L 319 -1131 
z
M 678 -775 
L 3163 -775 
L 3163 4153 
L 678 4153 
L 678 -775 
z
" transform="scale(0.015625)"/>
     </defs>
     <use xlink:href="#DejaVuSans-28"/>
     <use xlink:href="#DejaVuSans-30fb" transform="translate(39.013672 0)"/>
     <use xlink:href="#DejaVuSans-3078" transform="translate(99.023438 0)"/>
     <use xlink:href="#DejaVuSans-30fb" transform="translate(159.033203 0)"/>
     <use xlink:href="#DejaVuSans-29" transform="translate(219.042969 0)"/>
    </g>
   </g>
   <g id="text_23">
    <!-- U~~ -->
    <g transform="translate(297.032727 228.843639) scale(0.1 -0.1)">
     <defs>
      <path id="DejaVuSans-55" d="M 556 4666 
L 1191 4666 
L 1191 1831 
Q 1191 1081 1462 751 
Q 1734 422 2344 422 
Q 2950 422 3222 751 
Q 3494 1081 3494 1831 
L 3494 4666 
L 4128 4666 
L 4128 1753 
Q 4128 841 3676 375 
Q 3225 -91 2344 -91 
Q 1459 -91 1007 375 
Q 556 841 556 1753 
L 556 4666 
z
" transform="scale(0.015625)"/>
      <path id="DejaVuSans-7e" d="M 4684 2553 
L 4684 1997 
Q 4356 1750 4076 1644 
Q 3797 1538 3494 1538 
Q 3150 1538 2694 1722 
Q 2659 1734 2644 1741 
Q 2622 1750 2575 1766 
Q 2091 1959 1797 1959 
Q 1522 1959 1253 1839 
Q 984 1719 678 1459 
L 678 2016 
Q 1006 2263 1286 2370 
Q 1566 2478 1869 2478 
Q 2213 2478 2672 2291 
Q 2703 2278 2719 2272 
Q 2744 2263 2788 2247 
Q 3272 2053 3566 2053 
Q 3834 2053 4098 2172 
Q 4363 2291 4684 2553 
z
" transform="scale(0.015625)"/>
     </defs>
     <use xlink:href="#DejaVuSans-55"/>
     <use xlink:href="#DejaVuSans-7e" transform="translate(73.193359 0)"/>
     <use xlink:href="#DejaVuSans-7e" transform="translate(156.982422 0)"/>
    </g>
   </g>
   <g id="text_24">
    <!-- &lt;`&gt; -->
    <g transform="translate(282.32182 141.629206) scale(0.1 -0.1)">
     <defs>
      <path id="DejaVuSans-3c" d="M 4684 3150 
L 1459 2003 
L 4684 863 
L 4684 294 
L 678 1747 
L 678 2266 
L 4684 3719 
L 4684 3150 
z
" transform="scale(0.015625)"/>
      <path id="DejaVuSans-3e" d="M 678 3150 
L 678 3719 
L 4684 2266 
L 4684 1747 
L 678 294 
L 678 863 
L 3897 2003 
L 678 3150 
z
" transform="scale(0.015625)"/>
     </defs>
     <use xlink:href="#DejaVuSans-3c"/>
     <use xlink:href="#DejaVuSans-60" transform="translate(83.789062 0)"/>
     <use xlink:href="#DejaVuSans-3e" transform="translate(133.789062 0)"/>
    </g>
   </g>
   <g id="text_25">
    <!-- U~~ -->
    <g transform="translate(316.309091 189.893511) scale(0.1 -0.1)">
     <use xlink:href="#DejaVuSans-55"/>
     <use xlink:href="#DejaVuSans-7e" transform="translate(73.193359 0)"/>
     <use xlink:href="#DejaVuSans-7e" transform="translate(156.982422 0)"/>
    </g>
   </g>
   <g id="text_26">
    <!-- (✿◠‿◠) -->
    <g transform="translate(323.918186 238.157816) scale(0.1 -0.1)">
     <use xlink:href="#DejaVuSans-28"/>
     <use xlink:href="#DejaVuSans-273f" transform="translate(39.013672 0)"/>
     <use xlink:href="#DejaVuSans-25e0" transform="translate(122.802734 0)"/>
     <use xlink:href="#DejaVuSans-203f" transform="translate(210.058594 0)"/>
     <use xlink:href="#DejaVuSans-25e0" transform="translate(290.429688 0)"/>
     <use xlink:href="#DejaVuSans-29" transform="translate(377.685547 0)"/>
    </g>
   </g>
   <g id="text_27">
    <!-- 𐙚 ‧₊˚ . ݁₊ ⊹ . ݁ ⟡ ݁ . ⊹ ₊ ݁. -->
    <g transform="translate(287.901815 192.433735) scale(0.1 -0.1)">
     <use xlink:href="#DejaVuSans-1065a"/>
     <use xlink:href="#DejaVuSans-20" transform="translate(60.009766 0)"/>
     <use xlink:href="#DejaVuSans-2027" transform="translate(91.796875 0)"/>
     <use xlink:href="#DejaVuSans-208a" transform="translate(123.583984 0)"/>
     <use xlink:href="#DejaVuSans-2da" transform="translate(176.367188 0)"/>
     <use xlink:href="#DejaVuSans-20" transform="translate(226.367188 0)"/>
     <use xlink:href="#DejaVuSans-2e" transform="translate(258.154297 0)"/>
     <use xlink:href="#DejaVuSans-20" transform="translate(289.941406 0)"/>
     <use xlink:href="#DejaVuSans-741" transform="translate(321.728516 0)"/>
     <use xlink:href="#DejaVuSans-208a" transform="translate(381.738281 0)"/>
     <use xlink:href="#DejaVuSans-20" transform="translate(434.521484 0)"/>
     <use xlink:href="#DejaVuSans-22b9" transform="translate(466.308594 0)"/>
     <use xlink:href="#DejaVuSans-20" transform="translate(550.097656 0)"/>
     <use xlink:href="#DejaVuSans-2e" transform="translate(581.884766 0)"/>
     <use xlink:href="#DejaVuSans-20" transform="translate(613.671875 0)"/>
     <use xlink:href="#DejaVuSans-741" transform="translate(645.458984 0)"/>
     <use xlink:href="#DejaVuSans-20" transform="translate(705.46875 0)"/>
     <use xlink:href="#DejaVuSans-27e1" transform="translate(737.255859 0)"/>
     <use xlink:href="#DejaVuSans-20" transform="translate(797.265625 0)"/>
     <use xlink:href="#DejaVuSans-741" transform="translate(829.052734 0)"/>
     <use xlink:href="#DejaVuSans-20" transform="translate(889.0625 0)"/>
     <use xlink:href="#DejaVuSans-2e" transform="translate(920.849609 0)"/>
     <use xlink:href="#DejaVuSans-20" transform="translate(952.636719 0)"/>
     <use xlink:href="#DejaVuSans-22b9" transform="translate(984.423828 0)"/>
     <use xlink:href="#DejaVuSans-20" transform="translate(1068.212891 0)"/>
     <use xlink:href="#DejaVuSans-208a" transform="translate(1100 0)"/>
     <use xlink:href="#DejaVuSans-20" transform="translate(1152.783203 0)"/>
     <use xlink:href="#DejaVuSans-741" transform="translate(1184.570312 0)"/>
     <use xlink:href="#DejaVuSans-2e" transform="translate(1244.580078 0)"/>
    </g>
   </g>
   <g id="text_28">
    <!-- 𐙚 ‧₊˚  -->
    <g transform="translate(287.901815 192.433735) scale(0.1 -0.1)">
     <use xlink:href="#DejaVuSans-1065a"/>
     <use xlink:href="#DejaVuSans-20" transform="translate(60.009766 0)"/>
     <use xlink:href="#DejaVuSans-2027" transform="translate(91.796875 0)"/>
     <use xlink:href="#DejaVuSans-208a" transform="translate(123.583984 0)"/>
     <use xlink:href="#DejaVuSans-2da" transform="translate(176.367188 0)"/>
     <use xlink:href="#DejaVuSans-20" transform="translate(226.367188 0)"/>
    </g>
   </g>
   <g id="text_29">
    <!-- (・へ・) -->
    <g transform="translate(285.365454 150.09662) scale(0.1 -0.1)">
     <use xlink:href="#DejaVuSans-28"/>
     <use xlink:href="#DejaVuSans-30fb" transform="translate(39.013672 0)"/>
     <use xlink:href="#DejaVuSans-3078" transform="translate(99.023438 0)"/>
     <use xlink:href="#DejaVuSans-30fb" transform="translate(159.033203 0)"/>
     <use xlink:href="#DejaVuSans-29" transform="translate(219.042969 0)"/>
    </g>
   </g>
   <g id="text_30">
    <!-- .｡.:･゜ﾟ･!!!!! -->
    <g transform="translate(271.669091 229.690401) scale(0.1 -0.1)">
     <defs>
      <path id="DejaVuSans-ff61" d="M 319 -1131 
L 319 4513 
L 3519 4513 
L 3519 -1131 
L 319 -1131 
z
M 678 -775 
L 3163 -775 
L 3163 4153 
L 678 4153 
L 678 -775 
z
" transform="scale(0.015625)"/>
      <path id="DejaVuSans-3a" d="M 750 794 
L 1409 794 
L 1409 0 
L 750 0 
L 750 794 
z
M 750 3309 
L 1409 3309 
L 1409 2516 
L 750 2516 
L 750 3309 
z
" transform="scale(0.015625)"/>
      <path id="DejaVuSans-309c" d="M 319 -1131 
L 319 4513 
L 3519 4513 
L 3519 -1131 
L 319 -1131 
z
M 678 -775 
L 3163 -775 
L 3163 4153 
L 678 4153 
L 678 -775 
z
" transform="scale(0.015625)"/>
      <path id="DejaVuSans-ff9f" d="M 319 -1131 
L 319 4513 
L 3519 4513 
L 3519 -1131 
L 319 -1131 
z
M 678 -775 
L 3163 -775 
L 3163 4153 
L 678 4153 
L 678 -775 
z
" transform="scale(0.015625)"/>
     </defs>
     <use xlink:href="#DejaVuSans-2e"/>
     <use xlink:href="#DejaVuSans-ff61" transform="translate(31.787109 0)"/>
     <use xlink:href="#DejaVuSans-2e" transform="translate(91.796875 0)"/>
     <use xlink:href="#DejaVuSans-3a" transform="translate(123.583984 0)"/>
     <use xlink:href="#DejaVuSans-ff65" transform="translate(157.275391 0)"/>
     <use xlink:href="#DejaVuSans-309c" transform="translate(217.285156 0)"/>
     <use xlink:href="#DejaVuSans-ff9f" transform="translate(277.294922 0)"/>
     <use xlink:href="#DejaVuSans-ff65" transform="translate(337.304688 0)"/>
     <use xlink:href="#DejaVuSans-21" transform="translate(397.314453 0)"/>
     <use xlink:href="#DejaVuSans-21" transform="translate(437.402344 0)"/>
     <use xlink:href="#DejaVuSans-21" transform="translate(477.490234 0)"/>
     <use xlink:href="#DejaVuSans-21" transform="translate(517.578125 0)"/>
     <use xlink:href="#DejaVuSans-21" transform="translate(557.666016 0)"/>
    </g>
   </g>
   <g id="text_31">
    <!-- 𐙚 ‧₊˚  -->
    <g transform="translate(287.901815 192.433735) scale(0.1 -0.1)">
     <use xlink:href="#DejaVuSans-1065a"/>
     <use xlink:href="#DejaVuSans-20" transform="translate(60.009766 0)"/>
     <use xlink:href="#DejaVuSans-2027" transform="translate(91.796875 0)"/>
     <use xlink:href="#DejaVuSans-208a" transform="translate(123.583984 0)"/>
     <use xlink:href="#DejaVuSans-2da" transform="translate(176.367188 0)"/>
     <use xlink:href="#DejaVuSans-20" transform="translate(226.367188 0)"/>
    </g>
   </g>
   <g id="text_32">
    <!-- $$$$$! -->
    <g transform="translate(111.878177 214.449034) scale(0.1 -0.1)">
     <use xlink:href="#DejaVuSans-24"/>
     <use xlink:href="#DejaVuSans-24" transform="translate(63.623047 0)"/>
     <use xlink:href="#DejaVuSans-24" transform="translate(127.246094 0)"/>
     <use xlink:href="#DejaVuSans-24" transform="translate(190.869141 0)"/>
     <use xlink:href="#DejaVuSans-24" transform="translate(254.492188 0)"/>
     <use xlink:href="#DejaVuSans-21" transform="translate(318.115234 0)"/>
    </g>
   </g>
   <g id="text_33">
    <!-- ´･ω･` -->
    <g transform="translate(134.19818 222.916449) scale(0.1 -0.1)">
     <use xlink:href="#DejaVuSans-b4"/>
     <use xlink:href="#DejaVuSans-ff65" transform="translate(50 0)"/>
     <use xlink:href="#DejaVuSans-3c9" transform="translate(110.009766 0)"/>
     <use xlink:href="#DejaVuSans-ff65" transform="translate(193.75 0)"/>
     <use xlink:href="#DejaVuSans-60" transform="translate(253.759766 0)"/>
    </g>
   </g>
   <g id="text_34">
    <!-- $$$$$! -->
    <g transform="translate(134.19818 222.916449) scale(0.1 -0.1)">
     <use xlink:href="#DejaVuSans-24"/>
     <use xlink:href="#DejaVuSans-24" transform="translate(63.623047 0)"/>
     <use xlink:href="#DejaVuSans-24" transform="translate(127.246094 0)"/>
     <use xlink:href="#DejaVuSans-24" transform="translate(190.869141 0)"/>
     <use xlink:href="#DejaVuSans-24" transform="translate(254.492188 0)"/>
     <use xlink:href="#DejaVuSans-21" transform="translate(318.115234 0)"/>
    </g>
   </g>
   <g id="text_35">
    <!-- ( ^^) -->
    <g transform="translate(129.632742 221.222966) scale(0.1 -0.1)">
     <use xlink:href="#DejaVuSans-28"/>
     <use xlink:href="#DejaVuSans-20" transform="translate(39.013672 0)"/>
     <use xlink:href="#DejaVuSans-5e" transform="translate(70.800781 0)"/>
     <use xlink:href="#DejaVuSans-5e" transform="translate(154.589844 0)"/>
     <use xlink:href="#DejaVuSans-29" transform="translate(238.378906 0)"/>
    </g>
   </g>
   <g id="text_36">
    <!-- (・へ・) -->
    <g transform="translate(152.967289 250.858958) scale(0.1 -0.1)">
     <use xlink:href="#DejaVuSans-28"/>
     <use xlink:href="#DejaVuSans-30fb" transform="translate(39.013672 0)"/>
     <use xlink:href="#DejaVuSans-3078" transform="translate(99.023438 0)"/>
     <use xlink:href="#DejaVuSans-30fb" transform="translate(159.033203 0)"/>
     <use xlink:href="#DejaVuSans-29" transform="translate(219.042969 0)"/>
    </g>
   </g>
  </g>
 </g>
 <defs>
  <clipPath id="pa43b59155e">
   <rect x="57.6" y="41.472" width="357.12" height="266.112"/>
  </clipPath>
 </defs>
</svg>
